<?xml version="1.0" encoding="UTF-8" ?>
<!DOCTYPE svg PUBLIC "-//W3C//DTD SVG 1.1//EN" "http://www.w3.org/Graphics/SVG/1.1/DTD/svg11.dtd">
<svg width="694pt" height="689pt" viewBox="0 0 694 689" version="1.1" xmlns="http://www.w3.org/2000/svg">
<g id="#ffffffff">
</g>
<g id="#040101ff">
<path fill="#040101" opacity="1.00" d=" M 311.42 4.53 C 350.63 3.07 389.99 3.72 429.00 8.22 C 474.58 13.76 520.34 25.20 560.06 48.93 C 587.53 65.13 610.97 87.67 629.43 113.57 C 652.83 145.88 669.04 183.28 676.84 222.39 C 686.22 268.93 687.75 316.66 687.01 364.00 C 685.80 409.24 682.31 455.07 668.48 498.42 C 656.56 535.13 636.93 569.40 611.07 598.06 C 590.40 621.24 564.58 639.55 536.37 652.40 C 499.46 669.31 459.22 677.68 419.01 681.73 C 395.42 684.19 371.70 684.92 348.00 685.09 C 299.31 685.03 250.16 681.79 202.98 669.04 C 170.05 660.01 138.12 645.98 111.03 624.97 C 83.67 603.80 61.79 576.13 45.14 545.94 C 35.14 527.77 27.33 508.43 21.62 488.50 C 12.35 455.47 8.74 421.16 6.90 387.01 C 4.93 340.08 5.56 292.86 12.11 246.28 C 14.85 227.44 18.72 208.73 24.58 190.60 C 37.85 149.88 60.47 112.09 90.71 81.70 C 116.63 55.84 149.24 37.33 183.84 25.76 C 224.87 11.80 268.28 6.40 311.42 4.53 M 313.36 12.28 C 264.28 14.40 214.56 21.02 168.92 40.03 C 140.61 51.81 114.24 68.76 93.07 91.06 C 58.03 127.52 34.15 174.29 24.00 223.75 C 15.13 266.87 13.31 311.08 13.61 354.99 C 14.23 394.02 16.70 433.29 25.41 471.45 C 31.03 495.99 39.97 519.78 52.14 541.83 C 68.12 570.79 89.04 597.37 115.17 617.83 C 142.19 638.96 174.18 653.03 207.19 661.82 C 252.37 673.99 299.40 677.03 346.00 677.32 C 392.66 677.10 439.75 674.10 485.02 662.08 C 517.40 653.51 548.83 639.99 575.61 619.63 C 590.14 608.65 603.04 595.61 614.52 581.48 C 637.05 553.32 654.09 520.72 663.97 486.01 C 674.82 447.32 678.07 407.00 679.29 366.99 C 680.11 318.87 678.79 270.32 668.96 223.05 C 661.51 187.02 646.76 152.53 625.68 122.36 C 607.45 96.01 584.25 72.79 556.59 56.40 C 521.01 34.83 480.19 23.58 439.30 17.56 C 397.61 11.70 355.37 10.77 313.36 12.28 Z" />
<path fill="#040101" opacity="1.00" d=" M 319.45 58.69 C 386.57 52.14 455.84 70.13 510.99 109.01 C 547.40 134.29 577.71 168.23 598.82 207.19 C 618.10 242.48 629.64 281.89 632.82 321.95 C 634.81 333.19 634.47 344.64 634.13 356.00 C 632.79 388.23 625.95 420.22 614.02 450.19 C 607.13 465.27 600.18 480.39 591.46 494.52 C 572.69 525.62 547.79 552.95 518.66 574.63 C 492.49 594.19 462.83 608.96 431.67 618.70 C 363.83 639.82 288.13 634.66 223.94 604.12 C 208.56 597.64 194.32 588.80 180.65 579.30 C 153.03 559.71 128.78 535.28 109.83 507.19 C 96.61 487.69 85.79 466.60 77.19 444.69 C 63.38 407.24 56.85 366.86 60.01 326.99 C 62.31 287.65 72.91 248.82 90.84 213.73 C 113.02 170.13 146.64 132.44 187.39 105.39 C 226.62 79.20 272.47 62.94 319.45 58.69 M 329.35 64.29 C 283.10 67.10 237.61 81.70 198.35 106.32 C 170.58 123.68 145.79 145.81 125.64 171.64 C 98.12 206.63 79.17 248.30 70.81 292.02 C 62.64 334.31 64.52 378.49 76.02 419.99 C 88.46 465.19 112.54 507.14 145.40 540.59 C 165.61 561.30 189.06 578.85 214.65 592.36 C 247.45 609.25 283.29 620.46 320.08 623.89 C 367.91 628.42 416.89 620.45 460.71 600.73 C 488.14 588.53 513.70 572.12 535.89 551.88 C 562.01 528.27 583.56 499.65 599.06 468.05 C 617.12 431.46 626.83 390.84 627.64 350.06 C 628.16 329.90 625.58 309.80 621.93 290.01 C 608.53 222.14 569.09 159.67 513.15 118.88 C 460.86 79.80 394.49 60.14 329.35 64.29 Z" />
<path fill="#040101" opacity="1.00" d=" M 118.50 111.56 C 124.36 109.31 130.72 116.04 127.94 121.74 C 126.01 127.10 117.81 127.98 114.72 123.25 C 111.60 119.34 113.76 112.94 118.50 111.56 M 118.43 114.15 C 114.93 115.76 114.70 121.19 117.96 123.17 C 121.18 125.41 126.22 122.99 126.18 118.98 C 126.51 115.02 121.81 112.29 118.43 114.15 Z" />
<path fill="#040101" opacity="1.00" d=" M 339.41 318.55 C 348.29 316.04 358.30 318.70 364.94 325.07 C 372.56 332.26 375.70 344.01 371.84 353.88 C 368.85 362.11 361.70 368.71 353.25 371.03 C 343.85 373.29 333.29 370.50 326.65 363.35 C 318.34 354.70 316.81 340.38 323.35 330.27 C 327.01 324.57 332.84 320.27 339.41 318.55 M 342.32 323.23 C 330.69 325.09 322.23 337.40 324.92 348.94 C 326.88 360.66 339.41 368.77 350.94 366.17 C 362.53 363.85 370.88 351.00 367.58 339.51 C 365.04 328.62 353.33 320.82 342.32 323.23 Z" />
</g>
</svg>
