<?xml version="1.0" encoding="utf-8"?>
<!-- Generator: Adobe Illustrator 21.1.0, SVG Export Plug-In . SVG Version: 6.00 Build 0)  -->
<svg version="1.1" id="Laag_1" xmlns="http://www.w3.org/2000/svg" xmlns:xlink="http://www.w3.org/1999/xlink" x="0px" y="0px"
	 viewBox="0 0 694 689" style="enable-background:new 0 0 694 689;" xml:space="preserve">
<style type="text/css">
	.st0{fill:#0066CC;}
	.st1{fill:#040101;}
</style>
<ellipse class="st0" cx="346.1" cy="344.1" rx="284.2" ry="280.3"/>
<g id="_x23_ffffffff">
</g>
<g id="_x23_040101ff">
	<path class="st1" d="M311.4,4.5C350.6,3.1,390,3.7,429,8.2c45.6,5.5,91.3,17,131.1,40.7c27.5,16.2,50.9,38.7,69.4,64.6
		c23.4,32.3,39.6,69.7,47.4,108.8c9.4,46.5,10.9,94.3,10.2,141.6c-1.2,45.2-4.7,91.1-18.5,134.4c-11.9,36.7-31.5,71-57.4,99.6
		c-20.7,23.2-46.5,41.5-74.7,54.3c-36.9,16.9-77.1,25.3-117.4,29.3c-23.6,2.5-47.3,3.2-71,3.4c-48.7-0.1-97.8-3.3-145-16.1
		c-32.9-9-64.9-23.1-91.9-44.1c-27.4-21.2-49.2-48.8-65.9-79c-10-18.2-17.8-37.5-23.5-57.4c-9.3-33-12.9-67.3-14.7-101.5
		c-2-46.9-1.3-94.2,5.2-140.7c2.7-18.8,6.6-37.6,12.5-55.7c13.3-40.7,35.9-78.5,66.1-108.9c25.9-25.9,58.5-44.4,93.1-55.9
		C224.9,11.8,268.3,6.4,311.4,4.5 M313.4,12.3C264.3,14.4,214.6,21,168.9,40c-28.3,11.8-54.7,28.7-75.8,51
		C58,127.5,34.2,174.3,24,223.8c-8.9,43.1-10.7,87.3-10.4,131.2c0.6,39,3.1,78.3,11.8,116.5C31,496,40,519.8,52.1,541.8
		c16,29,36.9,55.5,63,76c27,21.1,59,35.2,92,44C252.4,674,299.4,677,346,677.3c46.7-0.2,93.8-3.2,139-15.2
		c32.4-8.6,63.8-22.1,90.6-42.5c14.5-11,27.4-24,38.9-38.2c22.5-28.2,39.6-60.8,49.4-95.5c10.9-38.7,14.1-79,15.3-119
		c0.8-48.1-0.5-96.7-10.3-143.9c-7.5-36-22.2-70.5-43.3-100.7c-18.2-26.3-41.4-49.6-69.1-66C521,34.8,480.2,23.6,439.3,17.6
		C397.6,11.7,355.4,10.8,313.4,12.3z"/>
	<path class="st1" d="M319.5,58.7C386.6,52.1,455.8,70.1,511,109c36.4,25.3,66.7,59.2,87.8,98.2c19.3,35.3,30.8,74.7,34,114.8
		c2,11.2,1.6,22.7,1.3,34c-1.3,32.2-8.2,64.2-20.1,94.2c-6.9,15.1-13.8,30.2-22.6,44.3c-18.8,31.1-43.7,58.4-72.8,80.1
		c-26.2,19.6-55.8,34.3-87,44.1c-67.8,21.1-143.5,16-207.7-14.6c-15.4-6.5-29.6-15.3-43.3-24.8c-27.6-19.6-51.9-44-70.8-72.1
		c-13.2-19.5-24-40.6-32.6-62.5C63.4,407.2,56.8,366.9,60,327c2.3-39.3,12.9-78.2,30.8-113.3c22.2-43.6,55.8-81.3,96.6-108.3
		C226.6,79.2,272.5,62.9,319.5,58.7 M329.4,64.3c-46.2,2.8-91.7,17.4-131,42c-27.8,17.4-52.6,39.5-72.7,65.3
		c-27.5,35-46.5,76.7-54.8,120.4c-8.2,42.3-6.3,86.5,5.2,128c12.4,45.2,36.5,87.2,69.4,120.6c20.2,20.7,43.7,38.3,69.2,51.8
		c32.8,16.9,68.6,28.1,105.4,31.5c47.8,4.5,96.8-3.4,140.6-23.2c27.4-12.2,53-28.6,75.2-48.8c26.1-23.6,47.7-52.2,63.2-83.8
		c18.1-36.6,27.8-77.2,28.6-118c0.5-20.2-2.1-40.3-5.7-60c-13.4-67.9-52.8-130.3-108.8-171.1C460.9,79.8,394.5,60.1,329.4,64.3z"/>
	<path class="st1" d="M118.5,111.6c5.9-2.2,12.2,4.5,9.4,10.2c-1.9,5.4-10.1,6.2-13.2,1.5C111.6,119.3,113.8,112.9,118.5,111.6
		 M118.4,114.2c-3.5,1.6-3.7,7-0.5,9c3.2,2.2,8.3-0.2,8.2-4.2C126.5,115,121.8,112.3,118.4,114.2z"/>
	<path class="st1" d="M339.4,318.5c8.9-2.5,18.9,0.2,25.5,6.5c7.6,7.2,10.8,18.9,6.9,28.8c-3,8.2-10.1,14.8-18.6,17.1
		c-9.4,2.3-20-0.5-26.6-7.7c-8.3-8.6-9.8-23-3.3-33.1C327,324.6,332.8,320.3,339.4,318.5 M342.3,323.2
		c-11.6,1.9-20.1,14.2-17.4,25.7c2,11.7,14.5,19.8,26,17.2c11.6-2.3,19.9-15.2,16.6-26.7C365,328.6,353.3,320.8,342.3,323.2z"/>
</g>
</svg>
