<?xml version="1.0" encoding="utf-8"?>
<!-- Generator: Adobe Illustrator 21.1.0, SVG Export Plug-In . SVG Version: 6.00 Build 0)  -->
<svg version="1.1" id="Laag_1" xmlns="http://www.w3.org/2000/svg" xmlns:xlink="http://www.w3.org/1999/xlink" x="0px" y="0px"
	 viewBox="0 0 51.4 92.8" style="enable-background:new 0 0 51.4 92.8;" xml:space="preserve">
<style type="text/css">
	.st0{fill:none;stroke:#000000;stroke-width:0.5;stroke-linejoin:bevel;stroke-miterlimit:22.9256;}
	.st1{fill:none;stroke:#000000;stroke-width:0.25;stroke-linejoin:bevel;stroke-miterlimit:22.9256;}
</style>
<line class="st0" x1="39.3" y1="0.2" x2="12.1" y2="0.2"/>
<line class="st1" x1="36.2" y1="84.9" x2="36.3" y2="84.9"/>
<line class="st1" x1="36.2" y1="82.5" x2="36.3" y2="82.4"/>
<line class="st1" x1="36.2" y1="77.6" x2="36.3" y2="77.6"/>
<line class="st0" x1="49.4" y1="19.5" x2="1.9" y2="19.5"/>
<line class="st0" x1="47" y1="27.6" x2="50.6" y2="15.5"/>
<line class="st1" x1="15.1" y1="83.4" x2="15.1" y2="83.4"/>
<line class="st1" x1="15.1" y1="80.9" x2="15.1" y2="80.9"/>
<line class="st1" x1="15.1" y1="78.5" x2="15.1" y2="78.5"/>
<line class="st1" x1="36.2" y1="84.6" x2="36.3" y2="84.6"/>
<line class="st1" x1="36.2" y1="82.1" x2="36.3" y2="82.2"/>
<line class="st0" x1="4.4" y1="27.6" x2="0.8" y2="15.5"/>
<line class="st0" x1="40.5" y1="66.9" x2="10.8" y2="66.9"/>
<line class="st0" x1="11.3" y1="67.3" x2="40.1" y2="67.3"/>
<line class="st0" x1="40" y1="67.7" x2="11.4" y2="67.7"/>
<polyline class="st0" points="40,67.7 37.4,72.3 13.9,72.3 11.4,67.7 "/>
<line class="st1" x1="15.1" y1="76.4" x2="15.1" y2="76.4"/>
<line class="st1" x1="15.6" y1="81.5" x2="15.6" y2="81.5"/>
<line class="st1" x1="15.1" y1="81.3" x2="15.1" y2="81.2"/>
<line class="st1" x1="15.1" y1="78.8" x2="15.1" y2="78.8"/>
<line class="st1" x1="15.1" y1="83.7" x2="15.1" y2="83.7"/>
<line class="st1" x1="15.1" y1="86.1" x2="15.1" y2="86.1"/>
<line class="st1" x1="15.9" y1="86.9" x2="15.9" y2="86.9"/>
<polyline class="st0" points="25.7,86.9 36,86.9 35.7,86.7 35.7,86.7 35.6,86.7 35.5,86.5 35.5,86.4 35.4,86.2 35.4,85.7 35.5,85.6 
	35.5,85.4 35.6,85.3 35.7,85.2 36.2,84.9 36.3,84.9 36.3,84.6 36.2,84.6 35.7,84.3 35.7,84.3 35.6,84.2 35.5,84.1 35.5,83.9 
	35.4,83.8 35.4,83.3 35.5,83.2 35.5,83 35.6,82.8 35.7,82.8 36.2,82.5 36.3,82.4 36.3,82.2 36.2,82.1 35.7,81.9 35.7,81.9 
	35.6,81.8 35.5,81.6 35.5,81.5 35.4,81.3 35.4,80.9 35.5,80.7 35.5,80.5 35.7,80.4 35.7,80.3 "/>
<line class="st0" x1="23.9" y1="86.9" x2="16.1" y2="86.9"/>
<polyline class="st0" points="15.1,72.3 15.1,76.4 15.1,76.4 15.6,76.7 15.7,76.7 15.8,76.8 15.9,77 15.9,77.2 15.9,77.7 15.9,77.8 
	15.8,78 15.7,78.1 15.6,78.2 15.6,78.2 15.1,78.5 15.1,78.5 15.1,78.8 15.1,78.8 15.6,79.1 15.7,79.2 15.8,79.3 15.9,79.5 
	15.9,79.6 15.9,80.1 15.9,80.2 15.9,80.4 15.7,80.6 15.6,80.6 15.6,80.6 15.1,80.9 15.1,80.9 15.1,81.2 15.1,81.3 15.6,81.5 
	15.7,81.6 15.8,81.7 15.9,81.9 15.9,82.1 15.9,82.1 15.9,82.5 15.9,82.5 15.9,82.7 15.9,82.9 15.7,83 15.6,83.1 15.6,83.1 
	15.1,83.4 15.1,83.4 15.1,83.7 15.1,83.7 15.6,84 15.7,84.1 15.8,84.2 15.9,84.4 15.9,84.5 15.9,85 15.9,85.2 15.8,85.3 15.7,85.4 
	15.6,85.5 15.6,85.5 15.1,85.8 15.1,85.8 15.1,86.1 15.1,86.1 15.6,86.4 15.7,86.5 15.8,86.6 15.9,86.8 15.9,86.9 18.4,88.3 
	33,88.3 35.4,86.9 "/>
<line class="st0" x1="28.9" y1="91.5" x2="22.4" y2="91.5"/>
<line class="st0" x1="28.9" y1="91.6" x2="22.5" y2="91.6"/>
<path class="st0" d="M23.9,86.9c0.6,0,1.2,0,1.8,0"/>
<path class="st0" d="M50.6,15.5C51.7,11.9,51,8,48.8,5c-2.2-3-5.8-4.8-9.5-4.8"/>
<path class="st0" d="M12.1,0.2C8.3,0.2,4.8,2,2.6,5c-2.2,3-2.9,6.9-1.8,10.5"/>
<path class="st0" d="M28.9,91.6c0,0-0.1,0-0.1,0"/>
<path class="st0" d="M22.6,91.5c0,0-0.1,0-0.1,0"/>
<path class="st0" d="M32.2,88.3l-3.3,3.3l0,0c-1.9,1.3-4.5,1.3-6.4,0l0,0l-3.3-3.3"/>
<path class="st1" d="M35.4,76.5C35.4,76.5,35.4,76.4,35.4,76.5"/>
<path class="st0" d="M10.8,66.9c0,0.2,0.2,0.4,0.4,0.4"/>
<path class="st0" d="M40.1,67.3c0.2,0,0.4-0.2,0.4-0.4"/>
<path class="st0" d="M11.6,67.3c-0.1,0-0.2,0-0.2,0.1c0,0.1,0,0.2,0,0.2"/>
<path class="st0" d="M40,67.7c0-0.1,0-0.2,0-0.2c0-0.1-0.1-0.1-0.2-0.1"/>
<line class="st1" x1="15.9" y1="82.1" x2="15.9" y2="82.1"/>
<line class="st1" x1="15.6" y1="81.5" x2="15.6" y2="81.5"/>
<path class="st1" d="M15.1,85.8C15.1,85.8,15.1,85.8,15.1,85.8C15.1,85.8,15.1,85.8,15.1,85.8"/>
<path class="st1" d="M35.4,78.9C35.4,78.9,35.4,78.9,35.4,78.9C35.4,78.9,35.4,78.9,35.4,78.9C35.4,78.9,35.4,78.9,35.4,78.9
	c-0.1,0-0.1,0.1-0.1,0.1c0,0-0.1,0-0.1,0c0,0-0.1,0-0.1,0c0,0-0.1,0-0.1,0c-0.1,0-0.2,0-0.3,0c-0.1,0-0.3,0-0.4,0
	c-0.2,0-0.3,0-0.5,0c-0.2,0-0.4,0-0.6,0c-0.2,0-0.4,0-0.6,0c-0.2,0-0.5,0-0.7,0c-0.3,0-0.5,0-0.8,0c-0.3,0-0.5,0-0.8,0
	c-0.3,0-0.6,0-0.9,0c-0.6,0-1.2,0.1-1.8,0.1c-0.6,0-1.3,0.1-1.9,0.1c-0.6,0-1.3,0.1-1.9,0.1c-0.6,0-1.2,0-1.8,0.1
	c-0.3,0-0.6,0-0.9,0c-0.3,0-0.5,0-0.8,0c-0.3,0-0.5,0-0.8,0c-0.2,0-0.5,0-0.7,0c-0.2,0-0.4,0-0.6,0c-0.2,0-0.4,0-0.6,0
	c-0.2,0-0.3,0-0.5,0c-0.1,0-0.3,0-0.4,0c-0.1,0-0.2,0-0.3,0c0,0-0.1,0-0.1,0c0,0-0.1,0-0.1,0c0,0-0.1,0-0.1,0c0,0,0,0-0.1,0
	c0,0,0,0,0,0c0,0,0,0,0,0c0,0,0,0,0,0"/>
<path class="st1" d="M25.7,75.7c0.6,0,1.3,0,1.9-0.1c0.6,0,1.2,0,1.9-0.1c0.6,0,1.2,0,1.7-0.1c0.5,0,1,0,1.6-0.1c0.2,0,0.5,0,0.7,0
	c0.2,0,0.4,0,0.6,0c0.2,0,0.4,0,0.6,0c0.2,0,0.3,0,0.5,0c0.1,0,0.3,0,0.4,0c0.1,0,0.2,0,0.3,0c0.1,0,0.2,0,0.2,0c0,0,0.1,0,0.1,0
	c0,0,0,0,0.1,0"/>
<path class="st1" d="M25.7,78.2c0.7,0,1.3,0,2-0.1c0.6,0,1.3,0,1.9-0.1c0.6,0,1.2,0,1.8-0.1c0.3,0,0.5,0,0.8,0c0.3,0,0.5,0,0.8,0
	c0.2,0,0.5,0,0.7,0c0.2,0,0.4,0,0.6,0c0.2,0,0.4,0,0.5,0c0.2,0,0.3,0,0.5,0c0.1,0,0.3,0,0.4,0c0.1,0,0.1,0,0.2,0c0,0,0.1,0,0.1,0
	c0,0,0.1,0,0.1,0c0,0,0.1,0,0.1,0c0,0,0,0,0.1,0c0,0,0,0,0,0"/>
<path class="st1" d="M35.7,79.4C35.7,79.4,35.8,79.4,35.7,79.4C35.8,79.4,35.8,79.4,35.7,79.4C35.8,79.4,35.8,79.4,35.7,79.4
	C35.8,79.5,35.8,79.5,35.7,79.4C35.8,79.5,35.8,79.5,35.7,79.4C35.7,79.5,35.7,79.5,35.7,79.4C35.7,79.5,35.7,79.5,35.7,79.4
	C35.7,79.5,35.7,79.5,35.7,79.4c-0.1,0.1-0.1,0.1-0.1,0.1c0,0-0.1,0-0.1,0c0,0-0.1,0-0.1,0c0,0-0.1,0-0.1,0c-0.1,0-0.1,0-0.2,0
	c-0.1,0-0.1,0-0.2,0c-0.1,0-0.1,0-0.2,0c-0.1,0-0.2,0-0.2,0c-0.2,0-0.4,0-0.5,0c-0.2,0-0.4,0-0.6,0c-0.2,0-0.5,0-0.7,0
	c-0.3,0-0.5,0-0.8,0c-0.3,0-0.5,0-0.8,0c-0.3,0-0.6,0-0.9,0c-0.3,0-0.6,0-0.9,0c-0.3,0-0.6,0-0.9,0C27.7,80,27,80,26.4,80
	c-0.7,0-1.3,0.1-2,0.1c-0.6,0-1.3,0.1-1.9,0.1c-0.6,0-1.2,0-1.8,0.1c-0.3,0-0.6,0-0.8,0c-0.3,0-0.5,0-0.8,0c-0.2,0-0.5,0-0.7,0
	c-0.2,0-0.4,0-0.6,0c-0.2,0-0.4,0-0.6,0c-0.2,0-0.3,0-0.5,0c-0.1,0-0.3,0-0.4,0c-0.1,0-0.1,0-0.2,0c0,0-0.1,0-0.1,0c0,0-0.1,0-0.1,0
	c0,0-0.1,0-0.1,0c0,0,0,0-0.1,0c0,0,0,0,0,0"/>
<path class="st1" d="M25.7,85.5c-0.7,0-1.4,0.1-2.1,0.1c-0.7,0-1.3,0-2,0.1c-0.3,0-0.6,0-0.9,0c-0.3,0-0.6,0-0.9,0
	c-0.3,0-0.6,0-0.8,0c-0.3,0-0.5,0-0.8,0c-0.2,0-0.5,0-0.7,0c-0.2,0-0.4,0-0.6,0c-0.2,0-0.4,0-0.5,0c-0.1,0-0.3,0-0.4,0
	c-0.1,0-0.2,0-0.3,0c-0.1,0-0.2,0-0.3,0c0,0-0.1,0-0.1,0c0,0,0,0-0.1,0c0,0,0,0,0,0c0,0,0,0,0,0c0,0,0,0,0,0"/>
<path class="st1" d="M25.7,82.8c-0.7,0-1.3,0-2,0.1c-0.6,0-1.3,0-1.9,0.1c-0.6,0-1.2,0-1.8,0.1c-0.3,0-0.5,0-0.8,0
	c-0.3,0-0.5,0-0.8,0c-0.2,0-0.5,0-0.7,0c-0.2,0-0.4,0-0.6,0c-0.2,0-0.4,0-0.5,0c-0.2,0-0.3,0-0.5,0c-0.1,0-0.3,0-0.4,0
	c-0.1,0-0.1,0-0.2,0c0,0-0.1,0-0.1,0c0,0-0.1,0-0.1,0c0,0-0.1,0-0.1,0c0,0,0,0-0.1,0c0,0,0,0,0,0"/>
<path class="st1" d="M25.7,80.3c-0.7,0-1.3,0-2,0.1c-0.6,0-1.3,0-1.9,0.1c-0.6,0-1.2,0-1.8,0.1c-0.3,0-0.5,0-0.8,0
	c-0.3,0-0.5,0-0.8,0c-0.2,0-0.5,0-0.7,0c-0.2,0-0.4,0-0.6,0c-0.2,0-0.4,0-0.5,0c-0.2,0-0.3,0-0.5,0c-0.1,0-0.3,0-0.4,0
	c-0.1,0-0.1,0-0.2,0c0,0-0.1,0-0.1,0c0,0-0.1,0-0.1,0c0,0-0.1,0-0.1,0c0,0,0,0-0.1,0c0,0,0,0,0,0"/>
<path class="st1" d="M35.7,77.9C35.7,77.9,35.7,77.9,35.7,77.9c-0.1,0-0.1,0-0.1,0c0,0-0.1,0-0.1,0c0,0-0.1,0-0.1,0c0,0-0.1,0-0.1,0
	c-0.1,0-0.1,0-0.2,0c-0.1,0-0.3,0-0.4,0c-0.2,0-0.3,0-0.5,0c-0.2,0-0.4,0-0.6,0c-0.2,0-0.4,0-0.6,0c-0.2,0-0.5,0-0.7,0
	c-0.3,0-0.5,0-0.8,0c-0.3,0-0.6,0-0.8,0c-0.6,0-1.2,0.1-1.8,0.1c-0.6,0-1.3,0.1-1.9,0.1c-0.7,0-1.3,0.1-2,0.1
	c-0.6,0-1.3,0.1-1.9,0.1c-0.3,0-0.6,0-0.9,0c-0.3,0-0.6,0-0.9,0c-0.3,0-0.6,0-0.9,0c-0.3,0-0.5,0-0.8,0c-0.3,0-0.5,0-0.8,0
	c-0.2,0-0.5,0-0.7,0c-0.2,0-0.4,0-0.6,0c-0.2,0-0.4,0-0.5,0c-0.1,0-0.2,0-0.2,0c-0.1,0-0.1,0-0.2,0c-0.1,0-0.1,0-0.2,0
	c-0.1,0-0.1,0-0.2,0c0,0-0.1,0-0.1,0c0,0-0.1,0-0.1,0c0,0-0.1,0-0.1,0c0,0-0.1,0-0.1,0c0,0,0,0,0,0c0,0,0,0,0,0c0,0,0,0,0,0
	c0,0,0,0,0,0c0,0,0,0,0,0c0,0,0,0,0,0c0,0,0,0,0,0c0,0,0,0,0,0"/>
<path class="st1" d="M25.7,77.9c-0.7,0-1.3,0-2,0.1c-0.6,0-1.3,0-1.9,0.1c-0.6,0-1.2,0-1.8,0.1c-0.3,0-0.5,0-0.8,0
	c-0.3,0-0.5,0-0.8,0c-0.2,0-0.5,0-0.7,0c-0.2,0-0.4,0-0.6,0c-0.2,0-0.4,0-0.5,0c-0.2,0-0.3,0-0.5,0c-0.1,0-0.3,0-0.4,0
	c-0.1,0-0.1,0-0.2,0c0,0-0.1,0-0.1,0c0,0-0.1,0-0.1,0c0,0-0.1,0-0.1,0c0,0,0,0-0.1,0c0,0,0,0,0,0"/>
<path class="st1" d="M35.7,80.3C35.7,80.3,35.7,80.3,35.7,80.3c-0.1,0-0.1,0-0.1,0c0,0-0.1,0-0.1,0c0,0-0.1,0-0.1,0c0,0-0.1,0-0.1,0
	c-0.1,0-0.1,0-0.2,0c-0.1,0-0.3,0-0.4,0c-0.2,0-0.3,0-0.5,0c-0.2,0-0.4,0-0.5,0c-0.2,0-0.4,0-0.6,0c-0.2,0-0.5,0-0.7,0
	c-0.2,0-0.5,0-0.7,0c-0.3,0-0.5,0-0.8,0c-0.6,0-1.2,0.1-1.7,0.1c-0.6,0-1.2,0.1-1.9,0.1c-0.6,0-1.3,0-1.9,0.1c-0.6,0-1.3,0-1.9,0.1
	c-0.6,0-1.2,0-1.8,0.1c-0.3,0-0.6,0-0.9,0c-0.3,0-0.5,0-0.8,0c-0.3,0-0.5,0-0.8,0c-0.2,0-0.5,0-0.7,0c-0.2,0-0.4,0-0.6,0
	c-0.2,0-0.4,0-0.6,0c-0.2,0-0.3,0-0.5,0c-0.1,0-0.3,0-0.4,0c-0.1,0-0.2,0-0.3,0c0,0-0.1,0-0.1,0c0,0-0.1,0-0.1,0c0,0-0.1,0-0.1,0
	c0,0,0,0-0.1,0c0,0,0,0,0,0c0,0,0,0,0,0"/>
<line class="st1" x1="15.6" y1="81.5" x2="15.6" y2="81.5"/>
<path class="st1" d="M35.4,86.2C35.4,86.2,35.4,86.2,35.4,86.2C35.4,86.2,35.4,86.2,35.4,86.2C35.4,86.2,35.4,86.2,35.4,86.2
	C35.4,86.2,35.4,86.2,35.4,86.2c-0.1,0.1-0.1,0.1-0.1,0.1c0,0-0.1,0-0.1,0c-0.1,0-0.2,0-0.3,0c-0.1,0-0.3,0-0.4,0
	c-0.2,0-0.3,0-0.5,0c-0.2,0-0.4,0-0.6,0c-0.2,0-0.5,0-0.7,0c-0.3,0-0.5,0-0.8,0c-0.3,0-0.6,0-0.9,0c-0.3,0-0.6,0-0.9,0
	c-0.3,0-0.7,0-1,0c-0.3,0-0.7,0-1,0c-0.7,0-1.4,0.1-2.1,0.1c-0.4,0-0.7,0-1.1,0c-0.4,0-0.7,0-1.1,0"/>
<path class="st1" d="M35.7,86.7C35.7,86.7,35.8,86.7,35.7,86.7C35.8,86.7,35.8,86.7,35.7,86.7C35.8,86.8,35.8,86.8,35.7,86.7
	C35.8,86.8,35.8,86.8,35.7,86.7C35.8,86.8,35.8,86.8,35.7,86.7C35.8,86.8,35.8,86.8,35.7,86.7C35.7,86.8,35.7,86.8,35.7,86.7
	C35.7,86.8,35.7,86.8,35.7,86.7c-0.1,0.1-0.1,0.1-0.1,0.1c-0.1,0-0.1,0-0.2,0"/>
<path class="st1" d="M35.5,86.9C35.4,86.9,35.4,86.9,35.5,86.9c-0.1,0-0.1,0-0.2,0"/>
<path class="st1" d="M25.7,85.5c0.7,0,1.3,0,2-0.1c0.6,0,1.3,0,1.9-0.1c0.6,0,1.2,0,1.8-0.1c0.3,0,0.5,0,0.8,0c0.3,0,0.5,0,0.8,0
	c0.2,0,0.5,0,0.7,0c0.2,0,0.4,0,0.6,0c0.2,0,0.4,0,0.5,0c0.2,0,0.3,0,0.5,0c0.1,0,0.3,0,0.4,0c0.1,0,0.1,0,0.2,0c0,0,0.1,0,0.1,0
	c0,0,0.1,0,0.1,0c0,0,0.1,0,0.1,0c0,0,0,0,0.1,0c0,0,0,0,0,0"/>
<path class="st1" d="M35.4,83.8C35.4,83.8,35.4,83.8,35.4,83.8C35.4,83.8,35.4,83.8,35.4,83.8C35.4,83.8,35.4,83.8,35.4,83.8
	c-0.1,0-0.1,0.1-0.1,0.1c0,0-0.1,0-0.1,0c0,0-0.1,0-0.1,0c0,0-0.1,0-0.1,0c-0.1,0-0.2,0-0.3,0c-0.1,0-0.3,0-0.4,0
	c-0.2,0-0.3,0-0.5,0c-0.2,0-0.4,0-0.6,0c-0.2,0-0.4,0-0.6,0c-0.2,0-0.5,0-0.7,0c-0.3,0-0.5,0-0.8,0c-0.3,0-0.5,0-0.8,0
	c-0.3,0-0.6,0-0.9,0c-0.6,0-1.2,0.1-1.8,0.1c-0.6,0-1.3,0.1-1.9,0.1c-0.6,0-1.3,0.1-1.9,0.1c-0.6,0-1.2,0-1.8,0.1
	c-0.3,0-0.6,0-0.9,0c-0.3,0-0.5,0-0.8,0c-0.3,0-0.5,0-0.8,0c-0.2,0-0.5,0-0.7,0c-0.2,0-0.4,0-0.6,0c-0.2,0-0.4,0-0.6,0
	c-0.2,0-0.3,0-0.5,0c-0.1,0-0.3,0-0.4,0c-0.1,0-0.2,0-0.3,0c0,0-0.1,0-0.1,0c0,0-0.1,0-0.1,0c0,0-0.1,0-0.1,0c0,0,0,0-0.1,0
	c0,0,0,0,0,0c0,0,0,0,0,0c0,0,0,0,0,0"/>
<path class="st1" d="M35.7,84.3C35.7,84.3,35.8,84.3,35.7,84.3C35.8,84.3,35.8,84.3,35.7,84.3C35.8,84.3,35.8,84.3,35.7,84.3
	C35.8,84.3,35.8,84.3,35.7,84.3C35.8,84.3,35.8,84.3,35.7,84.3C35.7,84.3,35.7,84.4,35.7,84.3C35.7,84.4,35.7,84.4,35.7,84.3
	C35.7,84.4,35.7,84.4,35.7,84.3c-0.1,0.1-0.1,0.1-0.1,0.1c0,0-0.1,0-0.1,0c0,0-0.1,0-0.1,0c0,0-0.1,0-0.1,0c-0.1,0-0.1,0-0.2,0
	c-0.1,0-0.1,0-0.2,0c-0.1,0-0.1,0-0.2,0c-0.1,0-0.2,0-0.2,0c-0.2,0-0.4,0-0.5,0c-0.2,0-0.4,0-0.6,0c-0.2,0-0.5,0-0.7,0
	c-0.3,0-0.5,0-0.8,0c-0.3,0-0.5,0-0.8,0c-0.3,0-0.6,0-0.9,0c-0.3,0-0.6,0-0.9,0c-0.3,0-0.6,0-0.9,0c-0.6,0-1.3,0.1-1.9,0.1
	c-0.7,0-1.3,0.1-2,0.1c-0.6,0-1.3,0.1-1.9,0.1c-0.6,0-1.2,0-1.8,0.1c-0.3,0-0.6,0-0.8,0c-0.3,0-0.5,0-0.8,0c-0.2,0-0.5,0-0.7,0
	c-0.2,0-0.4,0-0.6,0c-0.2,0-0.4,0-0.6,0c-0.2,0-0.3,0-0.5,0c-0.1,0-0.3,0-0.4,0c-0.1,0-0.1,0-0.2,0c0,0-0.1,0-0.1,0c0,0-0.1,0-0.1,0
	c0,0-0.1,0-0.1,0c0,0,0,0-0.1,0c0,0,0,0,0,0"/>
<path class="st1" d="M25.7,83.1c0.7,0,1.3,0,2-0.1c0.6,0,1.3,0,1.9-0.1c0.6,0,1.2,0,1.8-0.1c0.3,0,0.5,0,0.8,0c0.3,0,0.5,0,0.8,0
	c0.2,0,0.5,0,0.7,0c0.2,0,0.4,0,0.6,0c0.2,0,0.4,0,0.5,0c0.2,0,0.3,0,0.5,0c0.1,0,0.3,0,0.4,0c0.1,0,0.1,0,0.2,0c0,0,0.1,0,0.1,0
	c0,0,0.1,0,0.1,0c0,0,0.1,0,0.1,0c0,0,0,0,0.1,0c0,0,0,0,0,0"/>
<path class="st1" d="M35.4,78.4C35.4,78.4,35.4,78.4,35.4,78.4C35.4,78.4,35.4,78.4,35.4,78.4C35.4,78.4,35.4,78.5,35.4,78.4
	c-0.1,0-0.1,0.1-0.1,0.1c0,0-0.1,0-0.1,0c0,0-0.1,0-0.1,0c0,0-0.1,0-0.1,0c-0.1,0-0.2,0-0.3,0c-0.1,0-0.3,0-0.4,0
	c-0.2,0-0.3,0-0.5,0c-0.2,0-0.4,0-0.6,0c-0.2,0-0.4,0-0.6,0c-0.2,0-0.5,0-0.7,0c-0.3,0-0.5,0-0.8,0c-0.3,0-0.5,0-0.8,0
	c-0.3,0-0.6,0-0.9,0c-0.6,0-1.2,0.1-1.8,0.1C27,79,26.3,79,25.7,79c-0.6,0-1.3,0.1-1.9,0.1c-0.6,0-1.2,0-1.8,0.1c-0.3,0-0.6,0-0.9,0
	c-0.3,0-0.5,0-0.8,0c-0.3,0-0.5,0-0.8,0c-0.2,0-0.5,0-0.7,0c-0.2,0-0.4,0-0.6,0c-0.2,0-0.4,0-0.6,0c-0.2,0-0.3,0-0.5,0
	c-0.1,0-0.3,0-0.4,0c-0.1,0-0.2,0-0.3,0c0,0-0.1,0-0.1,0c0,0-0.1,0-0.1,0c0,0-0.1,0-0.1,0c0,0,0,0-0.1,0c0,0,0,0,0,0c0,0,0,0,0,0
	c0,0,0,0,0,0"/>
<path class="st1" d="M35.4,81.3C35.4,81.3,35.4,81.3,35.4,81.3C35.4,81.3,35.4,81.3,35.4,81.3C35.4,81.4,35.4,81.4,35.4,81.3
	c-0.1,0-0.1,0.1-0.1,0.1c0,0-0.1,0-0.1,0c0,0-0.1,0-0.1,0c0,0-0.1,0-0.1,0c-0.1,0-0.2,0-0.3,0c-0.1,0-0.3,0-0.4,0
	c-0.2,0-0.3,0-0.5,0c-0.2,0-0.4,0-0.6,0c-0.2,0-0.4,0-0.6,0c-0.2,0-0.5,0-0.7,0c-0.3,0-0.5,0-0.8,0c-0.3,0-0.5,0-0.8,0
	c-0.3,0-0.6,0-0.9,0c-0.6,0-1.2,0.1-1.8,0.1c-0.6,0-1.3,0.1-1.9,0.1c-0.6,0-1.3,0.1-1.9,0.1c-0.6,0-1.2,0-1.8,0.1
	c-0.3,0-0.6,0-0.9,0c-0.3,0-0.5,0-0.8,0c-0.3,0-0.5,0-0.8,0c-0.2,0-0.5,0-0.7,0c-0.2,0-0.4,0-0.6,0c-0.2,0-0.4,0-0.6,0
	c-0.2,0-0.3,0-0.5,0c-0.1,0-0.3,0-0.4,0c-0.1,0-0.2,0-0.3,0c0,0-0.1,0-0.1,0c0,0-0.1,0-0.1,0c0,0-0.1,0-0.1,0c0,0,0,0-0.1,0
	c0,0,0,0,0,0c0,0,0,0,0,0c0,0,0,0,0,0"/>
<path class="st1" d="M36.3,82.2C36.3,82.2,36.2,82.2,36.3,82.2C36.2,82.2,36.2,82.2,36.3,82.2C36.2,82.2,36.2,82.2,36.3,82.2
	c-0.1,0-0.1,0.1-0.1,0.1c0,0-0.1,0-0.1,0c-0.1,0-0.2,0-0.3,0c-0.1,0-0.2,0-0.3,0c-0.1,0-0.3,0-0.4,0c-0.2,0-0.4,0-0.5,0
	c-0.2,0-0.4,0-0.6,0c-0.2,0-0.5,0-0.7,0c-0.3,0-0.5,0-0.8,0c-0.3,0-0.6,0-0.8,0c-0.3,0-0.6,0-0.9,0c-0.3,0-0.6,0-0.9,0
	c-0.7,0-1.3,0.1-2,0.1c-0.7,0-1.4,0.1-2.1,0.1"/>
<path class="st1" d="M36.3,84.6C36.3,84.6,36.2,84.6,36.3,84.6C36.2,84.6,36.2,84.6,36.3,84.6C36.2,84.6,36.2,84.6,36.3,84.6
	c-0.1,0-0.1,0.1-0.1,0.1c0,0-0.1,0-0.1,0c-0.1,0-0.2,0-0.3,0c-0.1,0-0.2,0-0.3,0c-0.1,0-0.3,0-0.4,0c-0.2,0-0.4,0-0.5,0
	c-0.2,0-0.4,0-0.6,0c-0.2,0-0.5,0-0.7,0c-0.3,0-0.5,0-0.8,0c-0.3,0-0.6,0-0.8,0c-0.3,0-0.6,0-0.9,0c-0.3,0-0.6,0-0.9,0
	c-0.7,0-1.3,0.1-2,0.1c-0.7,0-1.4,0.1-2.1,0.1"/>
<path class="st1" d="M35.4,80.9C35.4,80.9,35.4,80.9,35.4,80.9C35.4,80.9,35.4,80.9,35.4,80.9C35.4,80.9,35.4,80.9,35.4,80.9
	c-0.1,0-0.1,0.1-0.1,0.1c0,0-0.1,0-0.1,0c0,0-0.1,0-0.1,0c0,0-0.1,0-0.1,0c-0.1,0-0.2,0-0.3,0c-0.1,0-0.3,0-0.4,0
	c-0.2,0-0.3,0-0.5,0c-0.2,0-0.4,0-0.6,0c-0.2,0-0.4,0-0.6,0c-0.2,0-0.5,0-0.7,0c-0.3,0-0.5,0-0.8,0c-0.3,0-0.5,0-0.8,0
	c-0.3,0-0.6,0-0.9,0c-0.6,0-1.2,0.1-1.8,0.1c-0.6,0-1.3,0.1-1.9,0.1c-0.6,0-1.3,0.1-1.9,0.1c-0.6,0-1.2,0-1.8,0.1
	c-0.3,0-0.6,0-0.9,0c-0.3,0-0.5,0-0.8,0c-0.3,0-0.5,0-0.8,0c-0.2,0-0.5,0-0.7,0c-0.2,0-0.4,0-0.6,0c-0.2,0-0.4,0-0.6,0
	c-0.2,0-0.3,0-0.5,0c-0.1,0-0.3,0-0.4,0c-0.1,0-0.2,0-0.3,0c-0.1,0-0.2,0-0.2,0c0,0-0.1,0-0.1,0c0,0,0,0-0.1,0c0,0,0,0,0,0
	c0,0,0,0,0,0c0,0,0,0,0,0"/>
<path class="st1" d="M35.7,81.9C35.7,81.9,35.8,81.9,35.7,81.9C35.8,81.9,35.8,81.9,35.7,81.9C35.8,81.9,35.8,81.9,35.7,81.9
	C35.8,81.9,35.8,81.9,35.7,81.9C35.8,81.9,35.8,81.9,35.7,81.9C35.7,81.9,35.7,81.9,35.7,81.9C35.7,81.9,35.7,81.9,35.7,81.9
	C35.7,81.9,35.7,81.9,35.7,81.9c-0.1,0.1-0.1,0.1-0.1,0.1c0,0-0.1,0-0.1,0c0,0-0.1,0-0.1,0c0,0-0.1,0-0.1,0c-0.1,0-0.1,0-0.2,0
	c-0.1,0-0.1,0-0.2,0c-0.1,0-0.1,0-0.2,0c-0.1,0-0.2,0-0.2,0c-0.2,0-0.4,0-0.5,0c-0.2,0-0.4,0-0.6,0c-0.2,0-0.5,0-0.7,0
	c-0.3,0-0.5,0-0.8,0c-0.3,0-0.5,0-0.8,0c-0.3,0-0.6,0-0.9,0c-0.3,0-0.6,0-0.9,0c-0.3,0-0.6,0-0.9,0c-0.6,0-1.3,0.1-1.9,0.1
	c-0.7,0-1.3,0.1-2,0.1c-0.6,0-1.3,0.1-1.9,0.1c-0.6,0-1.2,0-1.8,0.1c-0.3,0-0.6,0-0.8,0c-0.3,0-0.5,0-0.8,0c-0.2,0-0.5,0-0.7,0
	c-0.2,0-0.4,0-0.6,0c-0.2,0-0.4,0-0.6,0c-0.2,0-0.3,0-0.5,0c-0.1,0-0.3,0-0.4,0c-0.1,0-0.1,0-0.2,0c0,0-0.1,0-0.1,0c0,0-0.1,0-0.1,0
	c0,0-0.1,0-0.1,0c0,0,0,0-0.1,0c0,0,0,0,0,0"/>
<path class="st1" d="M35.8,77C35.8,77,35.8,77,35.8,77c-0.1,0-0.1,0-0.1,0c-0.1,0-0.1,0-0.2,0c-0.1,0-0.2,0-0.3,0
	c-0.1,0-0.3,0-0.4,0c-0.2,0-0.3,0-0.5,0c-0.2,0-0.4,0-0.5,0c-0.2,0-0.4,0-0.6,0c-0.2,0-0.4,0-0.7,0c-0.5,0-1,0.1-1.5,0.1
	c-0.6,0-1.1,0.1-1.7,0.1c-0.6,0-1.2,0.1-1.8,0.1c-0.6,0-1.3,0-1.9,0.1c-0.6,0-1.2,0-1.9,0.1c-0.6,0-1.2,0-1.8,0.1
	c-0.6,0-1.1,0-1.7,0.1c-0.3,0-0.5,0-0.8,0c-0.2,0-0.5,0-0.7,0c-0.2,0-0.4,0-0.7,0c-0.2,0-0.4,0-0.6,0c-0.2,0-0.3,0-0.5,0
	c-0.1,0-0.3,0-0.4,0c-0.1,0-0.2,0-0.4,0c-0.1,0-0.2,0-0.3,0c0,0-0.1,0-0.1,0c0,0-0.1,0-0.1,0c0,0,0,0-0.1,0c0,0,0,0,0,0"/>
<path class="st1" d="M15.1,76.4C15.1,76.3,15.1,76.3,15.1,76.4C15.1,76.3,15.1,76.3,15.1,76.4C15.2,76.3,15.2,76.3,15.1,76.4
	c0.1,0,0.1-0.1,0.1-0.1c0,0,0.1,0,0.1,0c0.1,0,0.2,0,0.3,0c0.1,0,0.2,0,0.3,0c0.1,0,0.3,0,0.4,0c0.2,0,0.4,0,0.5,0
	c0.2,0,0.4,0,0.6,0c0.2,0,0.5,0,0.7,0c0.3,0,0.5,0,0.8,0c0.3,0,0.6,0,0.8,0c0.3,0,0.6,0,0.9,0c0.3,0,0.6,0,0.9,0
	c0.7,0,1.3-0.1,2-0.1c0.7,0,1.4-0.1,2.1-0.1"/>
<path class="st1" d="M15.1,78.8C15.1,78.8,15.1,78.8,15.1,78.8C15.1,78.8,15.1,78.8,15.1,78.8C15.2,78.8,15.2,78.8,15.1,78.8
	c0.1,0,0.1-0.1,0.1-0.1c0,0,0.1,0,0.1,0c0.1,0,0.2,0,0.3,0c0.1,0,0.2,0,0.3,0c0.1,0,0.3,0,0.4,0c0.2,0,0.4,0,0.5,0
	c0.2,0,0.4,0,0.6,0c0.2,0,0.5,0,0.7,0c0.3,0,0.5,0,0.8,0c0.3,0,0.6,0,0.8,0c0.3,0,0.6,0,0.9,0c0.3,0,0.6,0,0.9,0
	c0.7,0,1.3-0.1,2-0.1c0.7,0,1.4-0.1,2.1-0.1"/>
<path class="st1" d="M35.6,76.4C35.6,76.4,35.6,76.4,35.6,76.4c-0.1,0-0.1,0-0.1,0c-0.1,0-0.2,0-0.2,0c-0.1,0-0.2,0-0.3,0
	c-0.1,0-0.3,0-0.4,0c-0.2,0-0.3,0-0.5,0c-0.2,0-0.4,0-0.5,0c-0.2,0-0.4,0-0.6,0c-0.2,0-0.5,0-0.7,0c-0.5,0-1,0.1-1.5,0.1
	c-0.6,0-1.1,0.1-1.7,0.1c-0.6,0-1.2,0.1-1.8,0.1c-0.6,0-1.2,0.1-1.9,0.1c-0.6,0-1.2,0.1-1.8,0.1c-0.6,0-1.2,0.1-1.8,0.1
	c-0.3,0-0.6,0-0.8,0c-0.3,0-0.5,0-0.8,0c-0.2,0-0.5,0-0.7,0c-0.2,0-0.5,0-0.7,0c-0.2,0-0.4,0-0.6,0c-0.2,0-0.4,0-0.5,0
	c-0.2,0-0.3,0-0.5,0c-0.1,0-0.3,0-0.4,0c-0.1,0-0.2,0-0.3,0c0,0-0.1,0-0.1,0c0,0-0.1,0-0.1,0c0,0-0.1,0-0.1,0c0,0,0,0-0.1,0
	c0,0,0,0,0,0c0,0,0,0,0,0c0,0,0,0,0,0"/>
<path class="st1" d="M35.7,80.3l0.5-0.3c0,0,0,0,0,0c0,0,0,0-0.1,0c0,0-0.1,0-0.1,0c0,0-0.1,0-0.1,0c0,0-0.1,0-0.1,0
	c-0.1,0-0.1,0-0.2,0c-0.1,0-0.3,0-0.4,0c-0.2,0-0.3,0-0.5,0c-0.2,0-0.4,0-0.5,0c-0.2,0-0.4,0-0.6,0c-0.2,0-0.5,0-0.7,0
	c-0.3,0-0.5,0-0.8,0c-0.3,0-0.5,0-0.8,0c-0.6,0-1.2,0-1.8,0.1c-0.6,0-1.3,0-1.9,0.1c-0.7,0-1.3,0-2,0.1v-0.3c0.7,0,1.4-0.1,2.1-0.1
	c0.7,0,1.3,0,2-0.1c0.3,0,0.6,0,0.9,0c0.3,0,0.6,0,0.9,0c0.3,0,0.6,0,0.8,0c0.3,0,0.5,0,0.8,0c0.2,0,0.5,0,0.7,0c0.2,0,0.4,0,0.6,0
	c0.2,0,0.4,0,0.5,0c0.1,0,0.3,0,0.4,0c0.1,0,0.2,0,0.3,0c0.1,0,0.2,0,0.3,0c0,0,0.1,0,0.1,0c0,0,0,0,0.1,0c0,0,0,0,0,0c0,0,0,0,0,0
	c0,0,0,0,0,0V80l0,0l0-0.3l0,0l-0.5-0.3"/>
<line class="st1" x1="15.1" y1="81.2" x2="15.1" y2="81.2"/>
<path class="st1" d="M15.1,81.2C15.1,81.2,15.1,81.2,15.1,81.2C15.2,81.2,15.2,81.2,15.1,81.2c0.1,0,0.1-0.1,0.1-0.1
	c0,0,0.1,0,0.1,0c0,0,0.1,0,0.1,0c0,0,0.1,0,0.1,0c0.1,0,0.2,0,0.4,0c0.1,0,0.3,0,0.4,0c0.2,0,0.4,0,0.5,0c0.2,0,0.4,0,0.6,0
	c0.2,0,0.5,0,0.7,0c0.3,0,0.5,0,0.8,0c0.3,0,0.6,0,0.8,0c0.3,0,0.6,0,0.9,0c0.3,0,0.6,0,0.9,0c0.7,0,1.3-0.1,2-0.1
	c0.7,0,1.4-0.1,2-0.1"/>
<path class="st1" d="M35.6,75.9C35.6,75.9,35.6,75.9,35.6,75.9c-0.1,0-0.1,0-0.1,0c-0.1,0-0.2,0-0.2,0c-0.1,0-0.2,0-0.3,0
	c-0.1,0-0.3,0-0.4,0c-0.2,0-0.3,0-0.5,0c-0.2,0-0.4,0-0.5,0c-0.2,0-0.4,0-0.6,0c-0.2,0-0.5,0-0.7,0c-0.5,0-1,0.1-1.5,0.1
	c-0.6,0-1.1,0.1-1.7,0.1c-0.6,0-1.2,0.1-1.8,0.1c-0.6,0-1.2,0.1-1.9,0.1c-0.6,0-1.2,0.1-1.9,0.1c-0.6,0-1.2,0.1-1.8,0.1
	c-0.3,0-0.6,0-0.8,0c-0.3,0-0.5,0-0.8,0c-0.2,0-0.5,0-0.7,0c-0.2,0-0.5,0-0.7,0c-0.2,0-0.4,0-0.6,0c-0.2,0-0.4,0-0.5,0
	c-0.2,0-0.3,0-0.5,0c-0.1,0-0.3,0-0.4,0c-0.1,0-0.2,0-0.3,0c0,0-0.1,0-0.1,0c0,0-0.1,0-0.1,0c0,0-0.1,0-0.1,0c0,0,0,0-0.1,0
	c0,0,0,0,0,0c0,0,0,0,0,0c0,0,0,0,0,0"/>
<path class="st1" d="M15.1,83.7C15.1,83.7,15.1,83.7,15.1,83.7C15.1,83.6,15.1,83.6,15.1,83.7C15.2,83.6,15.2,83.6,15.1,83.7
	c0.1,0,0.1-0.1,0.1-0.1c0,0,0.1,0,0.1,0c0.1,0,0.2,0,0.3,0c0.1,0,0.2,0,0.3,0c0.1,0,0.3,0,0.4,0c0.2,0,0.4,0,0.5,0
	c0.2,0,0.4,0,0.6,0c0.2,0,0.5,0,0.7,0c0.3,0,0.5,0,0.8,0c0.3,0,0.6,0,0.8,0c0.3,0,0.6,0,0.9,0c0.3,0,0.6,0,0.9,0
	c0.7,0,1.3-0.1,2-0.1c0.7,0,1.4-0.1,2.1-0.1"/>
<path class="st1" d="M36.2,75.4C36.2,75.4,36.2,75.5,36.2,75.4c-0.1,0-0.1,0-0.2,0c-0.1,0-0.2,0-0.2,0c-0.1,0-0.2,0-0.3,0
	c-0.1,0-0.3,0-0.4,0c-0.2,0-0.3,0-0.5,0c-0.2,0-0.4,0-0.6,0c-0.2,0-0.4,0-0.7,0c-0.2,0-0.5,0-0.7,0c-0.6,0-1.1,0.1-1.7,0.1
	c-0.6,0-1.2,0.1-1.8,0.1c-0.7,0-1.3,0.1-2,0.1c-0.7,0-1.3,0.1-2,0.1c-0.7,0-1.3,0.1-2,0.1c-0.3,0-0.6,0-0.9,0c-0.3,0-0.6,0-0.9,0
	c-0.3,0-0.6,0-0.9,0c-0.3,0-0.5,0-0.8,0c-0.3,0-0.5,0-0.8,0c-0.2,0-0.5,0-0.7,0c-0.2,0-0.4,0-0.6,0c-0.2,0-0.4,0-0.5,0
	c-0.1,0-0.2,0-0.2,0c-0.1,0-0.1,0-0.2,0c-0.1,0-0.1,0-0.2,0c-0.1,0-0.1,0-0.2,0c0,0-0.1,0-0.1,0c0,0-0.1,0-0.1,0c0,0-0.1,0-0.1,0
	c0,0-0.1,0-0.1,0c0,0,0,0,0,0c0,0,0,0,0,0c0,0,0,0,0,0c0,0,0,0,0,0c0,0,0,0,0,0c0,0,0,0,0,0c0,0,0,0,0,0c0,0,0,0,0,0"/>
<path class="st1" d="M16.1,86.9C16.1,86.9,16,86.9,16.1,86.9C16,86.9,16,86.9,16.1,86.9c-0.1,0-0.1,0-0.1,0c0,0,0,0,0,0c0,0,0,0,0,0
	c0,0,0,0,0,0c0,0,0,0,0,0"/>
<path class="st1" d="M15.1,85.8C15.2,85.8,15.2,85.8,15.1,85.8c0.1,0,0.1,0,0.1,0c0,0,0.1,0,0.1,0c0,0,0.1,0,0.1,0c0,0,0.1,0,0.1,0
	c0.1,0,0.1,0,0.2,0c0.1,0,0.3,0,0.4,0c0.2,0,0.3,0,0.5,0c0.2,0,0.4,0,0.5,0c0.2,0,0.4,0,0.6,0c0.2,0,0.5,0,0.7,0c0.3,0,0.5,0,0.8,0
	c0.3,0,0.5,0,0.8,0c0.6,0,1.2,0,1.8-0.1c0.6,0,1.3,0,1.9-0.1c0.7,0,1.3,0,2-0.1"/>
<path class="st1" d="M35.4,85.7C35.4,85.7,35.4,85.7,35.4,85.7C35.4,85.8,35.4,85.8,35.4,85.7C35.4,85.8,35.4,85.8,35.4,85.7
	C35.4,85.8,35.4,85.8,35.4,85.7c-0.1,0.1-0.1,0.1-0.2,0.1c0,0-0.1,0-0.1,0c0,0-0.1,0-0.1,0c-0.1,0-0.2,0-0.3,0c-0.1,0-0.2,0-0.4,0
	c-0.1,0-0.3,0-0.4,0c-0.2,0-0.3,0-0.5,0c-0.2,0-0.4,0-0.6,0c-0.2,0-0.4,0-0.6,0c-0.2,0-0.5,0-0.7,0c-0.2,0-0.5,0-0.7,0
	c-0.3,0-0.5,0-0.8,0c-0.6,0-1.1,0-1.7,0.1c-0.6,0-1.2,0-1.8,0.1c-0.6,0-1.2,0-1.8,0.1c-0.6,0-1.2,0-1.8,0.1c-0.6,0-1.1,0-1.7,0.1
	c-0.5,0-1,0-1.5,0.1c-0.4,0-0.9,0-1.3,0.1c-0.2,0-0.4,0-0.6,0c-0.2,0-0.3,0-0.5,0c-0.1,0-0.3,0-0.4,0c-0.1,0-0.2,0-0.4,0
	c-0.1,0-0.2,0-0.3,0c-0.1,0-0.1,0-0.2,0"/>
<path class="st1" d="M35.4,83.3C35.4,83.3,35.4,83.3,35.4,83.3C35.4,83.3,35.4,83.3,35.4,83.3C35.4,83.3,35.4,83.3,35.4,83.3
	c-0.1,0-0.1,0.1-0.1,0.1c0,0-0.1,0-0.1,0c0,0-0.1,0-0.1,0c0,0-0.1,0-0.1,0c-0.1,0-0.2,0-0.3,0c-0.1,0-0.3,0-0.4,0
	c-0.2,0-0.3,0-0.5,0c-0.2,0-0.4,0-0.6,0c-0.2,0-0.4,0-0.6,0c-0.2,0-0.5,0-0.7,0c-0.3,0-0.5,0-0.8,0c-0.3,0-0.5,0-0.8,0
	c-0.3,0-0.6,0-0.9,0c-0.6,0-1.2,0.1-1.8,0.1c-0.6,0-1.3,0.1-1.9,0.1S24.4,84,23.8,84c-0.6,0-1.2,0-1.8,0.1c-0.3,0-0.6,0-0.9,0
	c-0.3,0-0.5,0-0.8,0c-0.3,0-0.5,0-0.8,0c-0.2,0-0.5,0-0.7,0c-0.2,0-0.4,0-0.6,0c-0.2,0-0.4,0-0.6,0c-0.2,0-0.3,0-0.5,0
	c-0.1,0-0.3,0-0.4,0c-0.1,0-0.2,0-0.3,0c0,0-0.1,0-0.1,0c0,0-0.1,0-0.1,0c0,0-0.1,0-0.1,0c0,0,0,0-0.1,0c0,0,0,0,0,0c0,0,0,0,0,0
	c0,0,0,0,0,0"/>
<path class="st1" d="M35.7,85.2C35.7,85.2,35.7,85.2,35.7,85.2c-0.1,0-0.1,0-0.1,0c0,0-0.1,0-0.1,0c0,0-0.1,0-0.1,0c0,0-0.1,0-0.1,0
	c-0.1,0-0.1,0-0.2,0c-0.1,0-0.3,0-0.4,0c-0.2,0-0.3,0-0.5,0c-0.2,0-0.4,0-0.6,0c-0.2,0-0.4,0-0.6,0c-0.2,0-0.5,0-0.7,0
	c-0.3,0-0.5,0-0.8,0c-0.3,0-0.6,0-0.8,0c-0.6,0-1.2,0.1-1.8,0.1c-0.6,0-1.3,0.1-1.9,0.1c-0.7,0-1.3,0.1-2,0.1
	c-0.6,0-1.3,0.1-1.9,0.1c-0.3,0-0.6,0-0.9,0c-0.3,0-0.6,0-0.9,0c-0.3,0-0.6,0-0.9,0c-0.3,0-0.5,0-0.8,0c-0.3,0-0.5,0-0.8,0
	c-0.2,0-0.5,0-0.7,0c-0.2,0-0.4,0-0.6,0c-0.2,0-0.4,0-0.5,0c-0.1,0-0.2,0-0.2,0c-0.1,0-0.1,0-0.2,0c-0.1,0-0.1,0-0.2,0
	c-0.1,0-0.1,0-0.2,0c0,0-0.1,0-0.1,0c0,0-0.1,0-0.1,0c0,0-0.1,0-0.1,0c0,0-0.1,0-0.1,0c0,0,0,0,0,0c0,0,0,0,0,0c0,0,0,0,0,0
	c0,0,0,0,0,0c0,0,0,0,0,0c0,0,0,0,0,0c0,0,0,0,0,0c0,0,0,0,0,0"/>
<path class="st0" d="M36.2,72.3v3.2l0-0.1l-0.4,0.2c0,0,0,0,0,0c0,0-0.1,0.1-0.1,0.1c0,0,0,0.1,0,0.1c0,0,0,0.1,0,0.1
	c0,0.1,0,0.1-0.1,0.2v0.3c0,0,0,0,0,0.1c0,0.1,0,0.1,0.1,0.2c0,0,0,0,0,0.1c0,0.1,0.1,0.1,0.1,0.2l0.4,0.2h0v0.5l0,0l-0.5,0.3
	l-0.1,0.1l-0.1,0.1l-0.1,0.2l0,0.2v0.5l0,0.1l0.1,0.2l0.1,0.1l0.1,0.1l0,0"/>
<path class="st1" d="M35.7,82.8C35.7,82.8,35.7,82.8,35.7,82.8c-0.1,0-0.1,0-0.1,0c0,0-0.1,0-0.1,0c0,0-0.1,0-0.1,0c0,0-0.1,0-0.1,0
	c-0.1,0-0.1,0-0.2,0c-0.1,0-0.3,0-0.4,0c-0.2,0-0.3,0-0.5,0c-0.2,0-0.4,0-0.6,0c-0.2,0-0.4,0-0.6,0c-0.2,0-0.5,0-0.7,0
	c-0.3,0-0.5,0-0.8,0c-0.3,0-0.6,0-0.8,0c-0.6,0-1.2,0.1-1.8,0.1c-0.6,0-1.3,0.1-1.9,0.1c-0.7,0-1.3,0.1-2,0.1
	c-0.6,0-1.3,0.1-1.9,0.1c-0.3,0-0.6,0-0.9,0c-0.3,0-0.6,0-0.9,0c-0.3,0-0.6,0-0.9,0c-0.3,0-0.5,0-0.8,0c-0.3,0-0.5,0-0.8,0
	c-0.2,0-0.5,0-0.7,0c-0.2,0-0.4,0-0.6,0c-0.2,0-0.4,0-0.5,0c-0.1,0-0.2,0-0.2,0c-0.1,0-0.1,0-0.2,0c-0.1,0-0.1,0-0.2,0
	c-0.1,0-0.1,0-0.2,0c0,0-0.1,0-0.1,0c0,0-0.1,0-0.1,0c0,0-0.1,0-0.1,0c0,0-0.1,0-0.1,0c0,0,0,0,0,0c0,0,0,0,0,0c0,0,0,0,0,0
	c0,0,0,0,0,0c0,0,0,0,0,0c0,0,0,0,0,0c0,0,0,0,0,0c0,0,0,0,0,0"/>
<path class="st1" d="M36.2,77.1C36.2,77.1,36.2,77.2,36.2,77.1c0,0.1,0,0.1,0,0.2c0,0,0,0,0,0c0,0,0,0,0,0c0,0,0,0,0,0c0,0,0,0,0,0"
	/>
<path class="st1" d="M36.2,77.3C36.2,77.3,36.2,77.3,36.2,77.3c-0.1,0-0.1,0-0.1,0c-0.1,0-0.2,0-0.2,0c-0.1,0-0.2,0-0.3,0
	c-0.1,0-0.3,0-0.4,0c-0.2,0-0.3,0-0.5,0c-0.2,0-0.4,0-0.6,0c-0.2,0-0.4,0-0.6,0c-0.2,0-0.5,0-0.7,0c-0.5,0-1,0-1.6,0.1
	c-0.6,0-1.2,0-1.7,0.1c-0.6,0-1.2,0-1.9,0.1c-0.6,0-1.3,0-1.9,0.1"/>
<path class="st0" d="M4.4,27.6c0.1,0.4,0.2,0.8,0.3,1.2C4.8,29.2,4.9,29.6,5,30c0.1,0.4,0.2,0.8,0.3,1.2c0.1,0.4,0.2,0.8,0.3,1.2
	c0.2,0.8,0.3,1.6,0.5,2.4c0.2,0.8,0.3,1.6,0.5,2.4C6.7,38.1,6.8,39,7,39.8c0.1,0.8,0.3,1.6,0.4,2.5c0.3,1.6,0.6,3.3,0.8,4.9
	c0.3,1.6,0.5,3.3,0.8,4.9c0.1,0.8,0.2,1.6,0.4,2.5c0.1,0.8,0.2,1.6,0.4,2.5c0.1,0.8,0.2,1.6,0.3,2.5c0.1,0.8,0.2,1.6,0.3,2.5
	c0,0.4,0.1,0.8,0.1,1.2c0,0.4,0.1,0.8,0.1,1.2c0,0.4,0.1,0.8,0.1,1.2c0,0.2,0,0.4,0,0.6c0,0.2,0,0.4,0,0.6"/>
<path class="st0" d="M47,27.6c-0.1,0.4-0.2,0.8-0.3,1.2c-0.1,0.4-0.2,0.8-0.3,1.2c-0.1,0.4-0.2,0.8-0.3,1.2
	c-0.1,0.4-0.2,0.8-0.3,1.2c-0.2,0.8-0.3,1.6-0.5,2.4c-0.2,0.8-0.3,1.6-0.5,2.4c-0.2,0.8-0.3,1.6-0.5,2.4c-0.1,0.8-0.3,1.6-0.4,2.5
	c-0.3,1.6-0.6,3.3-0.8,4.9c-0.3,1.6-0.5,3.3-0.8,4.9c-0.1,0.8-0.2,1.6-0.4,2.5s-0.2,1.6-0.4,2.5c-0.1,0.8-0.2,1.6-0.3,2.5
	c-0.1,0.8-0.2,1.6-0.3,2.5c0,0.4-0.1,0.8-0.1,1.2c0,0.4-0.1,0.8-0.1,1.2c0,0.4-0.1,0.8-0.1,1.2c0,0.2,0,0.4,0,0.6c0,0.2,0,0.4,0,0.6
	"/>
</svg>
