<?xml version="1.0" encoding="UTF-8" ?>
<!DOCTYPE svg PUBLIC "-//W3C//DTD SVG 1.1//EN" "http://www.w3.org/Graphics/SVG/1.1/DTD/svg11.dtd">
<svg width="938pt" height="1364pt" viewBox="0 0 938 1364" version="1.1" xmlns="http://www.w3.org/2000/svg">
<g id="#ffffffff">
<path fill="#ffffff" opacity="1.00" d=" M 347.09 76.23 C 350.43 76.49 345.50 79.25 347.09 76.23 Z" />
<path fill="#ffffff" opacity="1.00" d=" M 227.03 79.08 C 228.63 78.55 229.16 79.11 228.64 80.78 C 227.04 81.30 226.50 80.74 227.03 79.08 Z" />
</g>
<g id="#020101ff">
<path fill="#020101" opacity="1.00" d=" M 686.36 20.17 C 690.84 19.19 695.47 19.43 700.02 19.55 C 715.74 21.72 731.08 26.59 745.22 33.78 C 753.76 38.84 762.69 43.32 770.56 49.44 C 776.18 53.42 781.06 58.29 786.32 62.71 C 802.89 77.13 819.43 91.59 836.10 105.90 C 841.68 112.30 848.80 117.24 853.74 124.21 C 858.11 130.14 863.02 135.69 867.06 141.85 C 871.38 149.82 875.76 157.77 879.92 165.83 C 883.59 175.34 886.76 185.04 890.18 194.64 C 892.67 205.19 894.46 215.90 896.68 226.52 C 897.96 231.65 897.21 237.00 898.08 242.19 C 898.57 245.79 898.47 249.43 898.68 253.05 C 900.56 266.27 899.32 279.69 899.72 293.00 C 900.77 310.97 900.25 329.00 900.57 347.00 C 900.86 362.33 900.22 377.69 901.29 392.99 C 901.42 419.00 901.67 445.00 901.72 471.01 C 901.58 474.68 902.32 478.32 902.29 481.99 C 902.40 504.33 902.61 526.67 902.68 549.01 C 902.77 555.67 902.48 562.35 903.24 568.99 C 903.42 589.65 903.55 610.30 903.65 630.96 C 903.85 639.97 903.32 649.01 904.24 657.99 C 904.49 685.66 904.62 713.34 904.76 741.01 C 905.71 750.97 905.18 761.00 905.42 771.00 C 905.55 788.67 905.66 806.33 905.71 824.00 C 905.48 830.35 906.58 836.65 906.31 843.00 C 906.42 862.00 906.59 881.00 906.66 900.00 C 906.82 908.66 906.38 917.35 907.26 925.99 C 907.47 953.33 907.64 980.67 907.75 1008.01 C 908.71 1018.31 908.18 1028.67 908.43 1039.00 C 908.55 1058.00 908.73 1077.01 908.65 1096.01 C 908.94 1106.36 907.39 1116.62 907.44 1126.97 C 906.07 1136.43 904.24 1145.84 902.68 1155.28 C 901.25 1166.58 896.70 1177.12 893.65 1188.02 C 891.42 1196.65 887.04 1204.45 883.34 1212.50 C 880.82 1217.60 878.86 1223.02 875.59 1227.72 C 870.75 1234.87 866.22 1242.23 861.27 1249.31 C 855.41 1256.09 849.42 1262.77 843.47 1269.48 C 837.13 1275.14 830.64 1280.66 824.08 1286.07 C 818.51 1289.97 812.46 1293.12 806.72 1296.76 C 801.23 1300.41 794.83 1302.20 788.85 1304.84 C 780.19 1308.75 770.20 1309.37 761.04 1306.98 C 751.71 1304.25 743.91 1298.25 735.67 1293.35 C 719.17 1283.18 702.69 1272.98 686.19 1262.80 C 680.07 1259.12 674.36 1254.73 669.32 1249.67 C 659.68 1239.74 655.21 1225.66 655.67 1211.99 C 655.55 1195.33 655.59 1178.66 655.29 1162.01 C 654.27 1134.02 654.86 1106.00 654.36 1078.00 C 653.08 1041.35 654.20 1004.65 652.79 968.00 C 652.51 940.67 652.85 913.32 652.01 886.01 C 651.23 854.35 652.11 822.65 650.79 791.01 C 650.63 766.34 650.65 741.67 650.30 717.01 C 649.01 682.36 650.24 647.65 648.79 613.01 C 648.63 588.34 648.65 563.67 648.30 539.01 C 647.03 504.03 648.21 468.98 646.79 434.00 C 646.51 406.34 646.86 378.65 645.98 351.00 C 645.43 324.68 645.77 298.33 645.30 272.00 C 644.25 242.36 644.87 212.67 644.30 183.01 C 643.27 154.36 643.85 125.67 643.34 97.00 C 643.38 88.31 642.60 79.64 642.69 70.94 C 643.40 55.31 651.06 40.04 663.52 30.49 C 670.16 25.27 678.05 21.69 686.36 20.17 M 676.25 30.21 C 662.31 37.40 652.16 51.38 649.61 66.86 C 647.70 76.49 649.48 86.29 649.19 96.00 C 649.91 176.03 651.02 256.04 651.80 336.06 C 651.19 340.06 656.87 341.19 656.58 345.18 C 656.74 369.12 657.26 393.06 657.35 417.00 C 657.36 431.19 658.00 445.38 657.69 459.57 C 656.17 459.92 654.65 460.24 653.13 460.51 C 654.76 585.59 655.94 710.69 657.47 835.77 C 658.18 838.60 662.07 839.82 662.23 843.07 C 662.67 881.06 663.19 919.06 663.50 957.06 C 662.57 958.84 660.47 958.59 658.80 958.59 C 659.83 1044.39 660.68 1130.19 661.74 1215.98 C 661.57 1228.05 665.59 1240.26 673.73 1249.28 C 678.03 1255.24 685.02 1258.07 690.96 1262.03 C 706.81 1271.66 722.36 1281.80 738.41 1291.08 C 733.50 1282.97 730.73 1273.55 731.23 1264.04 C 730.37 1227.38 730.84 1190.66 729.79 1154.00 C 729.64 1125.00 729.59 1095.98 728.80 1067.00 C 728.65 1037.33 728.60 1007.65 727.80 978.00 C 727.65 948.33 727.60 918.65 726.80 889.00 C 726.67 862.00 726.61 834.99 725.99 808.00 C 725.46 778.01 725.82 747.99 724.93 718.01 C 724.51 686.34 724.77 654.65 723.80 623.00 C 723.79 597.66 723.45 572.33 723.22 547.00 C 722.43 529.36 722.90 511.69 722.58 494.04 C 722.50 468.33 721.58 442.65 721.69 416.95 C 721.42 396.97 721.53 376.97 720.80 357.01 C 720.78 332.67 720.52 308.34 720.24 284.00 C 719.28 248.69 719.95 213.32 718.80 178.00 C 718.73 161.05 718.72 144.09 718.44 127.14 C 716.91 110.69 724.94 93.92 738.35 84.39 C 747.22 77.77 758.53 74.79 769.51 75.62 C 776.88 77.17 784.35 78.40 791.50 80.86 C 798.64 83.03 805.28 86.45 812.15 89.30 C 806.45 83.49 799.91 78.58 793.93 73.08 C 779.60 60.59 765.25 47.69 748.23 38.95 C 734.58 33.27 720.99 26.31 706.04 25.02 C 695.89 23.64 685.31 25.37 676.25 30.21 M 759.42 78.71 C 748.88 80.31 738.78 85.72 732.23 94.22 C 723.41 104.50 719.77 118.71 721.64 132.02 C 725.90 509.60 730.11 887.19 734.38 1264.77 C 734.25 1274.20 736.77 1283.83 742.72 1291.30 C 747.07 1297.23 753.66 1301.01 760.46 1303.51 C 765.79 1305.22 771.45 1304.97 776.98 1304.77 C 781.61 1304.62 785.83 1302.50 790.09 1300.90 C 794.04 1299.22 798.15 1297.89 801.96 1295.89 C 806.37 1293.33 810.69 1290.61 815.09 1288.03 C 824.16 1283.14 831.18 1275.42 839.43 1269.36 C 846.15 1262.79 851.94 1255.30 858.35 1248.41 C 863.95 1240.61 868.92 1232.36 874.33 1224.42 C 878.84 1216.09 882.39 1207.27 886.64 1198.80 C 889.31 1193.66 890.52 1187.95 892.36 1182.49 C 895.06 1173.15 898.85 1164.06 899.94 1154.33 C 901.55 1142.97 904.82 1131.77 904.70 1120.24 C 906.07 1108.21 905.57 1096.07 905.74 1083.99 C 905.68 1056.33 905.44 1028.66 905.28 1001.00 C 904.21 986.69 904.88 972.32 904.58 957.99 C 904.24 939.33 904.81 920.63 903.72 902.01 C 903.68 876.00 903.42 850.00 903.29 824.00 C 902.19 806.70 902.87 789.33 902.53 771.99 C 902.21 756.33 902.80 740.63 901.73 725.01 C 901.67 701.34 901.49 677.67 901.33 654.00 C 901.63 645.65 900.49 637.35 900.71 629.01 C 900.64 609.66 900.51 590.31 900.37 570.96 C 900.25 563.31 900.54 555.64 899.75 548.01 C 899.65 524.69 899.52 501.37 899.34 478.05 C 899.22 472.03 899.54 465.99 898.81 460.01 C 898.59 444.34 898.67 428.67 898.51 413.00 C 898.20 398.34 898.78 383.64 897.73 369.01 C 897.62 341.67 897.51 314.33 897.20 287.00 C 895.92 280.67 897.97 274.33 896.80 268.01 C 896.76 263.00 896.72 257.98 895.76 253.04 C 895.73 245.13 894.65 237.30 894.33 229.42 C 892.49 219.92 890.56 210.44 888.72 200.94 C 887.57 194.17 884.64 187.90 882.53 181.41 C 880.19 175.15 878.55 168.56 875.14 162.75 C 871.18 155.73 867.71 148.42 863.49 141.55 C 858.13 134.58 852.89 127.50 847.27 120.75 C 841.08 114.92 834.99 108.95 828.40 103.57 C 813.11 91.78 795.11 83.54 776.17 79.77 C 770.82 77.69 765.00 78.53 759.42 78.71 Z" />
<path fill="#020101" opacity="1.00" d=" M 427.27 34.73 C 432.52 34.44 437.85 34.32 442.98 35.66 C 449.47 36.78 455.18 40.11 460.96 43.05 C 464.31 44.89 467.28 47.32 470.04 49.95 C 488.22 65.77 506.42 81.57 524.60 97.40 C 533.35 104.27 541.35 113.14 543.85 124.29 C 546.23 131.59 545.16 139.32 545.53 146.85 C 545.89 153.57 545.46 160.30 546.25 166.99 C 546.45 192.66 546.64 218.33 546.71 244.01 C 546.45 249.36 547.44 254.65 547.30 260.00 C 547.48 286.33 547.63 312.67 547.78 339.01 C 548.55 345.64 548.23 352.33 548.36 359.00 C 548.55 382.00 548.62 405.01 548.78 428.01 C 549.54 434.65 549.23 441.33 549.36 448.00 C 549.51 470.34 549.67 492.67 549.73 515.01 C 550.81 531.32 550.22 547.69 550.54 564.03 C 550.86 580.68 550.20 597.37 551.29 613.99 C 551.40 636.33 551.62 658.66 551.69 681.00 C 551.77 687.66 551.48 694.35 552.24 700.99 C 552.46 728.00 552.65 755.00 552.72 782.01 C 552.65 785.01 553.24 787.98 553.27 790.99 C 553.43 817.66 553.67 844.34 553.72 871.01 C 554.80 887.44 554.22 903.94 554.54 920.40 C 554.87 936.93 554.19 953.50 555.29 970.00 C 555.44 996.67 555.67 1023.34 555.74 1050.02 C 556.71 1061.31 556.20 1072.67 556.44 1084.00 C 556.57 1101.67 556.68 1119.34 556.72 1137.01 C 557.80 1156.30 557.26 1175.66 557.59 1194.99 C 557.87 1208.67 557.21 1222.39 558.27 1236.04 C 558.36 1250.02 558.48 1264.00 558.44 1277.99 C 559.64 1295.23 550.77 1312.92 535.95 1321.92 C 526.83 1327.96 515.68 1329.21 505.02 1329.54 C 479.04 1331.34 453.08 1333.41 427.08 1334.95 C 420.94 1335.90 414.67 1335.15 408.54 1336.17 C 402.61 1336.76 396.61 1336.27 390.72 1337.26 C 374.45 1337.80 358.26 1339.44 341.98 1339.78 C 334.70 1340.87 327.31 1340.27 319.99 1340.86 C 314.70 1341.64 309.33 1341.44 303.99 1341.62 C 299.32 1341.53 294.72 1342.57 290.04 1342.48 C 282.31 1342.84 274.51 1342.04 266.83 1343.26 C 261.53 1343.91 256.29 1342.48 250.99 1342.65 C 245.83 1342.89 240.93 1341.05 235.92 1340.13 C 230.15 1338.69 224.10 1338.08 218.66 1335.56 C 212.27 1332.78 205.80 1330.20 199.43 1327.39 C 188.35 1321.89 178.17 1314.82 167.61 1308.44 C 151.35 1298.34 134.99 1288.40 118.80 1278.19 C 86.14 1256.33 60.84 1223.84 47.35 1186.94 C 40.44 1169.55 36.78 1151.10 33.82 1132.69 C 32.93 1120.13 31.39 1107.61 31.60 1095.00 C 31.51 1082.26 31.45 1069.53 31.21 1056.80 C 30.49 1051.22 30.77 1045.60 30.69 1040.00 C 30.60 1020.99 30.67 1001.99 30.41 982.99 C 30.27 975.99 30.52 968.97 29.75 962.01 C 29.59 935.33 29.66 908.66 29.30 881.99 C 28.19 864.69 28.84 847.31 28.61 829.97 C 28.38 813.98 28.76 797.96 27.72 782.01 C 27.63 755.67 27.62 729.33 27.29 702.99 C 26.25 689.36 26.84 675.66 26.63 662.00 C 26.46 641.67 26.77 621.31 25.70 601.02 C 25.59 574.68 25.69 548.33 25.19 522.00 C 24.49 516.69 24.77 511.33 24.69 506.00 C 24.62 482.00 24.62 457.99 24.24 433.99 C 23.36 426.03 23.82 418.00 23.66 410.00 C 23.46 385.01 23.91 359.97 22.71 335.01 C 22.61 308.00 22.56 281.00 22.59 253.99 C 22.37 247.94 23.83 242.00 23.68 235.95 C 25.49 223.18 27.76 210.47 30.70 197.91 C 33.89 186.78 37.64 175.82 41.83 165.03 C 46.21 155.30 51.21 145.86 56.41 136.55 C 60.55 130.06 65.07 123.82 69.67 117.65 C 76.57 108.05 85.18 99.85 93.58 91.59 C 100.18 85.80 107.28 80.61 114.40 75.49 C 135.95 61.24 161.05 51.87 186.96 50.56 C 188.96 50.52 190.96 50.47 192.94 50.18 C 198.78 49.09 204.79 50.06 210.62 48.85 C 216.16 48.39 221.76 48.77 227.26 47.72 C 235.58 47.84 243.77 46.33 252.09 46.44 C 258.82 45.19 265.72 46.03 272.45 44.82 C 276.89 44.36 281.39 44.84 285.81 44.12 C 290.80 43.18 295.92 43.94 300.93 43.16 C 306.17 42.14 311.55 42.98 316.81 42.08 C 321.76 41.18 326.84 41.94 331.82 41.15 C 337.09 40.13 342.52 41.00 347.81 40.05 C 352.77 39.19 357.85 39.95 362.82 39.12 C 367.81 38.18 372.92 38.94 377.94 38.16 C 382.89 37.19 387.97 37.91 392.95 37.21 C 398.78 36.08 404.79 37.06 410.62 35.88 C 416.16 35.35 421.77 35.81 427.27 34.73 M 431.89 39.76 C 424.98 40.80 417.94 40.18 411.04 41.30 C 402.52 41.37 394.09 42.62 385.58 42.69 C 378.45 43.79 371.21 43.25 364.08 44.35 C 355.83 44.36 347.66 45.67 339.41 45.69 C 332.99 46.78 326.44 46.18 320.02 47.15 C 289.92 48.89 259.87 51.13 229.77 52.86 C 223.24 53.84 216.59 53.27 210.07 54.35 C 191.69 54.83 173.10 56.31 155.56 62.27 C 125.96 72.13 100.36 91.71 80.32 115.33 C 53.45 147.04 37.32 186.96 31.31 227.88 C 29.91 235.86 29.48 243.93 28.61 251.97 C 28.34 281.31 28.65 310.66 28.73 340.01 C 28.69 343.02 29.29 345.98 29.28 348.99 C 29.41 372.33 29.61 395.67 29.69 419.00 C 29.77 424.67 29.50 430.35 30.21 435.99 C 30.51 463.66 30.61 491.34 30.75 519.01 C 30.80 521.68 31.31 524.31 31.28 526.99 C 31.43 553.66 31.67 580.34 31.73 607.01 C 31.71 610.35 32.39 613.65 32.29 616.99 C 32.43 643.33 32.68 669.67 32.73 696.01 C 32.69 699.01 33.30 701.98 33.28 704.99 C 33.43 731.66 33.67 758.34 33.73 785.01 C 33.68 787.68 34.18 790.32 34.26 792.99 C 34.49 820.66 34.61 848.34 34.78 876.01 C 35.49 881.98 35.26 888.00 35.34 894.00 C 35.47 912.67 35.62 931.33 35.68 950.00 C 35.77 957.00 35.47 964.02 36.25 970.99 C 36.41 991.33 36.56 1011.66 36.65 1032.00 C 36.85 1041.33 36.32 1050.69 37.25 1059.99 C 37.35 1075.30 37.54 1090.60 37.49 1105.91 C 37.55 1111.31 38.75 1116.63 38.56 1122.05 C 41.17 1154.51 49.50 1186.87 65.40 1215.46 C 72.54 1228.81 82.07 1240.66 92.06 1251.96 C 103.80 1264.88 118.20 1275.03 133.19 1283.84 C 142.92 1289.76 152.48 1295.97 162.36 1301.64 C 151.85 1291.35 141.95 1280.38 133.94 1268.01 C 120.18 1247.34 110.57 1224.02 104.93 1199.87 C 100.30 1180.92 98.90 1161.40 97.86 1142.01 C 98.97 1132.04 98.10 1121.99 98.27 1111.99 C 97.41 1103.02 97.80 1094.00 97.66 1085.00 C 97.54 1063.67 97.44 1042.33 97.21 1021.00 C 96.51 1015.35 96.76 1009.67 96.70 1004.00 C 96.62 980.67 96.41 957.33 96.27 934.00 C 96.26 930.98 95.66 928.01 95.72 925.01 C 95.67 898.34 95.43 871.66 95.27 844.99 C 95.27 841.98 94.67 839.01 94.73 836.01 C 94.66 809.00 94.45 782.00 94.25 754.99 C 93.48 748.02 93.77 741.00 93.68 734.00 C 93.62 715.33 93.46 696.67 93.34 678.00 C 93.26 672.00 93.49 665.98 92.78 660.01 C 92.62 633.00 92.47 606.00 92.29 578.99 C 91.19 562.32 91.87 545.58 91.54 528.87 C 91.21 512.59 91.81 496.26 90.73 480.01 C 90.67 453.34 90.43 426.66 90.28 399.99 C 90.30 396.65 89.62 393.35 89.72 390.01 C 89.69 363.01 89.35 336.00 89.39 309.00 C 88.83 286.01 92.64 263.04 99.13 241.02 C 108.76 209.09 125.91 179.20 149.90 155.90 C 174.45 131.39 206.38 113.49 240.99 108.66 C 249.33 108.07 257.66 107.26 266.03 107.31 C 276.65 106.01 287.42 107.04 298.03 105.68 C 310.40 105.76 322.67 104.38 335.03 104.29 C 342.79 103.11 350.69 103.98 358.45 102.82 C 363.84 102.34 369.28 102.72 374.66 102.07 C 380.23 101.22 385.91 101.81 391.50 101.07 C 396.89 100.23 402.39 100.79 407.81 100.10 C 413.59 99.19 419.51 99.84 425.29 98.80 C 448.39 97.65 471.40 95.40 494.49 94.06 C 501.97 92.71 509.67 93.24 517.07 94.86 C 505.09 83.83 492.53 73.46 480.36 62.65 C 472.52 56.17 465.38 48.57 456.18 43.96 C 448.57 40.67 440.19 38.91 431.89 39.76 M 504.38 96.26 C 477.09 97.64 449.91 100.48 422.61 101.82 C 416.46 102.88 410.17 102.18 404.02 103.23 C 388.09 103.81 372.22 105.34 356.27 105.74 C 348.58 106.98 340.75 106.06 333.05 107.19 C 327.30 107.65 321.52 107.38 315.77 107.81 C 306.91 109.03 297.91 107.98 289.05 109.23 C 281.63 109.65 274.19 109.36 266.78 109.86 C 261.57 110.72 256.27 110.05 251.03 110.49 C 211.52 113.04 174.79 133.51 147.91 161.94 C 113.61 197.36 95.23 246.21 92.42 295.00 C 92.12 331.67 92.67 368.34 92.72 405.01 C 92.64 408.35 93.33 411.65 93.28 414.99 C 93.40 437.66 93.61 460.33 93.69 483.00 C 93.76 489.34 93.49 495.69 94.24 501.99 C 94.44 525.33 94.59 548.66 94.69 572.00 C 94.79 578.33 94.46 584.68 95.22 590.99 C 95.48 617.99 95.64 645.00 95.72 672.01 C 96.79 688.64 96.23 705.33 96.55 722.00 C 96.86 738.66 96.22 755.36 97.29 772.00 C 97.40 794.33 97.62 816.67 97.69 839.00 C 97.78 845.33 97.47 851.69 98.23 857.99 C 98.41 873.57 98.45 889.15 98.58 904.73 C 98.87 919.48 98.22 934.27 99.28 949.00 C 99.43 975.67 99.67 1002.34 99.73 1029.01 C 99.67 1031.68 100.17 1034.31 100.25 1036.99 C 100.50 1064.66 100.60 1092.34 100.78 1120.01 C 102.28 1135.31 100.37 1150.77 102.42 1166.04 C 106.45 1213.97 125.53 1261.76 160.42 1295.58 C 175.08 1309.94 192.25 1322.16 211.52 1329.45 C 216.65 1331.47 221.57 1334.16 227.01 1335.30 C 237.58 1337.47 248.07 1340.59 258.97 1340.40 C 266.68 1340.95 274.30 1339.26 282.00 1339.60 C 288.01 1339.67 294.02 1339.50 300.02 1339.22 C 308.17 1338.01 316.47 1339.00 324.62 1337.83 C 331.61 1337.27 338.66 1337.82 345.62 1336.84 C 367.45 1335.94 389.20 1334.16 411.02 1333.23 C 417.51 1332.13 424.13 1332.90 430.63 1331.89 C 453.71 1330.55 476.74 1328.56 499.82 1327.16 C 508.08 1325.81 516.83 1327.41 524.72 1324.00 C 542.03 1318.79 554.55 1301.88 555.60 1284.02 C 555.30 1259.68 555.88 1235.31 554.72 1211.01 C 554.67 1187.00 554.46 1163.00 554.31 1139.00 C 554.58 1132.31 553.47 1125.69 553.72 1119.00 C 553.66 1102.67 553.57 1086.33 553.45 1070.00 C 553.18 1058.67 553.73 1047.31 552.75 1036.01 C 552.62 1008.34 552.49 980.67 552.23 953.00 C 551.34 944.69 551.85 936.33 551.66 928.00 C 551.56 906.66 551.43 885.32 551.23 863.99 C 550.43 857.01 550.80 849.99 550.68 842.99 C 550.61 820.99 550.39 798.99 550.28 776.99 C 549.20 761.34 549.88 745.63 549.56 729.95 C 549.24 712.64 549.80 695.29 548.72 678.01 C 548.68 651.67 548.42 625.33 548.28 598.99 C 547.20 583.04 547.87 567.01 547.55 551.03 C 547.22 534.02 547.80 516.98 546.72 500.01 C 546.68 476.67 546.49 453.34 546.33 430.00 C 546.25 424.66 546.48 419.31 545.81 414.00 C 545.59 398.67 545.68 383.33 545.52 368.00 C 545.24 352.67 545.74 337.31 544.72 322.01 C 544.67 295.34 544.43 268.66 544.27 241.99 C 544.24 238.99 543.65 236.02 543.72 233.01 C 543.68 209.01 543.47 185.00 543.33 161.00 C 543.28 158.03 543.43 155.04 542.99 152.10 C 541.59 142.94 543.95 133.40 540.97 124.46 C 536.92 108.34 521.31 95.34 504.38 96.26 Z" />
<path fill="#020101" opacity="1.00" d=" M 277.30 59.84 C 282.91 59.40 288.57 59.74 294.13 58.70 C 308.44 58.48 323.16 57.35 336.99 61.83 C 340.94 63.06 344.91 65.44 346.38 69.52 C 347.46 72.99 352.43 75.11 350.37 79.25 C 343.49 85.55 333.41 85.69 324.68 87.17 C 310.75 87.98 296.87 89.24 282.93 89.77 C 274.02 90.98 264.99 90.54 256.03 90.41 C 245.19 89.28 233.45 88.88 224.26 82.26 C 224.50 80.43 224.30 78.24 225.95 76.99 C 229.15 74.24 229.20 69.16 233.18 67.11 C 240.98 62.67 250.24 61.81 259.03 61.27 C 265.06 60.08 271.27 61.06 277.30 59.84 M 277.02 63.37 C 269.36 63.25 261.81 64.53 254.16 64.67 C 247.95 65.82 241.05 65.95 235.87 70.00 C 241.17 74.25 248.34 74.32 254.75 75.35 C 265.20 75.78 275.73 75.96 286.12 74.67 C 294.13 74.70 302.04 73.34 310.05 73.38 C 319.77 72.27 330.15 72.66 338.97 67.76 C 338.46 65.44 335.94 64.99 334.04 64.31 C 322.33 60.97 310.04 61.37 297.99 61.66 C 291.05 62.96 283.95 62.08 277.02 63.37 M 336.83 71.80 C 331.85 74.03 326.34 74.51 321.00 75.31 C 302.69 76.51 284.36 77.63 265.99 77.79 C 258.36 77.36 250.49 78.49 243.07 76.23 C 239.44 74.89 235.72 73.49 232.70 71.00 C 230.46 74.67 231.66 79.21 231.33 83.29 C 238.93 85.90 246.84 87.36 254.89 87.47 C 264.52 87.56 274.21 88.22 283.81 87.05 C 304.05 85.20 324.99 86.73 344.52 80.12 C 344.61 76.11 343.57 72.21 343.30 68.23 C 340.90 68.94 339.12 70.85 336.83 71.80 M 347.09 76.23 C 345.50 79.25 350.43 76.49 347.09 76.23 M 227.03 79.08 C 226.50 80.74 227.04 81.30 228.64 80.78 C 229.16 79.11 228.63 78.55 227.03 79.08 Z" />
<path fill="#020101" opacity="1.00" d=" M 760.33 86.13 C 764.47 85.06 768.78 85.65 772.99 85.90 C 807.70 90.61 838.47 112.22 858.74 140.23 C 881.05 170.86 891.36 208.63 894.48 245.96 C 894.14 252.68 895.78 259.27 895.49 265.99 C 895.48 281.32 895.59 296.66 895.67 312.00 C 895.76 319.00 895.45 326.02 896.25 332.99 C 896.39 359.99 896.65 387.00 896.71 414.00 C 897.79 430.30 897.19 446.67 897.52 463.00 C 897.85 480.00 897.18 497.03 898.29 513.99 C 898.40 540.66 898.65 567.34 898.74 594.01 C 899.66 602.97 899.16 612.00 899.38 621.00 C 899.54 641.67 899.64 662.34 899.74 683.01 C 900.51 689.64 900.23 696.33 900.33 703.00 C 900.45 721.66 900.61 740.33 900.67 759.00 C 900.77 765.33 900.44 771.68 901.23 777.99 C 901.41 804.69 901.64 831.39 901.70 858.09 C 902.81 878.21 902.23 898.41 902.59 918.56 C 902.87 931.37 902.19 944.22 903.26 956.99 C 903.38 982.99 903.66 1009.00 903.70 1035.00 C 904.93 1060.30 904.17 1085.67 904.56 1111.00 C 904.89 1116.07 903.42 1120.98 903.37 1126.03 C 899.74 1165.76 887.01 1205.12 864.11 1238.02 C 846.80 1262.29 824.35 1283.78 796.72 1295.73 C 792.79 1297.67 788.38 1298.31 784.60 1300.53 C 776.91 1301.86 768.58 1302.13 761.40 1298.61 C 752.46 1294.37 745.79 1285.88 743.53 1276.28 C 741.72 1269.66 742.71 1262.76 742.37 1256.00 C 742.45 1242.66 741.64 1229.34 741.76 1216.00 C 741.59 1189.67 741.57 1163.32 740.80 1137.00 C 740.77 1113.00 740.50 1089.00 740.24 1065.00 C 739.44 1036.02 739.78 1007.00 739.26 978.00 C 738.30 942.35 738.97 906.65 737.80 871.00 C 737.80 837.33 737.29 803.66 736.76 770.00 C 736.80 732.23 735.67 694.48 735.62 656.72 C 735.34 639.48 735.53 622.23 734.80 605.01 C 734.78 580.00 734.50 555.00 734.23 530.00 C 733.42 501.69 733.80 473.33 733.27 445.00 C 732.50 413.68 732.72 382.33 732.23 351.00 C 731.43 328.35 731.88 305.67 731.44 283.00 C 731.40 263.66 730.57 244.35 730.71 225.01 C 730.76 193.67 729.62 162.35 729.75 131.02 C 730.72 126.18 728.98 121.24 730.48 116.50 C 733.60 101.83 745.51 89.18 760.33 86.13 M 762.39 88.63 C 743.95 91.52 730.04 110.56 732.80 129.00 C 737.14 508.66 741.34 888.34 745.63 1268.01 C 745.74 1273.34 747.08 1278.67 749.65 1283.36 C 755.68 1294.87 770.06 1301.11 782.57 1297.44 C 800.81 1292.17 817.37 1282.03 831.67 1269.67 C 848.29 1255.66 861.80 1238.19 872.38 1219.25 C 893.71 1180.62 902.83 1135.90 901.51 1092.00 C 901.70 1077.66 901.40 1063.33 901.36 1049.00 C 901.22 1042.00 901.56 1034.98 900.77 1028.01 C 900.61 1000.34 900.48 972.66 900.25 944.99 C 899.26 934.03 899.87 922.99 899.63 912.00 C 899.54 893.99 899.37 875.99 899.29 857.99 C 898.18 840.45 898.88 822.83 898.52 805.25 C 898.22 789.84 898.78 774.39 897.73 759.01 C 897.66 732.00 897.45 705.00 897.25 677.99 C 896.26 667.03 896.87 656.00 896.63 645.00 C 896.53 626.33 896.39 607.66 896.26 588.99 C 895.38 580.36 895.81 571.67 895.66 563.01 C 895.54 541.67 895.45 520.33 895.21 498.99 C 894.48 493.02 894.78 487.00 894.69 481.00 C 894.62 461.67 894.47 442.33 894.34 423.00 C 894.25 417.00 894.50 410.98 893.79 405.01 C 893.62 384.67 893.59 364.33 893.41 343.99 C 893.13 330.70 893.67 317.37 892.70 304.11 C 892.61 291.07 892.60 278.03 892.57 265.00 C 892.69 258.96 891.41 253.01 891.54 246.97 C 889.04 212.57 880.04 177.94 861.16 148.75 C 843.60 121.52 816.72 99.47 785.06 91.18 C 777.66 89.33 770.05 87.62 762.39 88.63 Z" />
<path fill="#020101" opacity="1.00" d=" M 495.27 103.77 C 500.85 103.45 506.46 103.04 512.04 103.51 C 526.54 105.45 538.49 118.41 539.60 132.94 C 539.85 139.29 539.20 145.70 540.38 151.99 C 540.65 172.00 540.59 192.00 540.78 212.01 C 541.49 217.98 541.26 224.00 541.34 230.00 C 541.47 248.67 541.62 267.34 541.68 286.01 C 541.77 293.01 541.48 300.02 542.25 307.00 C 542.45 334.00 542.66 361.01 542.73 388.01 C 542.67 390.68 543.15 393.32 543.25 395.99 C 543.49 423.66 543.61 451.34 543.78 479.01 C 544.48 484.98 544.26 491.00 544.34 497.00 C 544.47 515.67 544.62 534.34 544.68 553.00 C 544.77 560.00 544.48 567.02 545.25 573.99 C 545.45 601.00 545.66 628.00 545.73 655.01 C 545.67 658.01 546.28 660.98 546.28 663.99 C 546.43 690.66 546.67 717.34 546.73 744.01 C 546.67 747.01 547.27 749.98 547.28 752.99 C 547.40 775.66 547.61 798.33 547.69 821.00 C 547.76 827.67 547.49 834.35 548.25 840.99 C 548.47 868.33 548.65 895.67 548.74 923.01 C 549.77 936.30 549.19 949.67 549.49 963.00 C 549.62 979.34 549.67 995.67 549.74 1012.01 C 550.68 1022.64 550.21 1033.33 550.43 1044.00 C 550.56 1061.33 550.66 1078.67 550.71 1096.00 C 550.49 1102.35 551.58 1108.64 551.31 1115.00 C 551.43 1135.00 551.61 1155.00 551.68 1175.00 C 551.81 1182.33 551.42 1189.68 552.24 1196.99 C 552.47 1227.29 552.77 1257.60 552.63 1287.90 C 550.90 1305.15 536.10 1320.21 518.76 1321.89 C 489.99 1323.91 461.25 1326.22 432.46 1327.85 C 426.02 1328.88 419.46 1328.21 413.04 1329.30 C 403.75 1329.36 394.55 1330.69 385.26 1330.69 C 379.08 1331.60 372.82 1331.40 366.61 1331.79 C 360.22 1332.80 353.72 1332.29 347.30 1332.83 C 341.06 1333.78 334.72 1333.31 328.45 1333.80 C 322.14 1334.71 315.76 1334.39 309.42 1334.68 C 298.86 1335.85 288.21 1335.60 277.61 1335.71 C 270.42 1336.52 263.16 1336.72 255.93 1336.52 C 232.75 1334.97 210.33 1326.62 190.89 1314.07 C 159.21 1293.64 135.11 1262.38 121.72 1227.27 C 111.84 1202.05 107.53 1174.96 106.56 1148.01 C 106.66 1128.34 106.36 1108.67 106.30 1089.00 C 105.19 1069.02 105.85 1048.98 105.48 1028.97 C 105.20 1015.65 105.74 1002.29 104.73 989.01 C 104.67 967.00 104.52 945.00 104.37 923.00 C 104.25 915.66 104.53 908.31 103.75 901.01 C 103.64 873.67 103.46 846.33 103.26 818.99 C 103.19 815.98 102.63 813.01 102.72 810.01 C 102.68 783.67 102.42 757.33 102.28 730.99 C 102.33 727.64 101.64 724.35 101.72 721.01 C 101.67 694.67 101.42 668.33 101.28 641.99 C 101.32 638.98 100.71 636.01 100.73 633.01 C 100.67 606.00 100.44 579.00 100.27 551.99 C 100.23 548.99 99.64 546.02 99.72 543.01 C 99.66 514.67 99.40 486.33 99.23 458.00 C 99.48 452.89 98.58 447.84 98.68 442.74 C 98.62 417.16 98.35 391.57 98.22 365.99 C 98.22 363.44 97.74 360.92 97.72 358.38 C 97.57 338.57 97.59 318.75 97.60 298.94 C 98.63 282.80 101.02 266.70 105.30 251.08 C 113.56 220.26 129.13 191.31 151.09 168.08 C 174.43 143.68 204.76 124.91 238.38 119.25 C 247.84 117.41 257.47 117.60 267.06 117.23 C 275.32 116.16 283.67 116.79 291.96 116.23 C 299.93 115.15 308.01 115.80 316.01 115.17 C 323.78 114.04 331.69 114.99 339.45 113.81 C 344.93 113.39 350.45 113.69 355.93 113.15 C 362.18 112.17 368.54 112.83 374.81 112.08 C 380.47 111.21 386.24 111.82 391.92 111.06 C 397.55 110.19 403.28 110.83 408.91 110.00 C 413.79 109.27 418.77 109.77 423.65 109.05 C 428.38 108.30 433.19 108.72 437.94 108.18 C 443.72 107.22 449.64 107.78 455.42 106.74 C 462.96 106.64 470.42 105.48 477.97 105.32 C 483.69 104.32 489.55 104.76 495.27 103.77 M 493.28 106.77 C 464.43 109.25 435.53 111.14 406.63 112.94 C 400.81 113.87 394.87 113.16 389.05 114.10 C 383.39 114.80 377.65 114.22 372.00 115.07 C 366.29 115.76 360.50 115.27 354.79 115.92 C 347.55 116.97 340.18 116.09 332.95 117.15 C 327.19 117.68 321.39 117.38 315.62 117.80 C 308.09 118.83 300.46 118.28 292.89 118.78 C 284.18 119.90 275.37 119.25 266.62 119.82 C 259.44 120.90 252.11 119.89 244.95 121.17 C 224.39 123.55 204.66 131.22 187.17 142.16 C 170.11 152.92 154.87 166.59 142.44 182.49 C 120.17 210.62 106.88 245.25 102.26 280.68 C 101.27 288.41 100.27 296.18 100.49 303.99 C 100.42 329.66 100.66 355.34 100.74 381.01 C 100.76 383.68 101.28 386.32 101.27 388.99 C 101.43 415.66 101.67 442.33 101.72 469.01 C 101.68 472.68 102.42 476.31 102.30 480.00 C 102.43 506.00 102.68 532.01 102.72 558.01 C 102.66 561.02 103.26 563.99 103.27 566.99 C 103.43 593.67 103.67 620.34 103.72 647.01 C 103.64 650.35 104.33 653.65 104.29 657.00 C 104.43 683.33 104.68 709.67 104.72 736.01 C 104.65 739.35 105.33 742.65 105.29 745.99 C 105.42 772.33 105.67 798.67 105.72 825.00 C 105.66 828.68 106.42 832.31 106.30 836.00 C 106.43 862.00 106.68 888.00 106.72 914.01 C 106.64 917.34 107.32 920.64 107.28 923.99 C 107.40 946.66 107.62 969.33 107.69 992.00 C 107.78 998.33 107.47 1004.68 108.23 1010.99 C 108.41 1027.51 108.46 1044.03 108.60 1060.56 C 108.84 1074.37 108.26 1088.22 109.28 1102.00 C 109.34 1117.67 109.55 1133.35 109.51 1149.03 C 110.50 1180.20 116.64 1211.56 130.21 1239.81 C 146.29 1273.89 173.31 1303.14 207.14 1320.07 C 225.93 1329.33 246.95 1334.91 268.01 1333.54 C 275.15 1332.96 282.34 1333.83 289.45 1332.79 C 295.63 1332.39 301.84 1332.66 308.01 1332.16 C 315.73 1331.04 323.59 1331.99 331.30 1330.83 C 338.28 1330.35 345.31 1330.67 352.26 1329.69 C 362.21 1329.72 372.08 1328.36 382.03 1328.32 C 388.29 1327.33 394.64 1327.74 400.93 1327.13 C 407.06 1326.14 413.33 1326.89 419.45 1325.84 C 447.61 1324.32 475.70 1322.07 503.83 1320.19 C 509.48 1319.11 515.32 1319.96 520.94 1318.66 C 537.55 1315.87 550.56 1299.78 550.14 1283.02 C 549.48 1278.37 549.76 1273.67 549.75 1269.00 C 549.68 1240.33 549.46 1211.66 549.26 1182.99 C 548.37 1174.02 548.82 1165.00 548.66 1156.00 C 548.59 1138.00 548.43 1120.00 548.32 1102.00 C 548.61 1094.64 547.47 1087.35 547.71 1080.00 C 547.66 1062.33 547.54 1044.67 547.41 1027.00 C 547.16 1017.67 547.72 1008.30 546.80 999.01 C 546.42 970.01 546.80 940.98 545.99 912.00 C 545.30 883.02 545.71 853.99 545.17 824.99 C 544.52 820.02 544.77 815.00 544.70 810.01 C 544.63 786.34 544.41 762.67 544.28 738.99 C 544.30 735.65 543.63 732.35 543.72 729.01 C 543.68 702.67 543.42 676.33 543.29 650.00 C 543.33 646.65 542.65 643.35 542.72 640.01 C 542.68 613.67 542.42 587.33 542.29 560.99 C 542.32 557.32 541.58 553.68 541.72 550.01 C 541.68 524.00 541.42 498.00 541.29 471.99 C 541.32 468.31 540.58 464.68 540.72 461.01 C 540.67 435.00 540.42 409.00 540.29 382.99 C 540.32 379.32 539.58 375.69 539.72 372.01 C 539.65 345.34 539.45 318.66 539.24 291.99 C 538.49 285.35 538.76 278.67 538.69 272.00 C 538.59 249.00 538.43 225.99 538.24 202.99 C 537.26 192.36 537.87 181.66 537.63 171.00 C 537.38 161.68 538.05 152.31 536.82 143.04 C 536.55 139.06 536.91 135.07 536.53 131.10 C 534.69 119.13 524.90 108.77 512.94 106.54 C 506.41 105.82 499.82 106.45 493.28 106.77 Z" />
<path fill="#020101" opacity="1.00" d=" M 470.39 167.29 C 475.74 165.23 481.77 171.42 479.92 176.79 C 478.77 181.88 472.31 185.30 467.74 182.21 C 461.84 178.76 463.79 168.69 470.39 167.29 Z" />
<path fill="#020101" opacity="1.00" d=" M 787.60 650.72 C 790.89 648.63 795.42 650.34 797.23 653.62 C 799.60 658.78 798.16 664.54 798.40 670.00 C 798.69 685.00 798.86 700.00 798.70 715.01 C 799.08 719.79 800.48 725.16 797.40 729.41 C 795.06 733.36 789.19 733.89 785.72 731.23 C 782.57 729.10 780.38 725.92 777.58 723.41 C 775.37 721.27 772.55 719.82 770.63 717.39 C 765.38 710.69 758.10 705.93 752.66 699.40 C 751.10 697.47 751.27 694.80 751.69 692.51 C 753.35 688.82 756.38 685.99 758.97 682.95 C 764.50 676.49 770.08 670.07 775.61 663.60 C 779.64 659.32 781.83 653.15 787.60 650.72 Z" />
<path fill="#020101" opacity="1.00" d=" M 487.27 672.96 C 489.49 672.08 492.14 672.52 494.00 674.04 C 497.89 677.09 501.37 680.64 504.97 684.03 C 511.36 690.31 518.15 696.16 524.53 702.45 C 526.96 704.87 530.20 707.24 530.36 711.00 C 530.26 714.18 528.27 716.91 526.17 719.16 C 518.18 727.85 510.40 736.71 502.54 745.52 C 499.57 749.12 497.03 753.50 492.51 755.34 C 489.74 755.99 486.38 755.89 484.45 753.50 C 480.83 749.56 481.65 743.89 481.57 738.98 C 481.87 722.76 481.70 706.51 481.48 690.28 C 480.88 684.23 480.21 675.49 487.27 672.96 Z" />
</g>
</svg>
