<?xml version="1.0" encoding="UTF-8"?>
<!DOCTYPE svg PUBLIC "-//W3C//DTD SVG 1.1//EN" "http://www.w3.org/Graphics/SVG/1.1/DTD/svg11.dtd">
<!-- Creator: CorelDRAW X8 -->
<svg xmlns="http://www.w3.org/2000/svg" xml:space="preserve" width="122.121mm" height="246.963mm" version="1.1" style="shape-rendering:geometricPrecision; text-rendering:geometricPrecision; image-rendering:optimizeQuality; fill-rule:evenodd; clip-rule:evenodd"
viewBox="0 0 7968 16113"
 xmlns:xlink="http://www.w3.org/1999/xlink">
 <defs>
  <style type="text/css">
   <![CDATA[
    .str3 {stroke:#FEFEFE;stroke-width:65.2443}
    .str1 {stroke:#FEFEFE;stroke-width:130.489}
    .str2 {stroke:#2B2A29;stroke-width:130.489}
    .str0 {stroke:#FEFEFE;stroke-width:32.6221}
    .fil1 {fill:none}
    .fil2 {fill:#FEFEFE}
    .fil0 {fill:#2B2A29}
   ]]>
  </style>
 </defs>
 <g id="Layer_x0020_1">
  <metadata id="CorelCorpID_0Corel-Layer"/>
  <path class="fil0 str0" d="M4899 8040c-162,1241 -255,2864 -278,4869 289,-18 539,-44 748,-79 42,-1923 318,-3704 831,-5344 92,-298 193,-590 301,-878 -373,34 -828,60 -1364,77 -91,385 -171,837 -238,1355z"/>
  <path class="fil0 str0" d="M6501 6608c-22,-99 -53,-212 -54,-351l0 0c-366,32 -806,56 -1321,73 -13,138 -9,257 11,355 536,-17 991,-43 1364,-77 0,0 0,0 0,0z"/>
  <path class="fil1 str1" d="M546 6091c511,149 1657,234 3438,254"/>
  <path class="fil1 str1" d="M7421 6091c-511,149 -1657,234 -3437,254"/>
  <path class="fil1 str1" d="M546 6447c511,149 1657,234 3438,254"/>
  <path class="fil1 str1" d="M7421 6447c-511,149 -1657,234 -3437,254"/>
  <path class="fil1 str1" d="M7364 6084c2,1 64,9 66,10 14,7 19,22 21,45 7,87 8,170 2,250 0,30 -10,48 -25,56 -3,1 -83,39 -87,40"/>
  <path class="fil1 str1" d="M549 6448c857,2154 1310,4188 1360,6103 217,223 909,348 2075,374"/>
  <path class="fil1 str1" d="M1909 12551c590,669 363,950 2075,950"/>
  <path class="fil1 str1" d="M7418 6448c-856,2154 -1310,4188 -1360,6103 -216,223 -908,348 -2074,374"/>
  <path class="fil1 str1" d="M6058 12551c-590,669 -362,950 -2074,950"/>
  <path class="fil0" d="M4736 15113c-165,30 -352,47 -581,56l-4 0 -9 0 -3 0 -10 0 -4 0 -10 0 -3 0 -10 1 -2 0 -11 1 -3 0 -11 0 -2 0 -12 0 -1 0 -13 0 -2 0 -12 1 -1 0 -13 0 -14 0 -1 0 -13 0 -14 0 -14 1 -1 0 -13 0 -1 0 -13 0 -1 0 -12 0 -2 0 -11 0 -2 0 -12 1 -3 0 -10 -1 -3 0 -10 0 -3 0 -11 0 -3 0 -9 0 -4 0 -9 1 -4 0c-229,-2 -417,-14 -582,-39 -180,-27 -336,-69 -489,-129 -19,-48 -36,-122 -50,-212 333,47 763,73 1232,68l25 -1 24 0 43 -1 -1 -103c-23,1 -45,1 -67,2 -399,3 -865,-10 -1271,-71 -9,-72 -17,-151 -25,-234 337,50 781,78 1268,73l24 -1 24 0 43 -1 -1 -103c-23,1 -45,1 -67,2 -408,3 -887,-10 -1300,-75 -6,-80 -12,-161 -18,-243 340,53 792,82 1289,76l25 0 24 0 43 -1 -1 -103c-23,0 -45,1 -67,1 -415,4 -903,-10 -1320,-78l-10 -151 -4 -59c342,54 801,84 1306,78l24 0 24 0 43 -1 -1 -103c-22,0 -45,1 -67,1 -420,4 -915,-10 -1336,-80 -5,-83 -19,-271 -26,-355 0,-6 -95,-85 -95,-90l-77 -146c0,5 13,225 13,230 12,128 31,405 42,575 23,355 48,766 98,1029l36 203c18,35 97,122 218,236 49,46 106,99 171,154l-9 -1 213 176c75,63 155,126 239,191 76,59 157,119 241,180 46,33 211,39 291,42 12,1 21,1 32,2l6 1 7 -1c10,-1 20,-2 32,-3 80,-5 244,-17 288,-50 83,-64 163,-126 237,-188 81,-67 160,-133 233,-198l208 -182 -9 2c63,-58 118,-112 166,-159 118,-118 193,-208 210,-243l32 -213c41,-265 54,-671 67,-1022 4,-116 9,-312 14,-422 0,-10 5,-206 5,-215l-146 85c-1,7 -14,113 -14,121 -4,100 -9,284 -12,385 -15,442 -34,975 -100,1160 -152,64 -305,110 -485,143zm-236 573l2 0 -31 25c-75,63 -154,125 -232,185 -8,6 -140,15 -205,19l-31 3 -31 -2c-66,-2 -198,-7 -206,-13 -81,-58 -161,-117 -238,-178l-32 -24 2 0 1 0 1 0 1 0 2 0 1 1 1 0 1 0 2 0 1 0 1 0 1 0 2 0 1 0 1 0 2 0 1 1 1 0 1 0 1 0 1 0 1 0 1 0 1 0 1 -1 2 0 1 0 1 0 1 1 2 0 1 0 1 0 2 0 1 0 1 0 1 0 2 0 1 0 1 1 1 0 1 0 1 0 1 0 1 0 2 0 1 0 1 0 2 0 1 0 1 0 1 1 2 0 1 0 2 0 2 0 1 0 1 0 1 0 1 0 1 0 1 0 1 0 2 0 0 1 1 0 1 0 2 0 1 0 1 0c128,6 266,8 419,6 154,-2 291,-9 419,-19l2 0 1 0 1 0 1 0 1 0 1 -1 1 0 1 0 2 0 1 0 1 0 2 0 1 0 1 0 1 0 2 0 1 0 1 -1 1 0 1 0 1 0 6 0 2 0 1 0 1 0 1 -1 3 0 1 0 1 0 2 0 1 0 2 0 1 0 2 0 1 -1 1 0 1 0 1 -1 1 0 1 0 2 0 1 0 1 0 1 0 2 0 1 0 1 -1 1 0 2 0 1 0 1 0 1 0 2 0 1 0 1 0 1 0 2 -1 1 0 1 0 1 0 2 0z"/>
  <path class="fil0 str2" d="M7157 6508c96,-18 181,-37 253,-58 34,-9 43,-23 43,-61 6,-80 5,-163 -2,-250 -2,-23 -7,-38 -21,-45 -5,-3 -10,-3 -14,-1 -514,148 -1658,232 -3432,252 -1762,-20 -2902,-103 -3421,-249 -9,-3 -17,-7 -25,-2 -15,7 -20,22 -21,45 -8,87 -8,170 -2,250 0,39 9,52 44,61 71,21 156,40 252,58 595,111 1652,176 3173,193 1520,-17 2578,-82 3173,-193z"/>
  <path class="fil0 str2" d="M3984 65c-2164,0 -3919,1755 -3919,3919 0,682 175,1324 481,1883 511,149 1657,233 3438,254 1778,-21 2923,-105 3435,-254 1,0 2,0 2,0 307,-559 481,-1201 481,-1883 0,-2164 -1754,-3919 -3918,-3919z"/>
  <path class="fil0 str2" d="M3984 6701c-1777,-20 -2922,-105 -3435,-253 0,0 1,1 1,2 856,2153 1309,4187 1359,6101 217,223 909,348 2075,374 1166,-26 1858,-151 2074,-374 50,-1914 504,-3948 1360,-6101 0,-1 0,-2 0,-2 -512,148 -1657,233 -3434,253z"/>
  <path class="fil2" d="M4899 8079c-162,1241 -255,2864 -278,4869 289,-18 539,-44 748,-79 42,-1923 318,-3704 831,-5344 92,-297 193,-590 301,-878 -373,34 -828,60 -1364,78 -91,384 -171,836 -238,1354z"/>
  <path class="fil2" d="M6501 6647c-22,-99 -62,-220 -63,-360l0 0c-365,32 -806,57 -1321,73 -12,139 0,266 20,365 536,-18 991,-44 1364,-78 0,0 0,0 0,0z"/>
  <path class="fil1 str2" d="M3984 12925c-1166,-26 -1858,-151 -2075,-374 590,669 363,950 2075,950 1712,0 1484,-281 2074,-950 -216,223 -908,348 -2074,374z"/>
  <path class="fil1 str3" d="M546 6502c511,149 1657,234 3438,254 1780,-20 2926,-105 3437,-254"/>
 </g>
</svg>
