<?xml version="1.0" encoding="utf-8"?>
<!-- Generator: Adobe Illustrator 21.1.0, SVG Export Plug-In . SVG Version: 6.00 Build 0)  -->
<svg version="1.1" id="Laag_1" xmlns="http://www.w3.org/2000/svg" xmlns:xlink="http://www.w3.org/1999/xlink" x="0px" y="0px"
	 viewBox="0 0 857 1548" style="enable-background:new 0 0 857 1548;" xml:space="preserve">
<g id="_x23_000000ff">
	<path d="M138.1,11.4C158,4.7,179,1.2,200,1C350,1,500,1,650,1c20.2-0.4,40.6,2,60.1,7.6c36.4,10.2,69.8,31,95.1,59.2
		c21.8,24.2,37.6,53.9,45.5,85.5c6.6,26.3,7.8,53.9,3.6,80.7c-2.6,17.5-8.5,34.2-13.5,51.1c-14,46.3-28,92.7-42,139
		c-5.4,18.2-11.3,36.3-16.1,54.6c-10.1,39.8-18.2,80.1-26.1,120.3c-22.8,118.5-42.4,237.5-59.1,357c-7.2,53.8-14.7,107.7-17.7,162
		c-0.6,4.2-4.1,7.2-8,8.6c-1.1,4.5-3.8,8.3-5.9,12.4c-12.4,22.3-24.8,44.7-37.2,67c-1.1,2-3.4,3.3-5.7,3.3c-4.7,0.1-9.4-0.1-14.1,0
		c0,14.9,0,29.7,0,44.6c-2.8,3.8-6.9,6-10.9,8.2c-5,2.7-3.4,9.2-3.5,13.9c-0.1,4.1,3.9,5.9,7,7.6c2.9,1.4,5.2,3.6,7.4,5.9
		c-0.1,2.4,0.2,5.1-1.2,7.3c-3.5,3.3-9,4.2-11.6,8.4c-1.1,4.1-0.9,8.5-0.3,12.7c2.2,5.2,9.4,5.4,12.4,9.9c1.2,3.1,1.3,7-0.7,9.8
		c-3.3,3.1-8.5,4-11.2,7.8c-1.6,3.7-0.8,7.8-0.8,11.7c1,7.5,12.7,6.3,13.4,13.9c0.4,3.1,0,7.2-3.3,8.7c-3.7,2.6-9.9,3.9-10.1,9.3
		c0.1,3.8-0.8,8.1,1,11.6c3,3.5,8,4.4,11.2,7.7c1.7,3.1,1.8,7.3-0.1,10.4c-3.3,3.2-8.3,4.1-11.2,7.7c-1.7,3.6-0.9,7.8-0.9,11.6
		c0,4.1,4.2,5.8,7.2,7.6c-0.7,2.6-1.4,5.2-2.1,7.8c-3.4,0.2-7.2-0.8-10.3,1.1c-12,6.9-24,13.9-36,20.8c-4.8,3-11-0.1-16,2
		c-18.1,17.6-35.5,35.9-53.8,53.2c-30.7,21.1-73.5,22.4-105.7,3.8c-7.2-3.4-12-9.9-17.7-15.2c-9.9-9.9-19.7-19.7-29.6-29.6
		c-4.4-4.3-8.6-8.8-13.3-12.7c-5.1-1.1-10.7,1.2-15.4-1.7c-12.4-7.2-24.9-14.4-37.3-21.6c-3.9-1.7-3.4-7.2-7.1-9.1
		c-2.8-1.9-6.1-3.1-8.6-5.3c-1.9-3-1.8-7.4-0.2-10.5c3.3-3.5,8.9-4.2,11.6-8.4c1.4-3.8,0.9-8.1,0.6-12.1c-1.7-5.8-9.2-6-12.5-10.4
		c-1.3-3.1-1.4-7,0.4-10c3.4-3.1,8.4-4.1,11.3-7.7c1.7-3.7,1-8.1,0.9-12c-1.3-5.9-8.5-6.5-12.2-10.3c-1.7-3.1-1.7-7.2-0.1-10.3
		c3.2-3.3,8.2-4.2,11.2-7.7c2.1-3.5,1.1-7.9,1.1-11.8c-0.3-5.2-6.2-6.6-9.8-9.1c-4.5-2.1-4.4-8.4-2.4-12.3c3.2-3,7.7-4.1,10.8-7.2
		c2.6-3.6,1.4-8.3,1.4-12.4c-0.8-7.6-12.9-6.4-13.3-14.1c-0.1-21.2,0-42.4,0-63.6c-5.2-0.2-10.4,0.2-15.6-0.2
		c-3.6-0.8-5-4.5-6.6-7.4c-11-19.9-22.1-39.8-33.2-59.8c-2.6-5.1-6.1-9.8-7.7-15.4c-4.1-1.5-7.9-4.9-8.1-9.6
		c-1.4-31.2-5.1-62.2-8.7-93.2c-10.4-84.9-23.3-169.4-37.3-253.8c-8.6-52.2-17.9-104.3-27.8-156.3c-8.5-44.2-17.2-88.3-28.1-132
		c-3.1-12.7-7.1-25.2-10.9-37.8C46.1,382.8,27.5,321.4,9,260.1C1.1,233.9-1.1,206.1,2,179c4.3-37.7,19.6-74,43.6-103.4
		C69.5,46,102,23.4,138.1,11.4 M71.3,60.3C41.8,87.4,21.1,123.8,13,163c-6.5,31.1-5.2,63.8,3.8,94.2c6.4,21.3,12.9,42.7,19.3,64
		c261.7,0.1,523.4,0,785.1,0c6.9-22.7,13.8-45.4,20.6-68.2c7.1-25.9,8.6-53.4,4.5-79.9c-5.6-36.7-22.1-71.7-47-99.4
		c-23.7-26.6-54.8-46.3-88.9-56.4c-19.5-5.9-40-8.4-60.4-8.1c-150,0-300,0-450,0C152.7,9.7,106,28.2,71.3,60.3 M38.7,329.5
		c13.6,45.2,27.4,90.4,40.9,135.7c3.9,13.8,7.2,27.7,10.4,41.6c10.8,47.5,20,95.4,28.8,143.4c8.8,47.8,17,95.8,24.8,143.7
		c12.7,78.5,24.6,157.1,34,236c3.3,28.6,6.6,57.2,7.9,86c-0.1,2.4,2.5,2.8,4.3,2.6c159.3,0.1,318.7,0.1,478,0c2.1,0.5,4.2-1.2,4-3.3
		c0.5-15.3,2-30.6,3.5-45.9c5.2-51.2,12.2-102.2,19.5-153.1c8.5-58.3,17.7-116.4,27.5-174.5c12.5-73.1,25.7-146.1,41.3-218.5
		c5.2-23.5,10.5-47,17.6-70c12.5-41.2,24.9-82.4,37.4-123.6C558.7,329.5,298.7,329.5,38.7,329.5 M194.1,1126.7
		c13.8,24.8,27.6,49.5,41.3,74.3c128.9,0,257.7,0,386.6,0c13.8-24.7,27.5-49.5,41.3-74.3C506.9,1126.7,350.5,1126.8,194.1,1126.7
		 M256.8,1209.2c0,20.2,0,40.4,0,60.6c7-0.9,14.1-1.5,21.1-2c49.7-3.3,99.4-4.5,149.1-6.7c0.5,0.8,0.9,1.6,1.3,2.4
		c1.2-1.9,3.5-2.7,5.6-2.6c27-0.9,54-2,81-3.1c26.3-1.2,52.6-2.1,78.8-4.5c2.5-0.1,4.8-1.2,7-2.5c-0.1-13.9,0-27.8,0-41.7
		C486.1,1209.2,371.4,1209.2,256.8,1209.2 M507,1262.5c-55,2.2-110,4-165,6.3c-27.1,1.2-54.3,2.3-81.4,4.8c4.5,2,7.8,5.8,9.4,10.4
		c20.6-2.8,41.4-3.4,62.1-4.6c61.3-3,122.6-4.9,183.8-7.8c23.4-1.3,46.9-1.9,70.2-4.9c0.6-3.2,1.7-6.2,3.7-8.7
		C562.2,1260.3,534.6,1261.3,507,1262.5 M519,1275.8c-60.3,2.8-120.7,4.8-181,7.6c-22.6,1.3-45.3,1.8-67.7,4.9
		c0,1.1-0.1,2.3-0.1,3.4c19.8-2.5,39.8-3.3,59.7-4.4c61.7-3,123.4-5,185.1-7.8c23.8-1.3,47.6-1.9,71.2-4.9c0-0.9,0-2.6,0-3.5
		C564,1273.8,541.5,1274.5,519,1275.8 M518.1,1283.6c-59.6,2.8-119.3,4.7-178.9,7.5c-22.9,1.3-45.9,1.9-68.7,4.9
		c-0.7,4.8-3,9.3-7.2,12c32.5-3.1,65.2-3.9,97.8-5.4c54.6-2.2,109.2-3.9,163.8-6.3c24.8-1.2,49.5-2,74.2-4.7
		c-5.6-2.6-11.2-6.4-12.6-12.8C563.7,1281.6,540.9,1282.4,518.1,1283.6 M500,1301.7c-56,2.2-112,4-168,6.5
		c-24.4,1.3-49,1.9-73.3,4.7c4.9,2.7,9.7,6.1,11.3,11.7c23.2-3,46.6-3.7,70-4.9c59.3-2.8,118.6-4.7,177.9-7.5
		c23.1-1.3,46.3-1.8,69.2-5c0.5-4,2.2-7.7,5.1-10.6C561.5,1299.5,530.7,1300.3,500,1301.7 M519.9,1316.3
		c-59.7,2.8-119.4,4.8-179.1,7.6c-23.5,1.4-47.2,1.8-70.6,5.1c0,1.1,0,2.3,0,3.4c11.8-1.7,23.8-2.3,35.7-3.1
		c79.3-4.5,158.7-6.3,237.9-10.6c14.4-0.9,29-1.5,43.3-3.7c0-0.8,0-2.5,0-3.4C564.9,1314.4,542.4,1315.1,519.9,1316.3 M507,1324.7
		c-58,2.6-116.1,4.5-174.1,7.3c-20.8,1.2-41.7,1.8-62.4,4.6c-0.8,4.9-3.2,9.5-7.5,12.1c17.5-2.2,35.3-2.6,52.9-3.6
		c81.3-3.8,162.7-5.7,244-9.9c13.5-0.9,27.1-1.4,40.5-3.3c-5.5-2.8-11.3-6.2-13.1-12.6C560.8,1322.7,533.8,1323.3,507,1324.7
		 M567.9,1339.1c-78.6,4.3-157.3,6.2-236,9.7c-24.6,1.2-49.3,2-73.8,4.7c5.2,2.4,10.2,6,11.9,11.8c23.5-3.1,47.3-3.7,70.9-5
		c59.7-2.8,119.4-4.7,179-7.5c22.4-1.3,44.8-1.8,67.1-4.9c0.5-4.1,2.3-8,5.4-10.7C584.3,1338.2,576.1,1338.5,567.9,1339.1
		 M528,1356.6c-62.7,3.1-125.4,5-188.1,8c-23.2,1.3-46.6,1.9-69.7,5c0,1.1-0.1,2.3-0.1,3.5c22.8-2.9,45.8-3.6,68.7-4.8
		c60-2.8,120.1-4.8,180.1-7.6c22.7-1.3,45.6-1.9,68.2-4.9c0-1.2,0.1-2.3,0.1-3.5C567.7,1354.8,547.8,1355.4,528,1356.6
		 M521.1,1364.7c-59.6,2.9-119.3,4.8-179,7.6c-23.9,1.3-47.9,1.9-71.6,5c-0.7,4.7-2.9,9.1-6.9,11.8c30.7-3,61.6-3.8,92.5-5.2
		c57.6-2.3,115.2-4.1,172.9-6.7c23.9-1.2,47.9-2,71.8-4.7c-5.6-2.7-11.6-6.1-13.3-12.6C565.5,1362.8,543.2,1363.5,521.1,1364.7
		 M564,1379.8c-78.3,4.1-156.7,6-235,9.5c-23.6,1.2-47.3,1.8-70.8,4.7c5.1,2.5,10.2,6,11.7,11.9c22.9-3,46-3.6,69-4.9
		c60.6-2.8,121.3-4.8,182-7.7c22-1.2,44.1-1.9,65.9-4.7c0.8-4.1,2.5-8.1,5.6-11C583.1,1378.8,573.5,1379.1,564,1379.8 M520,1397.6
		c-60.7,2.9-121.4,4.8-182.1,7.7c-22.6,1.3-45.3,1.8-67.7,4.9c0,1.1,0,2.3,0,3.5c22.8-3,45.8-3.6,68.7-4.9
		c59.9-2.8,119.9-4.8,179.8-7.6c22.8-1.3,45.8-1.9,68.5-4.9c0-0.8,0-2.6,0-3.4C565,1395.7,542.5,1396.4,520,1397.6 M551.1,1403.8
		c-81.6,4.6-163.3,6.4-244.9,11c-12,0.8-24,1.3-35.8,3.2c-0.5,5.4-3.7,10.4-8.7,12.6c16.7-2.1,33.5-2.5,50.3-3.5
		c82.3-3.9,164.7-5.8,246.9-10.1c14-0.9,28.1-1.3,42-3.5c-2.9-1.9-6.2-3.4-8.9-5.7c-2.3-1.9-3.4-4.7-4.6-7.3
		C575.4,1402.3,563.2,1403,551.1,1403.8 M495.8,1424.2c-55.9,2.2-111.9,4-167.8,6.5c-23,1.2-46,1.9-68.9,4.5
		c4.4,2.1,8.6,5.1,10.4,9.9c11.2,0.4,22.3-0.7,33.5-1.4c71.6-4.1,143.4-6,215-9.5c23-1.3,46.2-1.9,69-4.9c0.6-3.8,2-7.4,4.8-10.1
		C559.8,1421.8,527.8,1422.8,495.8,1424.2 M535,1437.5c-32.6,1.7-65.3,3-98,4.3c-25.4,0.9-50.9,2.3-76.3,2.7
		c21.4,0.8,42.9,0.6,64.3,0.3c14,0.7,28-0.1,42-0.7c17.2-0.7,34.5-1.4,51.7-2.2c22.9-1.3,45.8-1.9,68.6-4.9c0-0.9,0-2.6,0.1-3.5
		C569.9,1435.8,552.4,1436.5,535,1437.5 M542.5,1444.5c15.5,0.7,31,0.4,46.6,0.5c-0.6-1.3-1.1-2.6-1.6-3.9
		C572.6,1443.4,557.5,1444,542.5,1444.5 M281.7,1453.2c8.9,4.7,17.3,10.3,26.2,14.8c21.7,0.4,43.4,0.1,65.1,0.2c58,0,116,0,174.1,0
		c1.5,0,3-0.2,4.3-1c8.1-4.7,16.2-9.5,24.4-14.1c-26.3,0.1-52.5,0-78.8,0.1c-25-0.1-50,0.3-75-0.3c-17,0.5-34,0.1-50.9,0.3
		C341.2,1453.2,311.5,1453.3,281.7,1453.2 M330.2,1476.4c15.8,15.4,31.1,31.3,46.9,46.6c34.4,0,68.8,0,103.2,0
		c15.6-15.6,31.3-31,46.9-46.6C461.5,1476.5,395.9,1476.6,330.2,1476.4 M391.6,1531.3c23.3,10.3,50.9,10.3,74.1,0
		C441,1531.2,416.3,1531.2,391.6,1531.3z"/>
</g>
</svg>
