<?xml version="1.0" encoding="UTF-8" ?>
<!DOCTYPE svg PUBLIC "-//W3C//DTD SVG 1.1//EN" "http://www.w3.org/Graphics/SVG/1.1/DTD/svg11.dtd">
<svg width="694pt" height="689pt" viewBox="0 0 694 689" version="1.1" xmlns="http://www.w3.org/2000/svg">
<g id="#ffffffff">
</g>
<g id="#110d0dff">
<path fill="#110d0d" opacity="1.00" d=" M 311.42 4.50 C 353.72 2.97 396.24 3.74 438.24 9.37 C 481.62 15.50 524.99 27.29 562.57 50.42 C 594.40 69.69 620.35 97.62 639.88 129.09 C 658.55 158.79 671.25 192.10 677.69 226.56 C 686.38 272.12 687.79 318.73 687.01 365.00 C 685.89 406.99 682.63 449.37 671.09 489.94 C 661.22 524.47 644.30 556.87 622.14 585.10 C 611.06 598.92 598.77 611.84 584.86 622.84 C 556.91 645.21 523.59 660.07 489.17 669.29 C 444.53 681.33 398.07 684.72 352.00 685.08 C 306.07 685.26 259.80 682.64 214.97 672.10 C 181.42 664.19 148.68 651.43 120.22 631.75 C 94.42 613.93 72.92 590.34 55.96 564.06 C 43.96 545.61 34.06 525.75 26.86 504.94 C 18.21 480.78 13.49 455.42 10.40 430.02 C 7.02 400.81 5.83 371.39 5.89 342.00 C 6.14 299.19 8.53 256.09 18.02 214.22 C 29.34 164.97 54.22 118.75 89.69 82.69 C 115.95 56.11 149.25 37.17 184.58 25.49 C 225.39 11.70 268.54 6.36 311.42 4.50 M 313.35 12.31 C 277.07 13.87 240.68 17.87 205.59 27.54 C 180.02 34.44 155.22 44.63 132.76 58.75 C 92.54 83.92 62.44 122.98 42.80 165.75 C 24.49 205.61 17.96 249.62 15.14 293.05 C 12.81 332.26 12.99 371.65 16.27 410.80 C 19.17 443.43 24.44 476.15 36.08 506.90 C 48.74 540.37 67.92 571.45 92.61 597.39 C 116.09 622.12 145.81 640.37 177.63 652.31 C 216.15 666.83 257.24 673.21 298.17 675.78 C 344.29 678.41 390.73 677.80 436.56 671.68 C 475.74 666.17 514.82 655.94 549.56 636.56 C 575.28 622.49 597.68 602.79 615.81 579.82 C 640.25 548.80 658.03 512.50 667.06 474.03 C 676.95 432.15 679.30 388.90 679.47 346.00 C 679.48 303.74 677.27 261.19 668.22 219.80 C 660.49 184.22 645.46 150.29 624.40 120.60 C 605.71 93.97 581.79 70.73 553.43 54.56 C 511.21 29.96 462.46 19.28 414.25 14.62 C 380.72 11.53 346.99 11.06 313.35 12.31 Z" />
<path fill="#110d0d" opacity="1.00" d=" M 319.45 58.66 C 380.35 52.77 443.01 66.92 495.31 98.73 C 536.05 123.37 570.57 158.27 594.49 199.46 C 616.37 236.68 629.43 278.95 632.86 321.96 C 634.64 331.86 634.46 341.95 634.29 351.97 C 633.38 385.57 626.46 418.97 614.05 450.20 C 606.97 465.73 599.78 481.26 590.74 495.77 C 571.80 526.77 546.78 553.98 517.52 575.50 C 491.65 594.66 462.38 609.13 431.68 618.72 C 368.39 638.43 298.31 635.25 237.03 609.98 C 224.47 604.47 211.76 599.14 200.05 591.92 C 169.19 573.64 141.83 549.50 119.84 521.17 C 107.07 504.30 95.90 486.21 86.89 467.06 C 69.44 431.34 60.28 391.72 59.22 352.03 C 58.79 342.64 59.66 333.28 60.17 323.91 C 63.18 280.97 76.03 238.76 97.47 201.44 C 121.11 160.07 155.33 124.84 195.92 99.88 C 233.19 76.90 275.83 62.61 319.45 58.66 M 179.90 118.93 C 155.47 136.89 134.16 158.95 116.68 183.70 C 93.58 216.79 77.53 254.83 70.36 294.56 C 58.65 358.11 69.82 425.59 101.49 481.92 C 106.51 480.17 110.78 476.91 115.42 474.42 C 150.27 454.17 185.36 434.30 220.06 413.82 C 217.45 407.84 214.10 402.20 211.97 396.02 C 195.53 354.23 200.56 304.76 225.14 267.17 C 241.22 241.65 265.85 221.87 293.82 210.78 C 310.30 204.11 328.10 200.99 345.83 200.67 C 345.96 198.12 346.02 195.56 346.01 193.01 C 345.92 149.95 346.14 106.89 345.90 63.83 C 286.56 63.74 227.47 83.50 179.90 118.93 M 349.85 63.92 C 349.49 106.95 349.86 149.98 349.67 193.01 C 349.64 195.58 349.74 198.15 349.92 200.72 C 373.81 201.43 397.86 207.29 418.55 219.48 C 449.19 236.71 472.95 265.73 483.85 299.14 C 495.61 334.10 492.94 373.59 476.70 406.69 C 475.12 409.64 473.44 412.55 472.17 415.66 C 500.59 432.37 529.28 448.66 557.80 465.22 C 568.80 471.38 579.48 478.12 590.66 483.93 C 608.92 451.92 620.89 416.35 625.45 379.77 C 627.96 358.71 628.70 337.29 625.83 316.23 C 620.65 264.48 600.54 214.38 568.73 173.27 C 548.22 146.49 522.69 123.71 494.08 105.91 C 451.00 79.22 400.57 64.21 349.85 63.92 M 331.41 208.67 C 312.93 210.72 294.82 216.41 278.68 225.68 C 250.43 241.57 228.44 268.03 217.55 298.52 C 208.46 323.67 207.08 351.48 213.38 377.46 C 220.15 405.50 236.19 431.21 258.40 449.62 C 274.38 462.92 293.35 472.64 313.58 477.49 C 349.96 486.74 390.03 479.97 421.36 459.31 C 432.25 452.15 441.85 443.24 450.80 433.81 C 463.76 418.85 473.42 400.99 478.80 381.93 C 488.37 348.52 484.57 311.50 468.32 280.77 C 455.65 256.31 435.33 235.91 410.97 223.06 C 386.71 210.49 358.55 205.08 331.41 208.67 M 111.80 480.77 C 109.01 482.28 106.26 483.86 103.78 485.86 C 119.77 513.52 140.70 538.27 165.09 558.88 C 190.97 580.90 221.06 597.74 253.10 608.97 C 294.49 623.78 339.42 628.44 382.99 622.72 C 452.44 613.66 518.02 577.72 562.82 523.84 C 572.13 512.25 581.38 500.42 588.34 487.24 C 563.62 472.72 538.69 458.56 513.91 444.16 C 499.25 435.87 484.87 427.09 470.07 419.06 C 465.28 426.18 460.63 433.43 454.73 439.71 C 447.30 448.68 438.03 455.86 428.65 462.67 C 397.43 484.54 357.36 493.46 319.88 486.20 C 282.61 479.43 248.47 457.08 227.44 425.57 C 225.70 422.76 224.00 419.92 222.01 417.29 C 185.17 438.26 148.58 459.69 111.80 480.77 Z" />
<path fill="#110d0d" opacity="1.00" d=" M 118.48 111.53 C 124.01 109.43 130.18 115.27 128.26 120.91 C 126.92 126.89 118.00 128.33 114.70 123.27 C 111.56 119.34 113.73 112.95 118.48 111.53 M 118.42 114.18 C 114.68 115.90 114.83 121.95 118.63 123.50 C 122.17 125.35 126.85 122.09 126.09 118.10 C 125.82 114.51 121.48 112.57 118.42 114.18 Z" />
<path fill="#110d0d" opacity="1.00" d=" M 533.44 200.94 C 536.03 200.58 538.73 199.97 541.31 200.75 C 546.53 202.45 549.75 208.65 548.10 213.89 C 547.15 216.27 545.31 218.12 543.78 220.11 C 546.64 222.22 549.73 224.16 551.91 227.04 C 555.96 232.38 557.71 239.13 557.90 245.75 C 554.30 245.99 550.70 245.98 547.11 245.74 C 546.30 240.11 545.56 234.31 542.79 229.24 C 540.91 225.40 537.70 222.50 534.64 219.62 C 535.65 216.80 537.00 214.02 537.24 210.99 C 537.37 207.26 535.06 204.11 533.44 200.94 Z" />
<path fill="#110d0d" opacity="1.00" d=" M 513.32 210.13 C 513.52 204.31 519.29 199.67 525.03 200.57 C 530.91 200.99 535.28 207.23 534.05 212.92 C 533.42 215.71 531.40 217.85 529.81 220.12 C 532.82 222.39 536.11 224.47 538.30 227.62 C 542.06 232.87 543.67 239.36 543.87 245.75 C 530.48 245.97 517.09 245.90 503.70 245.79 C 503.74 239.06 505.64 232.20 509.83 226.86 C 512.03 224.10 515.01 222.16 517.82 220.09 C 515.51 217.25 512.69 214.11 513.32 210.13 Z" />
<path fill="#110d0d" opacity="1.00" d=" M 149.25 206.30 C 153.96 203.36 159.63 202.93 165.04 202.96 C 160.79 206.17 156.74 210.15 155.49 215.53 C 152.07 227.62 158.12 242.10 169.78 247.27 C 173.86 249.20 178.48 248.74 182.84 248.35 C 178.76 251.65 174.48 255.03 169.25 256.20 C 162.59 257.65 155.30 257.13 149.29 253.74 C 140.70 249.22 135.22 239.66 135.25 230.00 C 135.15 220.33 140.71 210.86 149.25 206.30 Z" />
<path fill="#110d0d" opacity="1.00" d=" M 169.77 219.26 C 172.78 219.71 175.83 219.73 178.86 219.41 C 179.20 222.44 180.52 225.17 182.44 227.51 C 179.27 228.14 176.73 230.03 175.14 232.83 C 173.14 230.37 170.52 228.62 167.40 227.96 C 169.43 225.47 170.29 222.43 169.77 219.26 Z" />
<path fill="#110d0d" opacity="1.00" d=" M 339.40 318.52 C 353.52 314.30 369.41 324.00 372.68 338.22 C 376.51 351.86 367.38 366.98 353.98 370.86 C 346.27 372.90 337.55 371.69 330.98 367.05 C 323.17 361.85 318.66 352.30 319.29 342.98 C 319.64 331.54 328.42 321.30 339.40 318.52 M 342.32 323.27 C 334.73 324.64 328.05 330.26 325.66 337.63 C 322.57 346.45 325.90 357.04 333.56 362.43 C 340.37 367.36 350.22 368.02 357.43 363.53 C 365.48 358.83 370.10 348.60 367.54 339.52 C 365.02 328.63 353.31 320.87 342.32 323.27 Z" />
<path fill="#110d0d" opacity="1.00" d=" M 340.40 535.61 C 346.63 534.50 353.38 534.84 359.03 537.94 C 368.80 542.79 374.81 554.06 373.50 564.88 C 372.35 577.65 360.92 588.67 348.02 588.88 C 339.59 589.52 331.06 585.79 325.75 579.25 C 320.02 572.52 317.97 562.89 320.53 554.43 C 323.15 545.21 331.02 537.69 340.40 535.61 M 342.38 540.56 C 331.34 542.44 323.15 553.88 324.94 564.95 C 326.20 575.22 335.60 583.77 346.01 583.72 C 355.79 584.22 365.25 577.14 367.63 567.65 C 370.20 558.74 366.24 548.47 358.34 543.61 C 353.68 540.52 347.84 539.60 342.38 540.56 Z" />
<path fill="#110d0d" opacity="1.00" d=" M 344.33 547.42 C 345.80 547.42 347.27 547.42 348.75 547.43 C 349.69 557.20 349.26 567.08 349.02 576.88 C 347.39 576.88 345.76 576.90 344.14 576.91 C 343.75 567.10 343.51 557.21 344.33 547.42 Z" />
</g>
</svg>
