<?xml version="1.0" encoding="utf-8"?>
<!-- Generator: Adobe Illustrator 21.1.0, SVG Export Plug-In . SVG Version: 6.00 Build 0)  -->
<svg version="1.1" id="Laag_1" xmlns="http://www.w3.org/2000/svg" xmlns:xlink="http://www.w3.org/1999/xlink" x="0px" y="0px"
	 viewBox="0 0 694 689" style="enable-background:new 0 0 694 689;" xml:space="preserve">
<style type="text/css">
	.st0{fill:#0066CC;}
	.st1{fill:#110D0D;}
</style>
<circle class="st0" cx="346.7" cy="344.8" r="137.2"/>
<g id="_x23_ffffffff">
</g>
<g id="_x23_110d0dff">
	<path class="st1" d="M311.4,4.5c42.3-1.5,84.8-0.8,126.8,4.9c43.4,6.1,86.8,17.9,124.3,41c31.8,19.3,57.8,47.2,77.3,78.7
		c18.7,29.7,31.4,63,37.8,97.5c8.7,45.6,10.1,92.2,9.3,138.4c-1.1,42-4.4,84.4-15.9,124.9c-9.9,34.5-26.8,66.9-49,95.2
		c-11.1,13.8-23.4,26.7-37.3,37.7c-28,22.4-61.3,37.2-95.7,46.4c-44.6,12-91.1,15.4-137.2,15.8c-45.9,0.2-92.2-2.4-137-13
		c-33.6-7.9-66.3-20.7-94.8-40.3c-25.8-17.8-47.3-41.4-64.3-67.7c-12-18.5-21.9-38.3-29.1-59.1c-8.7-24.2-13.4-49.5-16.5-74.9
		c-3.4-29.2-4.6-58.6-4.5-88c0.2-42.8,2.6-85.9,12.1-127.8C29.3,165,54.2,118.8,89.7,82.7c26.3-26.6,59.6-45.5,94.9-57.2
		C225.4,11.7,268.5,6.4,311.4,4.5 M313.4,12.3c-36.3,1.6-72.7,5.6-107.8,15.2c-25.6,6.9-50.4,17.1-72.8,31.2
		c-40.2,25.2-70.3,64.2-90,107C24.5,205.6,18,249.6,15.1,293c-2.3,39.2-2.2,78.6,1.1,117.8c2.9,32.6,8.2,65.4,19.8,96.1
		c12.7,33.5,31.8,64.6,56.5,90.5c23.5,24.7,53.2,43,85,54.9c38.5,14.5,79.6,20.9,120.5,23.5c46.1,2.6,92.6,2,138.4-4.1
		c39.2-5.5,78.3-15.7,113-35.1c25.7-14.1,48.1-33.8,66.2-56.7c24.4-31,42.2-67.3,51.2-105.8c9.9-41.9,12.2-85.1,12.4-128
		c0-42.3-2.2-84.8-11.2-126.2c-7.7-35.6-22.8-69.5-43.8-99.2c-18.7-26.6-42.6-49.9-71-66c-42.2-24.6-91-35.3-139.2-39.9
		C380.7,11.5,347,11.1,313.4,12.3z"/>
	<path d="M319.5,58.7c60.9-5.9,123.6,8.3,175.9,40.1c40.7,24.6,75.3,59.5,99.2,100.7c21.9,37.2,34.9,79.5,38.4,122.5
		c1.8,9.9,1.6,20,1.4,30c-0.9,33.6-7.8,67-20.2,98.2c-7.1,15.5-14.3,31.1-23.3,45.6c-18.9,31-44,58.2-73.2,79.7
		c-25.9,19.2-55.1,33.6-85.8,43.2c-63.3,19.7-133.4,16.5-194.6-8.7c-12.6-5.5-25.3-10.8-37-18.1c-30.9-18.3-58.2-42.4-80.2-70.8
		c-12.8-16.9-23.9-35-32.9-54.1c-17.4-35.7-26.6-75.3-27.7-115c-0.4-9.4,0.4-18.8,0.9-28.1c3-42.9,15.9-85.2,37.3-122.5
		c23.6-41.4,57.9-76.6,98.4-101.6C233.2,76.9,275.8,62.6,319.5,58.7 M179.9,118.9c-24.4,18-45.7,40-63.2,64.8
		c-23.1,33.1-39.2,71.1-46.3,110.9c-11.7,63.5-0.5,131,31.1,187.4c5-1.8,9.3-5,13.9-7.5c34.9-20.2,69.9-40.1,104.6-60.6
		c-2.6-6-6-11.6-8.1-17.8c-16.4-41.8-11.4-91.3,13.2-128.8c16.1-25.5,40.7-45.3,68.7-56.4c16.5-6.7,34.3-9.8,52-10.1
		c0.1-2.6,0.2-5.1,0.2-7.7c-0.1-43.1,0.1-86.1-0.1-129.2C286.6,63.7,227.5,83.5,179.9,118.9 M349.9,63.9c-0.4,43,0,86.1-0.2,129.1
		c0,2.6,0.1,5.1,0.2,7.7c23.9,0.7,47.9,6.6,68.6,18.8c30.6,17.2,54.4,46.3,65.3,79.7c11.8,35,9.1,74.4-7.1,107.5
		c-1.6,3-3.3,5.9-4.5,9c28.4,16.7,57.1,33,85.6,49.6c11,6.2,21.7,12.9,32.9,18.7c18.3-32,30.2-67.6,34.8-104.2
		c2.5-21.1,3.2-42.5,0.4-63.5c-5.2-51.8-25.3-101.9-57.1-143c-20.5-26.8-46-49.6-74.6-67.4C451,79.2,400.6,64.2,349.9,63.9
		 M331.4,208.7c-18.5,2.1-36.6,7.7-52.7,17c-28.2,15.9-50.2,42.4-61.1,72.8c-9.1,25.2-10.5,53-4.2,78.9c6.8,28,22.8,53.8,45,72.2
		c16,13.3,35,23,55.2,27.9c36.4,9.2,76.5,2.5,107.8-18.2c10.9-7.2,20.5-16.1,29.4-25.5c13-15,22.6-32.8,28-51.9
		c9.6-33.4,5.8-70.4-10.5-101.2c-12.7-24.5-33-44.9-57.4-57.7C386.7,210.5,358.5,205.1,331.4,208.7 M111.8,480.8
		c-2.8,1.5-5.5,3.1-8,5.1c16,27.7,36.9,52.4,61.3,73c25.9,22,56,38.9,88,50.1c41.4,14.8,86.3,19.5,129.9,13.8
		c69.5-9.1,135-45,179.8-98.9c9.3-11.6,18.6-23.4,25.5-36.6c-24.7-14.5-49.7-28.7-74.4-43.1c-14.7-8.3-29-17.1-43.8-25.1
		c-4.8,7.1-9.4,14.4-15.3,20.6c-7.4,9-16.7,16.1-26.1,23c-31.2,21.9-71.3,30.8-108.8,23.5c-37.3-6.8-71.4-29.1-92.4-60.6
		c-1.7-2.8-3.4-5.6-5.4-8.3C185.2,438.3,148.6,459.7,111.8,480.8z"/>
	<path class="st1" d="M118.5,111.5c5.5-2.1,11.7,3.7,9.8,9.4c-1.3,6-10.3,7.4-13.6,2.4C111.6,119.3,113.7,112.9,118.5,111.5
		 M118.4,114.2c-3.7,1.7-3.6,7.8,0.2,9.3c3.5,1.8,8.2-1.4,7.5-5.4C125.8,114.5,121.5,112.6,118.4,114.2z"/>
	<path class="st1" d="M533.4,200.9c2.6-0.4,5.3-1,7.9-0.2c5.2,1.7,8.4,7.9,6.8,13.1c-0.9,2.4-2.8,4.2-4.3,6.2
		c2.9,2.1,5.9,4.1,8.1,6.9c4.1,5.3,5.8,12.1,6,18.7c-3.6,0.2-7.2,0.2-10.8,0c-0.8-5.6-1.5-11.4-4.3-16.5c-1.9-3.8-5.1-6.7-8.1-9.6
		c1-2.8,2.4-5.6,2.6-8.6C537.4,207.3,535.1,204.1,533.4,200.9z"/>
	<path class="st1" d="M513.3,210.1c0.2-5.8,6-10.5,11.7-9.6c5.9,0.4,10.2,6.7,9,12.3c-0.6,2.8-2.6,4.9-4.2,7.2
		c3,2.3,6.3,4.4,8.5,7.5c3.8,5.2,5.4,11.7,5.6,18.1c-13.4,0.2-26.8,0.1-40.2,0c0-6.7,1.9-13.6,6.1-18.9c2.2-2.8,5.2-4.7,8-6.8
		C515.5,217.2,512.7,214.1,513.3,210.1z"/>
	<path class="st1" d="M149.2,206.3c4.7-2.9,10.4-3.4,15.8-3.3c-4.2,3.2-8.3,7.2-9.5,12.6c-3.4,12.1,2.6,26.6,14.3,31.7
		c4.1,1.9,8.7,1.5,13.1,1.1c-4.1,3.3-8.4,6.7-13.6,7.9c-6.7,1.4-13.9,0.9-20-2.5c-8.6-4.5-14.1-14.1-14-23.7
		C135.1,220.3,140.7,210.9,149.2,206.3z"/>
	<path class="st1" d="M169.8,219.3c3,0.5,6.1,0.5,9.1,0.2c0.3,3,1.7,5.8,3.6,8.1c-3.2,0.6-5.7,2.5-7.3,5.3c-2-2.5-4.6-4.2-7.7-4.9
		C169.4,225.5,170.3,222.4,169.8,219.3z"/>
	<path class="st1" d="M339.4,318.5c14.1-4.2,30,5.5,33.3,19.7c3.8,13.6-5.3,28.8-18.7,32.6c-7.7,2-16.4,0.8-23-3.8
		c-7.8-5.2-12.3-14.8-11.7-24.1C319.6,331.5,328.4,321.3,339.4,318.5 M342.3,323.3c-7.6,1.4-14.3,7-16.7,14.4
		c-3.1,8.8,0.2,19.4,7.9,24.8c6.8,4.9,16.7,5.6,23.9,1.1c8.1-4.7,12.7-14.9,10.1-24C365,328.6,353.3,320.9,342.3,323.3z"/>
	<path class="st1" d="M340.4,535.6c6.2-1.1,13-0.8,18.6,2.3c9.8,4.8,15.8,16.1,14.5,26.9c-1.1,12.8-12.6,23.8-25.5,24
		c-8.4,0.6-17-3.1-22.3-9.6c-5.7-6.7-7.8-16.4-5.2-24.8C323.1,545.2,331,537.7,340.4,535.6 M342.4,540.6
		c-11,1.9-19.2,13.3-17.4,24.4c1.3,10.3,10.7,18.8,21.1,18.8c9.8,0.5,19.2-6.6,21.6-16.1c2.6-8.9-1.4-19.2-9.3-24
		C353.7,540.5,347.8,539.6,342.4,540.6z"/>
	<path class="st1" d="M344.3,547.4c1.5,0,2.9,0,4.4,0c0.9,9.8,0.5,19.7,0.3,29.5c-1.6,0-3.3,0-4.9,0
		C343.8,567.1,343.5,557.2,344.3,547.4z"/>
</g>
</svg>
