<?xml version="1.0" encoding="utf-8"?>
<!-- Generator: Adobe Illustrator 21.1.0, SVG Export Plug-In . SVG Version: 6.00 Build 0)  -->
<svg version="1.1" id="Laag_1" xmlns="http://www.w3.org/2000/svg" xmlns:xlink="http://www.w3.org/1999/xlink" x="0px" y="0px"
	 viewBox="0 0 871 872" style="enable-background:new 0 0 871 872;" xml:space="preserve">
<style type="text/css">
	.st0{fill:#211715;}
</style>
<g id="_x23_211715ff">
	<path class="st0" d="M411.6,1.8c47.6-4.3,95.8,4.9,140.1,22.4c65.3,26,122.7,69.5,170,121.1c53.2,58.2,94.3,127.4,120.2,201.9
		c22.1,63.9,33.1,132.3,27.3,199.9c-3.1,36.2-11.3,72-25.6,105.5c-18.9,44.6-50.2,83.1-87.4,113.6c-41.5,34.1-90.1,59.1-140.9,76.2
		c-64,21.3-131.9,30.5-199.3,28.3c-79.5-2.7-159-21.1-229.8-57.8c-31.5-16.3-61.1-36.5-87.2-60.7c-25.1-23.4-46.9-50.6-62.6-81.2
		C17,633.8,6.3,592.6,2.3,551.1c-6-63.1,2.7-127,21.5-187.4c22.9-73.1,60.5-141.5,109.7-200.2c36.2-43,78.8-80.9,127-109.9
		C306.4,26,358,6.6,411.6,1.8 M356.4,20.5c-35.3,10-68.7,25.7-99.7,45.2c-57.6,36.4-106.7,85.5-145.9,141
		C67,268.9,35.1,339.6,19.2,414c-10.9,51.4-14,104.8-6.1,156.9c5.7,36.8,17,73.1,35.6,105.5c15,26.5,34.8,50.2,57.1,70.8
		c28.2,26,60.7,47.1,95.2,63.9c36,17.4,74.2,30.3,113.3,38.7c0-0.7,0-2.1,0-2.8c0.6-0.5,1.7-1.5,2.3-2c6,1.1,12,2.5,18,3.5
		c0.5,0.7,0.9,1.5,1.4,2.2c-0.6,1-1.2,1.9-1.8,2.9c1,0.3,2,0.6,3.1,0.9c0-1,0-2-0.1-3c0.6-0.5,1.9-1.4,2.5-1.9
		c1.6-0.4,2.6,1.4,3.7,2.2c0,1.3,0.1,2.6,0.2,3.9c2-0.7,4-1.8,6.2-1.7c5.3,0.2,11,0.8,15,4.6c1.9-0.9,3.8-2,6-1.9
		c5.2,0.2,10.9,0.5,15.1,4c4-2.8,9-2.2,13.5-1.5c1.4-0.8,2.5-1.9,3.4-3.2c1.1,0.9,2.3,1.8,3.4,2.7c0,0.8-0.1,2.3-0.1,3.1
		c9.4,0.5,18.8,0.8,28.2,0.8c0-0.7,0-2.2,0-2.9c4-2.6,9.1-2.6,13.7-2.1c2,0.4,6,1,4.4,4c0.6,0.3,1.9,0.8,2.6,1
		c5.9-3.7,13.6-4.4,20.1-2.1c1.7,1.1,2.9-0.9,3.8-2c3.1,0.1,6.1-0.5,9.1-0.8c2.9-0.3,5.5,1.2,8.2,2c0.3-0.6,1-1.8,1.3-2.4
		c4.5-1.1,9-1.8,13.6-1.9c1.8-0.1,3.6,0.4,4.8,1.9c2-1.5,4.1-3.2,6.6-3.7c4.8-1,10.1-2.4,14.6,0.2c0.8-1.1,1.6-2.2,2.4-3.3
		c3,0,5.9-0.8,8.8-1.8c0.3,0.5,1,1.4,1.4,1.9c3.9,0.1,7.7-1.1,11.4-1.9c51.5-11.6,101.5-30.7,146.6-58.3
		c41.6-25.6,79.2-58.9,106.1-99.9c18-27.3,30.5-58,38.3-89.8c16.2-66.8,12.4-137.3-4.1-203.7c-18.4-74.1-52.4-144-98.2-205
		c-42.7-56.5-95.9-105.7-158.1-139.9c-42-22.9-88.3-38.8-136.2-42.5C422.1,7.2,388.5,11.5,356.4,20.5z"/>
	<path class="st0" d="M433.9,234.5c0.8,0,2.4,0,3.2,0c4.8,11.7,9.5,23.5,14.2,35.2c1.9,4.1,3,8.7,2,13.2
		c-1.7,9.5-11.9,16.5-21.4,14.2c-8.1-1.3-14.4-8.9-14.6-17c-0.3-3.1,0.6-6.1,1.7-9C424,258.9,428.9,246.7,433.9,234.5z"/>
</g>
</svg>
