<?xml version="1.0" encoding="utf-8"?>
<!-- Generator: Adobe Illustrator 21.1.0, SVG Export Plug-In . SVG Version: 6.00 Build 0)  -->
<svg version="1.1" id="Laag_1" xmlns="http://www.w3.org/2000/svg" xmlns:xlink="http://www.w3.org/1999/xlink" x="0px" y="0px"
	 viewBox="0 0 845 621" style="enable-background:new 0 0 845 621;" xml:space="preserve">
<style type="text/css">
	.st0{fill:#0066CC;}
</style>
<g id="_x23_000000fe">
	<path d="M258.5,1.6c72.1-4,144.5,6.2,214.1,24.9c77.5,21.1,152.4,53.1,219.6,97.5c6.8,4.5,13.4,9.2,20,14
		c13.9,9.2,26.6,19.9,39.2,30.8c25.4,22.4,48.6,47.7,66.3,76.7c11.3,18.7,20.3,39.1,24.2,60.8c5,27,1.6,55.1-8,80.7
		c-4.6,14.1-12.6,26.7-19,39.9c-2,4.4-4.6,8.6-7.7,12.4c-6,8-12,16.1-17.9,24.1c-5.4,7.8-12.8,13.8-19.3,20.7
		c-6.6,6.1-12.6,12.7-19.2,18.8c-11.1,8.6-22.4,16.9-33.5,25.4c-9.3,7.5-20.2,12.5-30.4,18.6c-9.6,5.4-19,11.2-28.8,16.2
		c-20.7,8.6-41.4,17.3-62.2,25.7c-17.7,5.1-35.6,9.7-53.4,14.7c-6.7,1.7-13.3,4-20.1,5c-19.7,2.9-39.5,5.9-59.2,8.8
		c-5.7,0.9-11.4,0.8-17.1,1.1c-16.7,0.5-33.4,1.4-50.1,1.7c-18.6-1.3-37.2-2.6-55.7-4.1c-14.4-2.4-28.8-5.4-43.1-8
		c-4.9-0.9-9.9-1.7-14.7-3.3c-12.3-4-24.7-7.9-37-11.8c-7.1-2.2-13.6-5.8-20.3-8.7c-7.2-3.5-14.7-6.4-21.8-10.2
		c-12.2-7.4-24.6-14.8-36.7-22.3c-8.2-6.1-16.1-12.5-24.1-18.8c-5.7-4.7-11.9-8.7-16.9-14.1c-10.8-10.9-21.8-21.5-32.2-32.8
		c-7.9-10.1-15.6-20.4-23.5-30.5c-3.2-4.2-6.7-8.2-9.2-12.8C52.7,428.6,44.8,414.8,37,401c-2-3.5-3.3-7.4-4.8-11.2
		c-4.5-11.8-9.1-23.5-13.7-35.3c-1.5-3.9-3.2-7.8-4.1-12c-3.3-15.7-6.6-31.4-10-47c-1.8-7.4-1.2-15.1-1.9-22.6
		c-0.6-11.3-1.6-22.6-1.5-34c0.7-32.6,6.8-65.3,19.7-95.3c14.8-34.9,38.8-66,69.2-88.8c28.6-21.7,62.5-36.2,97.7-43.4
		C210.8,6.1,234.6,3,258.5,1.6 M276.4,4.4c-44.4,1.2-89.4,7.4-130.8,24.2c-24.7,10.1-47.7,24.6-67.1,42.9
		c-31.9,29.7-53.7,69.4-63.2,111.8c-13,56.9-5,117.1,16.8,170.8c35.1,86.1,103.9,157.4,187.6,197.5c34.1,16.4,70.7,26.9,108,33.1
		c47,7.8,95.1,8.8,142.5,4.3c46-4.3,91.5-13.9,135.3-28.6c34.6-11.7,68.1-26.7,99.4-45.6c30.7-18.6,59.3-40.9,83-68
		c19.7-22.6,35.9-48.9,44.1-77.9c7.1-24.4,7.8-50.9,1.1-75.5c-8-29.5-24.4-56-43.6-79.4c-25.4-31-56.3-57-89-80
		c-61.6-42.6-130.4-74-201.8-96.2C426.6,15.7,351.6,2.8,276.4,4.4 M17.9,340.8c0.5,4.4,2.4,8.4,4,12.5c5.1,13.2,10.2,26.4,15.3,39.6
		c1,2.6,2.2,5.1,3.5,7.5c7.6,13.4,15.2,26.7,22.8,40.1c1.2,2.1,2.5,4.1,4,6c9.1,11.9,18.2,23.8,27.3,35.7c2.9,3.8,6.4,6.9,9.7,10.3
		c9.1,8.9,17.6,18.3,26.9,27c8.5,6.9,17.2,13.5,25.8,20.3c4.7,3.6,9.2,7.6,14.3,10.7c8.9,5.4,17.9,10.8,26.8,16.2
		c11.1,7.2,23.7,11.7,35.5,17.5c10,5.1,21.1,7.6,31.7,11.2c9.6,2.8,18.9,6.7,28.8,8.3c15.3,2.8,30.6,5.9,46,8.6
		c18.9,1.5,37.7,2.9,56.6,4.1c19-0.5,37.9-1.4,56.9-2c6.4-0.2,12.7-1.5,19.1-2.4c15.7-2.3,31.3-4.7,47-7c7.7-1,15.1-3.6,22.6-5.5
		c17.5-4.9,35.1-9.4,52.5-14.5c19.6-8,39.1-16.2,58.8-24.2c5-2,9.6-5,14.3-7.7c13.1-7.6,26.4-14.9,39.4-22.6
		c10-7.2,19.8-14.9,29.7-22.3c5-4,10.5-7.4,15-12c7.8-7.9,15.6-15.7,23.5-23.5c3.3-3.4,7.1-6.5,9.5-10.7c-3.5,2.9-6.5,6.3-9.8,9.4
		c-24.1,23.3-51.7,42.7-80.9,59c-36.1,20.1-74.7,35.4-114.4,46.7c-41.5,11.7-84.2,19-127.2,21.8c-51.2,3.3-102.9,0.3-153.1-10.9
		c-35.8-7.9-70.7-20.5-102.8-38.2C119.2,507.2,55.8,437.5,23.2,354.7C21.4,350.1,20,345.3,17.9,340.8z"/>
	<path d="M210.8,20.8c36.6-6.8,74.1-8.2,111.2-6.2c3.4-0.1,5.1,3,5.5,5.9c-0.6,0.8-1.2,1.6-1.8,2.5c-26.8,1.5-53.5,4.3-79.8,10
		C192.7,44.1,140.8,64.9,98,99c-14.7,11.8-28.2,25.2-39.8,40.2c-2.8,4.7-12.3,0.6-9.7-4.7c17.6-35,45.6-64.7,79.5-84.5
		C153.4,35.1,181.9,26.2,210.8,20.8 M221.6,22.5c-25.3,4.1-50.4,10.5-73.7,21.3c-36,16.4-67,43.7-87.7,77.4c-3,5.1-6.3,10-8.4,15.6
		c1,0.3,2,0.6,2.9,0.9C85.6,97.8,129,69.1,175.4,50.4C221.1,32,270,22.5,319.1,19.9c1.4,0,2.9-0.3,3.5-1.7
		C288.9,16.1,254.9,17.3,221.6,22.5z"/>
	<path d="M339,23.8c10.7-0.5,21.3,0,32-0.7c40.2,1.7,80.2,7.6,119.1,18c1,2.6-0.1,5.1-1,7.6c2.9,0.9,5.8,1.8,8.8,2.5
		c3.5,0.9,7.1-0.8,10.6,0.4c4.2,1.1,5.8,6,10.1,6.9c30.2,9.7,59.4,22.3,87.3,37.4c1.6-2.2,4.2-5.8,7.3-3.9
		c23.4,13.6,45.3,29.7,66.3,46.7c28.7,23.6,54.4,51.2,74,82.9c19.3,31.2,32.6,66.6,35.3,103.4c2.7,33.7-4.2,68-19.5,98.1
		c1.1,1.5,2,3.2,3,4.8c-16.7,31.5-41.7,58.1-70.6,78.8c-2.9,2-5.6,4.3-8.8,5.8c-4-0.1-6.1-4.2-8.9-6.5
		c-32.2,21.2-68.4,36-105.7,45.6c0.3,1.9,0.3,3.8,0.3,5.7c-47.5,11.7-96.9,15.4-145.7,12.6c-77.9-4.6-155-25.3-224.1-61.7
		c-31.8-16.9-61.9-37.2-88.7-61.2c-2-2.3-5.2-1.4-7.8-2.1c-2.4-1.6-4.3-3.8-6.4-5.7c-28.6-27.7-53.2-60.1-69-96.8
		c0.7-0.8,1.4-1.6,2.1-2.4c3,0,5.9-0.1,8.9-0.1c-12-28.5-18.7-59.6-17-90.6c-1.9-0.1-3.9-0.2-5.9-0.3c-0.8-1.8-1.4-3.6-1-5.6
		c1.3-11,2.3-22.1,5.4-32.8c10.9-42,37.3-78.9,70.6-106.3c40.8-33.9,91-54.8,142.3-66.6C274,29.3,306.5,24.9,339,23.8 M268.3,35.3
		c-41.2,8.1-81.6,22.2-117.4,44.6c-25.7,16.1-49.1,36.6-66.5,61.6c-12.7,17.6-22,37.7-27.4,58.7c-1.7,7.8-3,15.7-4,23.6
		c1.7,0,3.4,0,5,0.1c1.4-6.1,1.8-12.4,3.3-18.4c8.2-37,29.5-70.2,57.3-95.7c35.4-32.5,80-53.5,126.2-65.8
		C282.4,34,321.2,29.5,360,30c37.2-0.1,74.3,4.7,110.6,12.7c0.4-0.8,0.9-1.6,1.3-2.3C405.3,25.3,335.5,22.1,268.3,35.3 M263.9,43
		c-46.4,10.1-91.7,28.3-129.1,57.8c-29.4,23.1-53.6,53.8-65.4,89.6c-4.5,13.1-6.8,26.9-8.3,40.7c10.3-22.5,25.5-42.6,43.8-59.2
		c3.2-2.8,6.4-5.6,9.1-8.9c10.8-12.6,23.3-23.6,36.7-33.3c2-1.4,4.1-2.7,6.4-3.7c31.5-13.8,63-27.6,94.5-41.5
		c3.5-1.6,7.3-2.4,11.1-3.2c65.3-14.5,133.7-12.4,198.7,2.3c2.9-12.4,5.6-24.9,7.9-37.4C402,30.9,331.4,28.6,263.9,43 M476.3,41.3
		c-0.8,4.1-1.7,8.2-2.3,12.4c3.3,0.9,6.7,1.7,10.1,2.4c0.1-4.2,0.9-8.4,2.6-12.2C483.2,42.9,479.8,42,476.3,41.3 M487.6,52.1
		c0.1,0.7,0.4,2.1,0.5,2.8c3.1,1.5,6.4,2.5,9.8,3.2c0.2-1,0.5-2,0.7-2.9C495,53.9,491.3,52.9,487.6,52.1 M502,54.8
		c0,0.6,0.1,1.9,0.1,2.5c3.2,0.4,6.4,1.4,9.5,2.5C511.1,55.2,506,53.9,502,54.8 M473,57.2c-0.1,1.2-0.2,2.4-0.3,3.6
		c29,6.9,57.4,16.1,84.9,27.7c15.5,6.3,30.4,14,45.3,21.5c0.1-1.3,0.2-2.5,0.4-3.8C562.3,84.1,518.3,67.8,473,57.2 M503.5,61.1
		c0.2,1.4,0.8,1.6,2,0.7C505.3,60.5,504.7,60.2,503.5,61.1 M514.3,60.9c-0.1,0.7-0.2,2.2-0.3,2.9c18.9,6.1,37.6,13.2,55.7,21.3
		c11.9,5.1,23.2,11.4,35,16.9c0-0.7,0-2.1,0-2.8c-14-7.7-28.3-14.7-43-21C546.2,71.8,530.5,65.5,514.3,60.9 M471.8,64.3
		c-1.2,4.8-2.1,9.7-2.9,14.5c9.5,2.6,19.1,4.9,28.5,7.8c35.2,10.4,69.1,24.7,101.3,42.3c1-5.1,2.2-10.2,3.1-15.4
		C560.8,91.6,517.1,74.9,471.8,64.3 M129.2,87.3C92,111,59.8,144.2,42.1,185c-3.1,7.5-6.3,15.2-8.1,23.1c1.9-3.3,3.2-6.8,4.9-10.2
		c10.3-21.5,24.5-40.9,41.3-57.8c1.7-1.7,3.2-3.6,4.6-5.4C101,113.1,121.4,94.8,144,80c3.7-2.4,7.6-4.5,11-7.2
		C146,76.7,137.6,82.1,129.2,87.3 M261.2,85.2c-6.2,1.2-11.7,4.1-17.4,6.6c-28.3,12.4-56.5,24.8-84.8,37.2c-2.2,1-4.4,2.2-6.3,3.6
		c-9.6,7-18.7,14.6-27,23c-24.3,24.4-42.5,55.7-48.1,90c-6.3,34-0.1,69.4,14,100.7c1.9,4.2,4.6,8,7.1,11.9
		c26.6,39.2,62.8,71.2,102.8,96.3c61.9,38.8,133,62.1,205.4,70.4c48.3,5.5,97.6,4.1,145.3-5.7c3.5-0.6,6.9-1.8,10.4-1.9
		c2.6,1,4.5,3.2,6.5,5c26.6-11.3,53-23.2,79.5-34.7c5.2-2.1,9.5-5.7,13.9-9c14.9-11.6,28.4-25.1,39.5-40.5
		c21.1-28.7,32.6-64.4,31.3-100.1c-1.3-36.6-14.8-72.1-35.3-102.1c-10.9-11.4-22.3-22.3-33.3-33.7c-14.6-14.4-28.8-29.2-43.4-43.6
		c-5.2-4.6-11.3-8.1-17-12c-33.4-21.4-69.8-38-107.7-49.7c2.3,2.8,4.9,5.3,7.5,7.8c4.7,4.6,8.7,9.9,13.5,14.5
		c11.4,11.3,22.6,22.7,33.9,34.1c8.3,8,16,16.7,24.7,24.3c6.1,5.9,12,12,17.9,18.2c2,1.7,1.9,4.6,1.5,6.9
		c-3.4,19.4-7,38.7-10.2,58.1c1.1,1.4,2.2,2.7,3.3,4c-0.2,1-0.5,2-0.6,3c-23.8,10.6-47.8,21-71.7,31.5c-4,2.4-7.1-2-9.7-4.4
		c-53.6,23.3-107,47.1-160.7,70.4c1.8,2.1,3.9,4.3,3.4,7.3c-23.5,10.5-47.1,20.7-70.7,31.1c-2.5,1.3-6.1,1.7-8-0.8
		c-10.6-10.8-21.1-21.5-31.8-32.2c0.3-1.1,0.5-2.1,0.6-3.2c2-1,4.2-1.7,5.8-3.3c0.8-2.1,1.1-4.2,1.6-6.4
		c-12.7-12.9-25.2-25.8-38.2-38.4c-4.4,1.6-8.5,4.1-13,5.3c-2.5,0.5-4.1-1.7-5.6-3.2c-9.5-9.5-18.7-19.3-28.4-28.6
		c-1.4-1.3-2.5-2.9-3.2-4.7c2-1,4-2,6-2.9c3.4-13,6.3-26.1,9.3-39.2c-2.5-2.6-5.1-5.2-7.9-7.5c-3.4,1.2-7,4.1-10.8,2.5
		c-2.7-2.3-6.6-5.1-5.6-9.2c0.4-3.6,4.6-4.4,7.1-6.3c2.4-6.2,2.3-13.1,4.7-19.3c1.9-2.5,3.9-4.8,6-7c2.5-2.4,6.4-0.3,9.4-1.5
		c7.3-2.8,14.3-6.5,21.4-9.9c1.7-1.3,2.7-3.3,4.5-4.5c2.6-1,5.6-0.6,7.9,0.8c2.3,1.5,2.3,4.6,3.1,6.9c0.7-3.1,1-6.4,2.4-9.4
		c1.7-3.3,5.1-5.4,8.6-6.4c6.4-1.6,13.7-0.2,18.9,3.9c3.4,2.7,5.9,6.9,5.4,11.4c-0.5,4.2-1.7,9-5.6,11.4c-5,3.5-11.4,3.3-17.1,2
		c2.3,2.2,4.4,5.1,7.8,5.8c2.4,0.6,4.4,2.2,6.1,3.9c6.3-2.6,12.5-5.4,18.7-8.2c-2.6-3.9-5.1-8.1-5.6-12.9
		c-0.4-6.4,1.2-12.8,3.1-18.8c1.6-5.6,7.8-8.1,9.2-13.7c-5.8,6.6-17.7,5.9-22.2-1.7c-2.2-3.4,0.4-7.2,1-10.7c1.3-4.1,1-8.8,3.4-12.6
		c4.2-4.9,12.5-4.2,17.2-0.4c2.6,1.9,3.1,5.2,3.8,8.1c0.9-4.6,1.6-9.3,2.9-13.9c2.5-8.9,9.1-16.6,17.5-20.4c12.4-6,28.5-3,37.8,7.2
		c7.2,7.5,10.2,18.6,8.2,28.7c-1.9,10.1-4.2,20-6.1,30.1c41.5-18.1,83-36.3,124.5-54.7c1.7-6.1,2.8-12.4,4.5-18.5
		c0.4-2,1.9-3.4,3.7-4.2c4.7-2.2,9.7-4,14.2-6.5c-2.8-1-5.7-1.8-8.6-2.4C400,72.4,328.9,69.8,261.2,85.2 M469.2,82.9
		c-0.4,0.5-1.2,1.6-1.6,2.2c6.4,1.5,12.9,4.6,19.7,2.7C481.4,85.6,475.3,84.2,469.2,82.9 M487.5,87.8c1.5,1.8,3.1,3.7,5.5,4.2
		c23.9,7.2,47.3,16.2,69.8,27.2c11.7,5.5,22.8,12.1,34.2,18.3c0.2-1.4,0.6-2.8,0.7-4.2c-0.5-1.1-1.8-1.4-2.7-2.1
		c-27.2-14.9-55.8-27.2-85.3-36.8C502.3,91.9,495,89.3,487.5,87.8 M480.4,95.3c-1.5,3.6-1.9,7.5-2.4,11.3
		c6.7,6.8,13.6,13.4,20.1,20.3c1.8-1.2,3.8-3.6,6.2-2.4c2.1,1.1,4.2,2.9,5.2,5.2c1.2,3.2-1.4,5.9-2.8,8.5c4.1,4.9,8.6,9.5,12.3,14.7
		c4.4,5.8,8.1,12.1,11.8,18.3c2.9-3.8,4.3-9.4,9.1-11.4c2.2,2.2,4.8,4.3,5.9,7.3c1.1,2.8,0.8,5.8,0.8,8.7c7,6.6,13.5,13.9,20.5,20.5
		c1.1-3.9,2.4-8.1,1.4-12.1c-1-4.8-4.2-8.8-7.6-12.1c-24.8-24.8-49.4-49.9-74.2-74.8C485,95.8,482.6,93.1,480.4,95.3 M463.4,100.9
		c6.2,6.7,12.7,13.1,19.1,19.6c2.8,2.8,6.3,4.5,9.8,6c-6.3-7.3-13.6-13.7-20.2-20.7c-1.4-1-0.9-2.8-1-4.3c1.5-0.9,3.1-1.8,4.6-2.8
		c0.2-1.2,0.4-2.4,0.7-3.6C472,96.9,467.7,98.8,463.4,100.9 M610.7,94.8c0.1,1-1.3,2.7,0,3.3c37.6,22.4,72.2,50.3,99.6,84.5
		c22,27.5,39.3,59.2,47.4,93.6c8.5,35.2,6.2,73.2-7.8,106.8c-14,34.4-39.2,63.4-68.8,85.3c1,0.9,2,1.9,2.9,2.9
		c25.1-17.7,46.6-40.7,61.8-67.5c17.5-31,25.1-67.4,21.3-102.8c-3.7-35.7-17.9-69.7-37.8-99.3c-19.7-29.3-44.9-54.7-72.9-76.1
		C642,114.1,626.7,103.8,610.7,94.8 M608.2,100.9c-2.7,12.9-5.6,25.8-8.1,38.7c10.3,7,21.7,12.8,29.9,22.4
		c23.6,23.8,47.2,47.4,70.6,71.4c9.6,13.4,17.2,28.3,23.3,43.6c3.1,7.5,5.1,15.5,8,23c10,24.1,16.7,49.9,16.8,76
		c15-39.1,13.1-83.4-1.5-122.4c-13-35.3-35.2-66.7-61.6-93.4C662.6,137.2,636.4,117.3,608.2,100.9 M461.1,104
		c-1.3,4.9-2.5,9.8-3.5,14.8c6.1-1.1,12.4-0.7,18.5,0.3C471.2,113.9,466.1,109,461.1,104 M291,112c-8.3,3.7-14.7,11.5-16.6,20.4
		c-3.1,14.6-5.9,29.2-9.1,43.7c-0.7,3.5-1.4,7.2-0.1,10.7c1.7,5,5.6,8.8,9.8,11.9c16.7-7.1,33.3-14.4,49.8-21.9
		c2.3-10.8,4.5-21.5,6.7-32.3c2.1-9.8-1.4-20.5-8.8-27.2C314.5,109.3,301.4,107.2,291,112 M445,128c-71.7,31.5-143.3,63-215,94.4
		c6.1,6.7,12.9,12.8,19.1,19.5c16.1,15.9,31.8,32.2,47.8,48.2c4.4,4.2,5.9,10.3,7.2,16c3.7,4.9,9,8.4,12.6,13.4
		c1.3,1.9,0.7,4.3,0.3,6.5c-2.5,13.5-4.8,27.1-7.3,40.6c-0.7,4.1-1.7,8.2-1.7,12.4c4-0.1,7.6-2.3,11.2-3.8c6-2.8,12.3-4.9,18.3-7.7
		c3.1-1.3,5-4.5,8.1-5.7c52.4-23,104.8-46,157.2-69c3.6-1.6,7.7-0.6,11.1-2.8c7-3.9,15.6-5.6,20.9-12.1c8.3-9.6,11-22.6,11.3-35
		c0.4-18.3-4-36.5-10.8-53.4c-7.5-18.4-18.2-35.7-32.5-49.6c-10.1-9.5-22.7-18-37-18.4C458.4,121.3,451.8,125.2,445,128
		 M252.4,136.3c-3.8,1-2.8,5.8,0.2,7.2c3.6,2.3,10.9,2.9,12-2.5C262.9,136.3,256.8,134.6,252.4,136.3 M265.1,158.1
		c1.5-4.6,2.6-9.4,2.8-14.3C266.5,148.4,265.6,153.2,265.1,158.1 M248.4,145.2c-0.6,3.9-1.8,7.6-2,11.5c2.6,4.6,9.3,5.9,13.8,3.4
		c1.8-3.7,2.1-8,3-12C258,149.2,252.7,148.1,248.4,145.2 M31.8,225.8c-2,6.3-3.7,12.8-4.3,19.4c1.7,0.1,3.4,0.2,5.2,0.3
		c0.8,1.4,2,2.7,1.8,4.4c-0.7,17.9,0.8,36,5.4,53.3c-2-23.2-1.9-47.3,5.8-69.6c5-20.2,8.2-41.1,16.8-60.3c2.3-5.7,5.4-11,7.8-16.6
		C52.8,176.7,39.7,200.5,31.8,225.8 M540.7,165.9c-2,3.3-4,6.6-5.9,10c2.8-0.9,5.5-1.8,8.4-2.3C543.4,170.8,543,167.9,540.7,165.9
		 M259.1,186.8c2,5.7,5.9,10.9,11.3,13.8c-3.1-4.2-7.4-7.8-8.8-13.1c-1.8-5.8,0.4-11.7,1.2-17.5C259,174.6,257.1,181,259.1,186.8
		 M540.4,177.4c0.2,1.5,0.5,3,0.5,4.5c-0.6,1.4-2.1,2.2-3.2,3.3c0.1,0.6,0.2,1.9,0.3,2.6c2.2-0.9,4.3-2.1,6.6-2.5
		c2.5-0.3,4.1,1.8,5.7,3.4c6.1,6.6,12.6,12.9,18.9,19.2c7.4-3,14.6-6.4,21.9-9.4c-4.7-6.2-10.8-11.2-16.2-16.8
		c0.4,2.3-0.1,5,1.5,6.9c2,2.3,4.3,4.3,6.4,6.5c-0.2,1-0.4,2.1-0.5,3.1c-3.7,1.9-7.4,3.8-11.5,5c-2.4,0.1-4-1.8-5.6-3.4
		c-6.2-6.4-12.7-12.6-18.8-19.2C544.8,178.8,542.8,177.5,540.4,177.4 M227.1,178.2c2.1,1.2,4.1,2.6,6.1,4.1c1.8-0.6,3.5-1.2,5.2-1.8
		C234.9,178.9,231,178.4,227.1,178.2 M219,184.1c-1.3,3.4-2.4,7.7,0,10.9c4.1,5.8,12.3,8,19,5.9c7.4-1.9,9.8-12.6,4.4-17.8
		c-1.1,1.5-2.2,3-3.4,4.4c0.6,2,0.8,4.2,0.9,6.3c-3.2,1.1-5.8-0.7-8.3-2.5c-3.1-0.2-7,1.7-9.3-1.5c1-1.6,1.9-3.3,3.1-4.8
		c-1-2-0.9-4.2-0.3-6.3C222.9,180.3,220.1,181.4,219,184.1 M59.3,245.4c-9.8,29.6-8.5,61.9-0.4,91.7c1.5,4.8,2.5,9.8,4.8,14.4
		c2.2-7.3,3.4-14.9,5.3-22.2c1.9-0.8,3.8-1.6,5.8-2.3c-2.7-11.5-4.7-23.1-5.3-34.9c-1.2-19.7,2-39.5,6.8-58.5
		c3.8-15.4,10.1-30.2,18.2-43.8c0.9-1.6,1.8-3.2,2.6-4.9C80.3,201.7,67.2,222.7,59.3,245.4 M202.8,187.6c2.2,0.6,4.5,1.1,6.8,1.3
		C208.2,186.3,205.1,186,202.8,187.6 M540.3,190.9c0.3,1.6,0.7,3.1,1.3,4.5c0.5-1.8,1-3.7,1.4-5.5
		C542.3,190.1,541,190.6,540.3,190.9 M725.9,189.8c2,3.7,4.6,7,6.9,10.4c14.9,22.3,26.6,46.8,33.1,72.9c1.9,8.2,5.7,15.8,8,23.9
		c6.5,20.6,10,42.2,9.9,63.9c0,2.6-0.7,5.2-0.2,7.8c1.5-11.2,2.5-22.5,2.2-33.8c-0.9-38.8-14-76.6-34.1-109.6
		C743.9,213,735.6,200.8,725.9,189.8 M544.6,205.4c2.2,8,3.9,16.2,4.7,24.4c1.5,16.1,0.1,33.5-9,47.4c4.7-3.1,9-6.9,14-9.8
		c1.6-0.7,1.4-2.8,1.9-4.2c3.4-17.6,7.4-35.1,10.6-52.7c-6.7-6.7-13.3-13.5-20.2-20.1C545.7,195.3,543.5,200.3,544.6,205.4
		 M197.3,192.4c-3.6,0.9-6.8,4.6-5.4,8.4c2.6,6,9.9,8.7,16.1,8c3.3-0.1,6.7-1.4,8.5-4.3c1.7-3-0.1-6.6-2.5-8.6
		C209.6,192,203.1,190.8,197.3,192.4 M256.6,191.5c0.3,4.8,2.7,9,5.6,12.6c1.3-0.5,2.7-0.9,4.1-1.3
		C262.7,199.3,259.6,195.4,256.6,191.5 M574.5,191.9c-0.4,2.2-0.8,4.3-1.2,6.5c1.8-0.8,3.6-1.6,5.4-2.4
		C577.3,194.6,576,193.2,574.5,191.9 M178.7,201.1c0.2,3.1,0,6.3-1.3,9.1c-1.2,1.4-2.9,2.2-4.4,3.2c2.4,2.6,4.9,5.1,7.4,7.6
		c2.2-0.9,4.3-1.9,6.5-2.9c-3.3-6.9,0.3-14.1,1.2-21.1C184.9,198.3,181.8,199.7,178.7,201.1 M168.7,202c1.1,2.6,3.8,3,6.3,2.9
		C175.4,201.4,171.1,201.3,168.7,202 M570.5,211.5c-4,18.8-7.8,37.6-11.6,56.5c-0.9,5.1-5.7,8.2-8.3,12.4c10.2-3.9,20-8.6,30-12.9
		c4.1-21.8,7.9-43.7,11.7-65.5C584.9,205,577.6,208.1,570.5,211.5 M190,205.3c-0.9,3.7-1.7,7.6,0.1,11.2c3.6-1.1,7-2.6,10.3-4.4
		C196.6,210.3,193,208.2,190,205.3 M219.1,211.7c2.1,2.1,4.2,4.2,6.3,6.2c0.6-2.4,1.2-4.8,2.2-7c-2.1-2.4-4.3-4.6-6.7-6.7
		C220.1,206.7,219.6,209.2,219.1,211.7 M169.7,208.3c-0.1,1.6,3.6,1.7,3.5,0.1C172.4,207.5,170.6,207.4,169.7,208.3 M164.1,209.9
		c-1.2,4.8-2.2,9.6-2.9,14.4c2.7,1.5,5.2,3.3,7,5.9c0.7,2,0.7,4.2,1.4,6.2c1.5,2.1,3.5,3.8,5.4,5.5c1.4-5.3,2.8-10.7,3.8-16.1
		c0.5-1.6-1.2-2.5-2-3.6C172.5,218.2,168.4,213.9,164.1,209.9 M229.5,213.9c1.3,2.8,4.8,3.5,7.1,1.4
		C234.5,213.7,232,212.9,229.5,213.9 M209,213.5c-2.3,6.2-3.2,12.8-4.3,19.3c3.7,3.8,8,7.3,10.4,12.1c2.2,4.3,3,9.3,2,14.1
		c-3.4,18.9-6.6,37.8-9.9,56.7c1.8,0.3,3.7,0.7,5.5,1.1c4.5-22.8,9.3-45.5,13.9-68.2c0.4-2.3,1.4-5.5,4.4-5.1c3.2,0.7,6.1,3.4,7,6.6
		c2.6,8,6.7,15.4,9.7,23.3c1.5,3.9,0.2,8-0.5,11.9c-1.2,5.2-2.1,10.4-3.3,15.6c-1.6,6.7-6.1,12.2-8.4,18.6c-0.9,2.5,0.7,4.9,2.4,6.6
		c4.5,4.5,9,9,13.4,13.5c2.6-9.4,4.4-18.9,6.9-28.3c1-4.3,5.9-4.9,9.1-6.9c1.5-2.8,2.1-6.1,2.5-9.3c-1.2-5.1-4.8-9.4-5.1-14.8
		c0.9-0.2,2.5-0.6,3.4-0.7c3.3,2.7,6.4,6.1,6.7,10.6c-0.1,4.4-1.4,8.6-2.2,12.9c8.2,4.9,13.1,13.8,21.2,18.7c1.4-4.8,2.7-9.7,3-14.7
		c0.1-6.3-3.8-11.7-8.2-15.8c-25.1-24.9-49.7-50.3-74.7-75.2C212.8,214.5,210.8,213.9,209,213.5 M184.7,223.2
		c6.5,6.9,13.3,13.5,19.8,20.3c3.4,3.8,4.8,8.8,5.7,13.6c1.2-0.5,2.5-1,3.8-1.4c0.1-4.5-1.4-9-4.3-12.4
		c-4.8-5.6-10.2-10.5-15.3-15.7c-1.4-1.1-0.8-2.9-0.9-4.4c3.4-1.5,6.8-3.1,10.3-4.6c0.2-1.3,0.5-2.7,0.8-4
		C197.8,217.2,191.3,220.2,184.7,223.2 M197.1,225.4c1.4,1.3,2.9,2.6,4.4,3.9c0.4-2.1,0.8-4.2,1.2-6.3
		C200.9,223.8,199,224.6,197.1,225.4 M182.3,226.1c-5,22.3-10.5,44.5-15.5,66.8c9,9.1,18.1,18.2,27.1,27.3
		c4.2-19.7,8.1-39.5,12.1-59.3c1.5-6.3-1.5-12.7-5.9-17C194.1,238,188.2,232.1,182.3,226.1 M52.3,227.3c-3.4,14-6.4,28-9.8,42
		c2.5,0.2,5,0.4,7.5,0.5c2.3-14.2,5.5-28.3,7.8-42.6C56,227.2,54.1,227.3,52.3,227.3 M155.3,230.8c1,1.1,1.9,2.2,2.9,3.3
		c2.1-0.8,4.1-1.7,6.2-2.5c-1-1.2-2.1-2.4-3.1-3.6C159.2,228.9,157.2,229.9,155.3,230.8 M231.2,257c-4,19.4-7.9,38.7-12,58.1
		c-0.6,3.4-1.9,7.2,0.4,10.2c4.6-20.6,8.4-41.4,12.8-62c0.9-3.8,1.2-7.8,0.5-11.7C232.1,253.4,231.6,255.2,231.2,257 M237.2,258.2
		c-1.7,5.4-2.4,10.9-3.6,16.4c-3.5,18.1-7.6,36-10.7,54.1c1.2,1.1,2.4,2.2,3.7,3.3c3.9-22.8,8-45.6,11.9-68.5
		C239,261.6,237.9,259.9,237.2,258.2 M209.6,261.5c-3.9,19.6-8.1,39.2-11.8,58.9c1.7-0.8,3.8-1.1,5.2-2.5c0.9-2.4,1.1-5,1.6-7.5
		c2.8-16.9,6.1-33.7,8.6-50.6C212,260.4,210.8,261,209.6,261.5 M241.4,267.9c-2.8,16-5.7,32-8.3,48.1c2.8-5.9,6.6-11.5,7.9-18
		c1.2-6.1,2.6-12.1,3.7-18.2C245.6,275.5,243.1,271.6,241.4,267.9 M42.3,273c-1,26,3.9,52.1,13.4,76.3c1.8,4.5,3.4,9.1,6.2,13.1
		c0.1-2,0.5-4.1-0.3-6C55,339,50.7,320.6,49.3,302c-0.7-9.6-0.3-19.2,0-28.9C47,273.1,44.6,273,42.3,273 M538.9,282.7
		c0.6,0.5,1.8,1.4,2.4,1.9c2.9-2.7,5.5-5.6,7.8-8.8C545.5,277.7,542.2,280.1,538.9,282.7 M512,295.7c1,0.4,2.1,1.1,3.2,0.5
		c7.5-3.2,15-6.5,22.4-9.9c-0.5-0.5-1.3-1.6-1.8-2.1C527.8,287.8,519.3,290.6,512,295.7 M771.1,301.4c0.5,13.6,1,27.3-1,40.8
		c-1.9,16-6.5,31.5-7.7,47.5c-2.6,15.1-7.5,29.8-14,43.6c-13.5,28.6-34.8,52.9-59.4,72.5c1,1,2,2,3,3c25.6-17.1,48.4-38.6,65.8-64.1
		c2.1-2.8,2.1-6.5,3.2-9.8c3.8-14.3,12.6-26.7,15.9-41.1c2.2-11.8,3.2-23.9,3.2-35.9C779.7,338.9,777.3,319.6,771.1,301.4
		 M268.5,307.8c7.1,7.1,14,14.6,21.3,21.5c0.9,1.1,2.4,0.2,3.4-0.1c6.5-2.9,13-5.8,19.6-8.6c-3.2-3.5-6.5-7-10.2-9.9
		c-1,3.5,3.9,6.2,1.8,9.5c-4.3,1.9-8.9,5.4-13.8,4.3c-5.6-5.4-10.8-11.3-16.6-16.4C272.4,306.4,270.3,307.3,268.5,307.8 M75.1,307.9
		c0.4,5.5,1.7,10.9,2.9,16.3c0.4,2,1.6,3.7,2.8,5.3C78.9,322.2,77,315,75.1,307.9 M262.5,310.2c-0.8,2.3-1.6,4.7-2.1,7.1
		c-4.4,18.8-9,37.6-13.4,56.4c9.1,9.1,18.1,18.3,27.3,27.3c4.6-22.7,9.4-45.3,13.9-68c-5.7-6.1-11.8-11.8-17.6-17.8
		C268.4,313.1,266.2,309.9,262.5,310.2 M231.5,323.2c-0.4,3.2-1.1,6.4-1.3,9.7c5.6,6.7,12,12.7,18.2,18.8c0.7-2.5,1.3-5.1,1.9-7.7
		C244.3,336.9,236.4,331.3,231.5,323.2 M736.1,322.5c0,6.2,1,12.3,0.9,18.5c0.3,20.8-3.7,41.5-9.6,61.4
		c-3.1,10.4-7.8,20.1-12.5,29.8c11-11.9,19.9-25.7,27.1-40.2c1.5-3.1,3.4-6.3,3.2-9.9C745.6,361.9,742.7,341.5,736.1,322.5
		 M291.8,333.8c-4.6,22.1-9.1,44.2-13.7,66.3c10.9-4.5,21.7-9.3,32.5-14.2c-2.7-2-7.2-3.5-6.5-7.6c2.9-18,6.5-35.9,9.4-53.9
		C306.2,327.2,299,330.5,291.8,333.8 M73.9,331c4.3,9.4,9.7,18.2,15.3,26.8c29.9,45.2,72.2,81,118.7,108.3
		c61.8,36.1,131.6,57.9,202.7,65.5c51.4,5.4,103.9,3.5,154.3-8.3c-0.5-0.6-1.7-1.8-2.2-2.5c-2.2,0.3-4.4,0.7-6.5,1.2
		c-23.1,5-46.6,7.8-70.1,9c-79.3,3.7-159.4-11.7-231.7-44.3C210.5,467,169.4,440.7,135,407c-22.6-22.1-42.2-47.6-56.2-75.9
		C77.1,331,75.5,331,73.9,331 M71.4,334.9c-2.3,10.2-4.7,20.4-7,30.6c-0.6,1.8,0,3.6,0.9,5.3c12.8,24.9,29.9,47.5,49.4,67.6
		c3.1,2.9,7.1,4.8,10.1,7.9c20.9,18.6,44,34.8,68.1,49c66.6,38.8,142,61.9,218.6,69.5c49.6,4.8,100.1,3.2,148.9-7.1
		c1.9-10.2,4-20.4,5.7-30.6c-36.8,8.1-74.5,11.8-112.2,11c-79.6-1.8-158.8-21.5-229.4-58.4c-46.8-24.7-90.1-57.3-123.2-98.8
		C89.9,366.4,80.1,350.9,71.4,334.9 M40.7,343.5c2.1,2.2,6.8,3,8.5,0C46.3,343.2,43.5,343.2,40.7,343.5 M44,349
		c11.1,23.6,26.1,45.2,43.1,65c1.7,2,3.4,3.9,5.4,5.5c-1.2-2.4-2.8-4.5-4.4-6.5c-15.3-19.7-27.8-41.6-36.8-64.8
		C48.8,348.5,46.4,348.8,44,349 M343.2,369.5c-1.6,1.2,0.7,3.2,1.9,1.9C346.7,370.2,344.5,368.1,343.2,369.5 M334.5,372.8
		c0.5,0.5,1.4,1.6,1.8,2.1c1.9-0.8,3.2-2.4,3.8-4.3C338.2,371.3,336.3,372,334.5,372.8 M314.1,381.3c0.3,0.6,0.9,1.7,1.1,2.3
		c5-1.6,9.7-3.9,14.5-5.9c1.3-0.4,2.2-1.4,2.4-2.8C325.5,375.2,320.1,379.3,314.1,381.3 M705.2,459.2c-6.1,5.7-13,10.3-19.3,15.8
		c-2.4,9.1-3.6,18.6-5.4,27.8c2.7-0.4,5.8,0.7,8-1.2c25.7-20.5,47.2-46.7,60-77.2c5.2-12.6,9.5-25.8,10.3-39.4
		C747.3,413.6,728.2,438.8,705.2,459.2 M767.1,427.3C765.6,430.4,770.4,427.4,767.1,427.3 M697.9,449.9c2.6-2.2,5-4.8,6.3-8
		C701.8,444.3,699.8,447,697.9,449.9 M679.4,471.8c-2.7,12.6-5.9,25.1-8.3,37.8c2.1-1.3,5.2-2.2,5.4-5.2c1.9-10.1,3.9-20.2,5.6-30.3
		C681.1,473.4,680.2,472.6,679.4,471.8 M657.2,487.2c-2.3,1.3-2.3,4.1-2.9,6.4c6.6-4.3,12.7-9.5,18.6-14.8c1.8-1.4,2.3-3.8,2.8-5.9
		C669.4,477.6,663.5,482.7,657.2,487.2 M650.4,500.4c-27.4,12-54.7,24-82.1,36c-1.7,6.8-2.7,13.7-4,20.5c2-0.5,4.1-1,6.1-1.4
		c1.1-2.6,1.7-6.5,5.1-7c31-7.8,61.2-19.2,89-35c2.4-0.9,2.6-3.6,3.1-5.7c1.7-8.1,3.7-16.1,5.3-24.2
		C665.5,489.3,658.8,496,650.4,500.4 M631.9,498.9c-20.6,9.1-41.4,18-61.9,27.3c-0.4,2-0.7,4-1.1,6c27.1-11.6,54-23.7,81-35.4
		c0.5-2,0.9-4.1,1.3-6.1C644.6,493,638.4,496.2,631.9,498.9z"/>
	<path d="M730.5,178.2c3-1,6.7-2.7,9.2,0.1c23.9,21.7,45.7,46.1,61.7,74.2c10.9,19.2,18.9,40.3,20.8,62.3
		c3.6,39.6-11.8,78.8-35.2,110.2c-1.8,2.5-5.5,1.8-7.9,0.7c-2.2-0.7-3.1-3.5-1.8-5.4c17-35.4,22.2-76.2,15.1-114.9
		c-8.1-45.5-31.2-87.2-61-122C729.8,182.1,730.3,180.1,730.5,178.2 M737,181.8c-0.2,3.6,2.8,5.9,4.7,8.5c17,21.4,31.4,45,41.5,70.4
		c14,34.6,19.4,73,13.4,110c-2.6,15.7-5.6,31.3-9,46.9c7.8-10.1,13.7-21.5,18.9-33.1c8.8-20.2,13.6-42.4,12.5-64.5
		c-1-20.7-7.6-40.7-17.1-58.9c-15.1-29-36.9-54.1-60.6-76.4C740,183.5,738.5,182.6,737,181.8 M780.9,423.3c1.8-2.5,2.7-5.5,3.1-8.5
		C782.5,417.5,781.2,420.3,780.9,423.3z"/>
	<path d="M622.4,246.5c8.8-1.6,19.9,2.4,22.6,11.7c1.1,6.2-1.1,13.9-7.3,16.5c-8.6,3.7-20.1,1.2-25.4-6.8
		C607.5,259.8,612.5,247.4,622.4,246.5 M624.3,250.2C624.8,250.7,624.8,250.7,624.3,250.2 M625.6,249.7c1.2,1.4,2.4,2.7,3.6,4
		c1.8-0.7,3.5-1.4,5.3-2.2C631.7,250.2,628.7,249.7,625.6,249.7 M614.8,265.2c4.1,7.1,14.2,9.5,21.5,6.1c4-1.7,5.3-6.3,5.5-10.3
		c0.2-2.7-1.8-4.9-3.2-7c-1,1.7-2,3.4-3.2,5c0.8,1.9,0.9,3.9,0.7,6c-3.2,1.3-6-0.9-8.3-2.8c-3,1.1-6.8,1.9-9.1-1
		c1-1.6,2-3.2,3.3-4.7c-0.6-1.9-1.1-3.9-1.6-5.8C614.9,252.9,612.7,259.9,614.8,265.2z"/>
	<path d="M646.5,286.6c5.6-1.1,13.1,1.4,14.7,7.5c0.5,4.7-1.6,9.3-2.1,13.9c-0.6,2.9-0.1,6.4-2.6,8.5c-4.3,3.7-10.9,3.3-15.7,0.7
		c-3.1-1.7-6-5.3-4.9-9c1.5-4.9,2.5-9.9,3.5-14.9C639.9,289.7,643,287.1,646.5,286.6 M646.3,290.2c-1.8,0.5-4,2.4-3.1,4.4
		c2,4.1,7.4,5.4,11.5,4.2c2-0.5,4-3.2,2.5-5C655,290.4,650.1,289.1,646.3,290.2 M641.8,299.7c-0.8,3.7-2,7.4-2.1,11.2
		c2.4,4.7,9.3,6,13.7,3.5c2.1-3.6,2-8,3-12C651.3,303.4,646.2,302.4,641.8,299.7z"/>
	<path d="M604.3,319.3c8.2-0.3,17.9,4,19.8,12.7c0.6,5.9-1.4,13.1-7.3,15.7c-8.6,3.9-20.4,1.4-25.7-6.8c-2.9-4.4-1.8-10.1,0.2-14.6
		C593.8,321.6,599.3,319.5,604.3,319.3 M602.8,322.9c1.9,1.2,3.6,2.6,5.5,3.7c1.8-0.2,3.5-1.2,5.2-1.9
		C610.1,323.3,606.4,322.7,602.8,322.9 M593.4,337.6c3.2,7.2,12.7,9.8,19.8,7.7c7.5-1.8,9.9-12.8,4.3-17.8c-1,1.6-2.1,3.1-3.2,4.6
		c0.6,1.8,0.9,3.7,0.8,5.6c-0.6,0.3-1.8,0.8-2.4,1.1c-2.2-0.9-4.3-2.1-6.1-3.6c-2.9,1.1-6.2,1.8-8.8-0.4c0.7-2,1.7-3.8,2.5-5.7
		c-0.1-1.8-0.5-3.6-0.9-5.4C594.2,325.9,591.7,332.4,593.4,337.6z"/>
	<path d="M449.3,350.2c6.6-1.8,14.1-0.4,19.3,4.1c3.3,2.8,5.3,7.7,3.5,11.9c-1.9,4.3-6.7,6.4-11.1,6.7c-7.8,0.6-17.5-3-19.6-11.3
		C440,356.3,444.4,351.5,449.3,350.2 M444.5,361.1c4.2-0.7,8.6-1.7,12.9-0.6c4.1,0.8,7.5,3.2,10.8,5.6c0.5-1.9,1.5-3.9,0.4-5.8
		c-2.8-5.6-9.8-7.8-15.6-7.3C448.8,353.4,444.4,356.4,444.5,361.1 M450.8,367.3c2.9,1.6,6.1,2.2,9.4,2.4
		C457.3,368.1,454.1,367.5,450.8,367.3z"/>
	<path d="M250.4,409.4c9.1-2.5,21,1.4,24.1,11c1.2,6-0.7,13.6-6.6,16.5c-7.7,3.9-17.8,2.2-24-3.8
		C236.5,426.1,240.3,411.5,250.4,409.4 M252.1,412.1c2.5,0.9,4.8,2.4,7.1,3.7c1.7,0.2,3.2-1.2,4.8-1.8
		C260.3,412.3,256.1,412.2,252.1,412.1 M243.8,425.9c1.8,6,8.3,9.1,14.2,9.5c5.5,0.5,12.3-2.4,13-8.6c1.3-3.6-0.2-7.2-2.5-10
		c-1.1,1.5-2.2,3.1-3.4,4.6c0.4,1.9,1.6,4.3,0.3,6.1c-3,1.5-5.7-1-7.7-2.8c-2.7,0.9-5.5,1.2-8.3,0.8c-0.6-2.5,0.3-4.8,2.1-6.5
		c-0.6-1.9-1-3.8-1.4-5.6C245,415.1,243.1,421,243.8,425.9z"/>
	<path d="M359.4,425.5c8.9-2.5,20.5,0.8,24.2,9.9c2,6.5-0.5,15.2-7.3,17.9c-7.6,3.2-17.3,1.4-23.1-4.5
		C346.2,441.9,349.6,427.8,359.4,425.5 M362.9,428c1.9,1.2,3.7,2.5,5.4,3.9c2.2-0.6,4.5-1.1,6.7-1.5
		C371.1,428.9,367.1,428.1,362.9,428 M355.7,446.3c4.5,4.6,11.8,6.1,17.9,4.3c7.4-2,9.4-12.6,4.2-17.9c-1.1,1.5-2.2,3.1-3.3,4.6
		c0.6,1.9,0.8,4,0.9,6c-3.3,1.4-6.4-0.4-8.7-2.7c-2.9,1-6.3,1.8-8.9-0.5c0.9-1.8,1.8-3.5,2.6-5.2c0-2-0.6-3.9-0.9-5.9
		C353.2,431.7,350.6,441.2,355.7,446.3z"/>
	<path d="M309.4,434.3c5.5-2,12.4-0.3,15.8,4.6c1.8,2.6,0.9,5.8,0.3,8.6c-0.9,4-1.6,8.1-2.1,12.1c-0.3,3.7-4,6-7.4,6.5
		c-5.3,0.8-11.5-1-14.5-5.7c-1.2-1.8-1.3-4.2-0.5-6.2c1.6-4.6,2.3-9.3,3.3-14C304.8,437.5,306.7,435.1,309.4,434.3 M311.4,437.3
		c-1.9,0.4-4.1,2.2-3.2,4.4c1.9,4.2,7.6,5.6,11.6,4.2c2-0.5,3.8-3.2,2.3-4.9C319.8,437.5,315.2,436.4,311.4,437.3 M304.5,457.2
		c-0.2,1.4,1,2.4,1.9,3.3c3.4,2.7,8.3,2.8,12.2,1.1c1.2-4,2-8,2.7-12.1c-5.1,1.1-10.2-0.1-14.6-2.7
		C305.9,450.2,304.9,453.7,304.5,457.2z"/>
	<path d="M109.5,451.4c2.5-1.4,5.7-3.2,8.2-1C175.4,500.9,246.2,535.1,320,555c36.3,9.7,73.5,15.7,110.9,18.2c3.4,0.1,4.2,3.8,4,6.6
		c-1.5,1-3,2.2-4.9,2c-44.4,1.4-89-2.2-132.2-12.6c-30.8-7.3-60.7-18.4-88.4-33.7c-37.8-20.8-72-48.2-100.3-80.7
		C109.3,453.6,109.4,452.5,109.5,451.4 M115.8,453.8c0.2,1.7,0.2,3.6,1.6,4.8c34.7,37.7,77.2,68.5,124.4,88.5
		c39.8,16.9,82.7,25.8,125.7,29.5c21,1.6,42.2,2.7,63.3,1.2c-1.1-1.3-2.6-1.5-4.2-1.6c-23.4-1.6-46.7-4.7-69.7-9.2
		c-74.6-14.7-147-43.7-209-88.1C136.8,471.2,126.5,462.2,115.8,453.8z"/>
</g>
<g id="_x23_0066ccff">
	<path class="st0" d="M197.3,192.4c5.7-1.6,12.2-0.4,16.8,3.5c2.4,2,4.1,5.6,2.5,8.6c-1.8,2.9-5.3,4.2-8.5,4.3
		c-6.2,0.7-13.5-2-16.1-8C190.5,197,193.8,193.3,197.3,192.4z"/>
	<path class="st0" d="M190,205.3c3,2.9,6.6,5,10.3,6.8c-3.3,1.8-6.7,3.3-10.3,4.4C188.2,212.9,189.1,209,190,205.3z"/>
</g>
</svg>
