<?xml version="1.0" encoding="utf-8"?>
<!-- Generator: Adobe Illustrator 21.1.0, SVG Export Plug-In . SVG Version: 6.00 Build 0)  -->
<svg version="1.1" id="Laag_1" xmlns="http://www.w3.org/2000/svg" xmlns:xlink="http://www.w3.org/1999/xlink" x="0px" y="0px"
	 viewBox="0 0 736.8 898.9" style="enable-background:new 0 0 736.8 898.9;" xml:space="preserve">
<style type="text/css">
	.st0{opacity:0.9;stroke:#000000;stroke-width:2;stroke-miterlimit:10;enable-background:new    ;}
</style>
<path class="st0" d="M353.8,1h29.8c5.6,0.6,11.1,0.9,16.7,1.3c48.5,4.2,96,18,139.1,40.7c60.4,31.7,111.6,80.5,146,139.2
	c36.8,62.3,54.2,135.6,49.7,207.7c-4,70.7-29.2,140.1-71.8,196.8c-12.5,16.9-26.7,32.5-41.7,47.3c19.1,41.3,30.4,86.4,31.3,132
	c0.3,12.9-4.3,25.5-11.2,36.2c-9.7,15-23.4,27-38.2,36.9c-23.3,15.6-49.4,26.5-76,35c-35.8,11.2-73,17.9-110.4,21
	c-15.1,1.6-30.4,1.5-45.7,2.8h-10.8c-7.9-0.8-15.8-0.9-23.7-1.3c-39.1-2.1-78.2-7.7-115.8-19.1c-27.9-8.7-55.5-20.2-78.6-38.5
	c-14.2-11.3-26.8-26-31.7-44c-2.7-9.1-2-18.7-2.1-28c0.2-40.3,8.8-80.4,23.2-118c-50.1-42-88.7-97.5-110.3-159.1
	C-4.4,416-6,333.6,17.6,258.8c15.9-51.5,43.7-99.3,80-139.1c16.4-17.4,34-33.6,53.4-47.7C205.5,31.8,271.5,7.3,339.1,2.1
	C344,1.8,348.9,1.4,353.8,1 M227.5,31.4c-51.4,21.5-97.9,54.8-134.2,97.1c-34.4,40.4-56,91.1-63.5,143.5
	c-5.9,40.7-3.6,82.5,5.5,122.6c18.4,81,64.3,154.9,126.1,210.1c53.3,47.6,118.9,81.8,189.2,95.8c46.5,9.2,94.8,9.4,141-1.4
	c33.3-7.8,65.5-21.2,94-40.1c28.1-18.5,52.3-42.7,72.8-69.3c44.2-57.2,70.4-127.7,74.6-199.7c3-47.4-3.6-95.3-18.9-140.3
	c-1.9-5.3-3.5-10.8-6.2-15.8c3,9.8,6.4,19.4,8.8,29.4c7.1,28,10.1,57.1,8.5,86c-2.1,38-12.5,75.6-31.3,108.7
	c-17.1,30.2-41.4,56.4-70.2,75.8c-34.8,23.6-76.1,37.3-118.1,40.7c-43.5,3.6-87.5-3.2-128.3-18.3c-62.6-23.1-117.7-65.4-157.3-118.9
	c-38.5-52-62.6-115.3-63.9-180.3c-0.9-36,5.6-72.2,19.7-105.3c15.6-36.9,41.2-69.8,73.4-93.7c34.2-25.7,75.6-41.2,118.1-46.1
	c37.1-4.5,75.1-0.9,111.2,9.1c4.7,1.3,9.2,3.1,14.1,3.8C407.4-6.2,310.9-3.7,227.5,31.4 M382.8,12.7c-35.1,2.1-70.1,11.2-101.3,27.5
	c-34.1,17.8-63.6,44.3-84.6,76.6c-22.2,34-34.9,73.8-38,114.2c-3.2,42.2,3.8,84.9,18.7,124.4c17.8,47.2,46.8,90,83.2,124.9
	c46.9,45,106.6,76.9,170.8,88.4c45.2,8.1,92.6,5.6,136.1-9.5c33.4-11.6,64.4-30.7,89.1-56c25-25.4,43.7-56.8,54.5-90.7
	c13.9-43.2,15.3-89.9,6.4-134.3c-6.9-34.6-20-67.8-37.9-98.2C646.3,122.8,596,75.6,536.7,45.9C489.2,22.1,435.8,9.6,382.8,12.7
	 M46.8,195c-17.1,31.8-29.5,66.2-36.5,101.7c-13.7,68.1-7.2,140,18.2,204.6c12.6,32.2,29.9,62.5,51.2,89.9
	c42.6,55,101.1,97.4,166.8,120.4c18.1,6.8,37.4,10,56.5,12.8c49.2,6.5,99.2,5.1,148-3.8c16.4-3.2,32.7-6.9,48.6-12.4
	c21.5-8.5,42.7-18.5,62.1-31.2c-3.6,1.2-7,3.1-10.4,4.8c-27.4,13.1-56.9,21.8-86.9,26.1c-42.3,6-85.5,3.7-127.1-5.9
	c-66.3-15.2-128.1-48.4-178.6-93.6C96.7,552.9,50.5,479.1,31.8,398C16.4,331.8,20,260.3,47.2,197.5c1.8-4.2,3.9-8.3,5.5-12.6
	C50.4,188.1,48.7,191.6,46.8,195 M604.4,649.8c-4.6,8.1-10,15.8-16.8,22.2c-14.7,14.5-32.9,25-51.7,33.5
	c-32.8,14.6-68.2,23.1-103.7,28.1c-50.3,6.7-101.7,6.2-151.7-2.7c-32.7-6.1-65.5-15.6-94.1-33c-13.9-8.6-26.8-19.5-35.4-33.7
	c-5-5-11.1-8.9-16.6-13.3c-15.8,39.7-23.6,82.5-23,125.2c-0.2,8.9,1.2,17.9,4.8,26.1c7.9,18.4,23.2,32.4,39.7,43.3
	c16.3,10.8,34.2,18.9,52.7,25.4c41.2,14.4,84.7,21.1,128.2,23.5c45.4,2.2,91-0.6,135.7-8.8c31.6-6,63-14.7,92.4-27.7
	c23.9-10.8,47.3-24.3,65.3-43.8c10.9-11.9,19.6-26.7,20.9-43.1c0.5-10-0.5-20.1-1.4-30.1c-3.9-36.3-13.7-72.2-29.5-105.2
	C614.8,640.6,609.1,644.7,604.4,649.8 M567.7,676.3c-7.5,6-15.7,11.3-24.2,15.9c-32.3,17.3-68.3,26.9-104.3,32.7
	c-50.7,7.8-102.6,7.9-153.1-0.9c-7-1.7-14.2-1.4-21-3.9c-26.8-7.3-53.9-16.2-76.9-32.2c-11.2-6.6-22.2-13.5-32.9-20.9
	c13.8,19.4,34.9,32,56.5,41.5c37.1,15.9,77.3,23.2,117.5,26.2c49,3.3,98.6-0.2,146.5-11.5c32.1-7.8,64-19,91.5-37.5
	c12.2-8.5,24.2-18.4,31.7-31.5C588.7,661.7,578.4,669.4,567.7,676.3z"/>
<path class="st0" d="M379.6,18.3c51.4-4.1,103.3,6.8,149.7,28.9c60,28.5,111.2,75.2,145.1,132.2c20,33.7,34.1,71,40.2,109.8
	c6.1,39,4.1,79.4-7.6,117.1c-10.2,33.4-28.2,64.4-52.5,89.6c-23.4,24.4-52.6,43.2-84.2,54.9c-44.1,16.4-92.5,19.2-138.6,10.9
	c-66.8-12-128.7-46.9-175.6-95.6c-39.1-40.4-68.2-90.5-82-145c-11.4-44.9-12.2-92.9,0.4-137.6c9.7-35,27.8-67.7,52.9-94.2
	c24.9-26.6,56.6-46.6,90.9-58.3C338,24.1,358.7,20,379.6,18.3 M390.8,19.8c-43.8,1.6-87.4,14.6-124,38.9
	c-31.7,21-57.7,50.5-74.6,84.5c-20,39.9-27.6,85.5-24,129.8c5,61.5,30.5,120.6,69.2,168.4c41.7,51.8,99,91.4,162.9,110.3
	c41.6,12.3,86,15.8,128.8,7.8c39-7.1,76.3-23.9,106.5-49.5c26.6-22.3,47.7-51.1,61.1-83.1c17-40.2,22.1-85,16.8-128.2
	c-4.7-38.5-17.4-75.8-36.2-109.6c-32.1-58-81.9-106-141-136.1C491.6,30.4,441.3,17.9,390.8,19.8z"/>
<path class="st0" d="M344.6,93.5c8.1-2.2,14.7,7.9,11.1,14.9c-2.2,5.4-10.1,6.2-13.9,2C336.7,105.9,337.4,95.5,344.6,93.5
	 M346.4,95.5c-3.1,0.2-4.8,2.9-5.8,5.5c4.2,2.1,7.3,5.7,8.7,10.2c1.5-1.1,3.5-1.9,4.3-3.7C356.2,102.4,352.2,95.2,346.4,95.5
	 M341,103.9c0.6,2.9,2.4,5.6,5.4,6.3C345.6,107.4,343.6,105.2,341,103.9z"/>
<path class="st0" d="M405.7,177.7c42.2-5.9,86.3,10.8,115.2,41.9c25.4,26.9,39.6,64.6,36.4,101.6c-1.7,18.8-8.1,37.3-19,52.7
	c-6.2,8.1-11.7,16.9-19.3,23.8c-15.8,15.1-36.9,24.4-58.6,26.9c-31.8,3.9-64.5-5.8-90.6-24c-24-16.6-43.1-40.3-53.6-67.6
	c-9.1-23.6-11.4-50-4.8-74.5c5.8-21.8,19.2-41.5,37.6-54.6C364.8,189.8,384.8,180.7,405.7,177.7 M408.7,179.7
	c-22.5,2.8-44.2,13.4-59.4,30.4c-14.6,16-22.9,37.3-24.2,58.8c-1.7,25.8,5.9,51.8,19.5,73.6c20.2,32.4,54.2,56.6,92,63.2
	c20.4,3.8,42.1,2,61.3-6.2c16.4-6.9,30.8-18.5,40.8-33.3c11-16.2,16.5-35.8,16.7-55.3c-0.1-32.9-13.3-65.4-35.7-89.4
	C492,191.5,449.7,174.8,408.7,179.7 M318.6,284.1c1.2,32.3,15.7,63.4,38,86.6c23.3,24.6,55.7,41.1,89.7,43.3
	c22.3,1.5,45.3-3.8,64.1-16.1c4.4-2.9,8.8-5.9,12.2-10c-2.7,1.6-5.2,3.7-7.8,5.4c-17.7,11.7-39.3,17.2-60.4,16.6
	c-17.2-0.5-34.3-4.7-50-11.9c-41.2-18.8-72.8-58.1-80.1-102.9c-3.8-23.4-0.5-48.2,11.1-69c2.6-4.9,6-9.2,9-13.9
	C326.2,231.2,317.6,258.1,318.6,284.1 M321.7,238.6c-9,16.9-12.7,36.4-11.6,55.4c1.6,28.6,13.6,56.2,31.9,78.1
	c22.4,26.9,54.9,45.8,89.9,50.1c22.1,2.7,45.4-0.8,65.1-11.5c4.8-2.7,9.9-5.4,13.4-9.8c-5,2.3-9.8,5.3-14.9,7.3
	c-26.8,11.2-57.9,10.4-85,0.5c-43.3-15.5-78.3-52.7-90.1-97.1c-6.2-23-5.8-48,2.9-70.4c1.7-4.6,4.2-8.9,6-13.5
	C325.8,230.5,323.8,234.7,321.7,238.6z"/>
<path class="st0" d="M564.8,652.2c3-1.3,6.4-0.1,9,1.4c1.1,1.8-0.6,3.6-1.4,5.2c-2.6,4.7-6.7,8.3-11.6,10.5
	c-26,12.2-54,20.7-82.5,24.9c-2.1,0.4-6.6,0.2-5.6-3c2.1-4.2,4.6-8.6,9-10.8c5.8-3,11.2-7.2,17.8-8.2
	C522.1,668.2,543.9,661.2,564.8,652.2 M565.1,654.6c-19.8,8.6-40.6,15.2-61.8,19.3c-8.1,0.8-14.8,5.5-21.7,9.4
	c-3.2,2-4.8,5.6-6.5,8.8c5.1-0.1,10.2-1.2,15.2-2.2c21.5-4.2,42.6-10.7,62.6-19.5c4.5-2,9.2-3.8,13-7c2.6-2.2,4.2-5.2,5.6-8.3
	C569.5,654.3,567.2,653.4,565.1,654.6z"/>
</svg>
