<?xml version="1.0" encoding="utf-8"?>
<!-- Generator: Adobe Illustrator 21.1.0, SVG Export Plug-In . SVG Version: 6.00 Build 0)  -->
<svg version="1.1" id="Laag_1" xmlns="http://www.w3.org/2000/svg" xmlns:xlink="http://www.w3.org/1999/xlink" x="0px" y="0px"
	 viewBox="0 0 735 897" style="enable-background:new 0 0 735 897;" xml:space="preserve">
<style type="text/css">
	.st0{opacity:0.9;enable-background:new    ;}
</style>
<path class="st0" d="M352.6,0h29.8c5.6,0.6,11.1,0.9,16.7,1.3C447.5,5.5,495,19.3,538,42c60.3,31.7,111.4,80.5,145.8,139.2
	c36.7,62.3,54.1,135.6,49.6,207.7c-4,70.7-29.2,140.1-71.7,196.8c-12.5,16.9-26.7,32.5-41.6,47.3c19.1,41.3,30.4,86.4,31.3,132
	c0.3,12.9-4.3,25.5-11.2,36.2c-9.7,15-23.4,27-38.1,36.9c-23.3,15.6-49.3,26.5-75.9,35c-35.8,11.2-72.9,17.9-110.2,21
	c-15.1,1.6-30.4,1.5-45.6,2.8h-10.8c-7.9-0.8-15.8-0.9-23.7-1.3c-39-2.1-78.1-7.7-115.6-19.1c-27.9-8.7-55.4-20.2-78.5-38.5
	C127.6,826.7,115,812,110.1,794c-2.7-9.1-2-18.7-2.1-28c0.2-40.3,8.8-80.4,23.2-118c-50-42-88.6-97.5-110.1-159.1
	C-5.1,415-6.7,332.6,16.8,257.8c15.9-51.5,43.6-99.3,79.9-139.1c16.4-17.4,34-33.6,53.3-47.7C204.5,30.8,270.4,6.3,337.9,1.1
	C342.8,0.8,347.7,0.4,352.6,0 M226.4,30.4c-51.3,21.5-97.8,54.8-134,97.1C58,167.9,36.5,218.6,29,271c-5.9,40.7-3.6,82.5,5.5,122.6
	c18.4,81,64.2,154.9,125.9,210.1c53.2,47.6,118.7,81.8,188.9,95.8c46.4,9.2,94.7,9.4,140.8-1.4c33.3-7.8,65.4-21.2,93.9-40.1
	c28.1-18.5,52.2-42.7,72.7-69.3C700.8,531.5,727,461,731.2,389c3-47.4-3.6-95.3-18.9-140.3c-1.9-5.3-3.5-10.8-6.2-15.8
	c3,9.8,6.4,19.4,8.8,29.4c7.1,28,10.1,57.1,8.5,86c-2.1,38-12.5,75.6-31.3,108.7c-17.1,30.2-41.3,56.4-70.1,75.8
	c-34.8,23.6-76,37.3-117.9,40.7c-43.4,3.6-87.4-3.2-128.1-18.3c-62.5-23.1-117.5-65.4-157.1-118.9c-38.4-52-62.5-115.3-63.8-180.3
	c-0.9-36,5.6-72.2,19.7-105.3c15.6-36.9,41.1-69.8,73.3-93.7c34.2-25.7,75.5-41.2,117.9-46.1C403,6.4,441,10,477,20
	c4.7,1.3,9.2,3.1,14.1,3.8C406.1-7.2,309.7-4.7,226.4,30.4 M381.5,11.7c-35.1,2.1-70,11.2-101.2,27.5
	c-34.1,17.8-63.5,44.3-84.5,76.6c-22.2,34-34.9,73.8-37.9,114.2c-3.2,42.2,3.8,84.9,18.7,124.4c17.8,47.2,46.7,90,83.1,124.9
	c46.8,45,106.5,76.9,170.6,88.4c45.1,8.1,92.5,5.6,135.9-9.5c33.4-11.6,64.3-30.7,89-56c25-25.4,43.6-56.8,54.4-90.7
	c13.9-43.2,15.3-89.9,6.4-134.3c-6.9-34.6-20-67.8-37.8-98.2c-33.5-57.2-83.8-104.4-143-134.1C487.8,21.1,434.5,8.6,381.5,11.7
	 M46,194c-17.1,31.8-29.5,66.2-36.5,101.7c-13.7,68.1-7.2,140,18.2,204.6c12.6,32.2,29.9,62.5,51.1,89.9
	c42.5,55,101,97.4,166.6,120.4c18.1,6.8,37.3,10,56.4,12.8c49.1,6.5,99.1,5.1,147.8-3.8c16.4-3.2,32.7-6.9,48.5-12.4
	c21.5-8.5,42.6-18.5,62-31.2c-3.6,1.2-7,3.1-10.4,4.8c-27.4,13.1-56.8,21.8-86.8,26.1c-42.2,6-85.4,3.7-126.9-5.9
	c-66.2-15.2-127.9-48.4-178.4-93.6C95.8,551.9,49.7,478.1,31,397c-15.4-66.2-11.8-137.7,15.4-200.5c1.8-4.2,3.9-8.3,5.5-12.6
	C49.6,187.1,47.9,190.6,46,194 M602.8,648.8c-4.6,8.1-10,15.8-16.8,22.2c-14.7,14.5-32.9,25-51.6,33.5
	c-32.8,14.6-68.1,23.1-103.6,28.1c-50.2,6.7-101.6,6.2-151.5-2.7c-32.7-6.1-65.4-15.6-94-33c-13.9-8.6-26.8-19.5-35.4-33.7
	c-5-5-11.1-8.9-16.6-13.3c-15.8,39.7-23.6,82.5-23,125.2c-0.2,8.9,1.2,17.9,4.8,26.1c7.9,18.4,23.2,32.4,39.6,43.3
	c16.3,10.8,34.2,18.9,52.6,25.4c41.1,14.4,84.6,21.1,128,23.5c45.3,2.2,90.9-0.6,135.5-8.8c31.6-6,62.9-14.7,92.3-27.7
	c23.9-10.8,47.2-24.3,65.2-43.8c10.9-11.9,19.6-26.7,20.9-43.1c0.5-10-0.5-20.1-1.4-30.1c-3.9-36.3-13.7-72.2-29.5-105.2
	C613.2,639.6,607.5,643.7,602.8,648.8 M566.2,675.3c-7.5,6-15.7,11.3-24.2,15.9c-32.3,17.3-68.2,26.9-104.2,32.7
	c-50.6,7.8-102.5,7.9-152.9-0.9c-7-1.7-14.2-1.4-21-3.9c-26.8-7.3-53.8-16.2-76.8-32.2c-11.2-6.6-22.2-13.5-32.9-20.9
	c13.8,19.4,34.9,32,56.4,41.5c37,15.9,77.2,23.2,117.3,26.2c48.9,3.3,98.5-0.2,146.3-11.5c32.1-7.8,63.9-19,91.4-37.5
	c12.2-8.5,24.2-18.4,31.7-31.5C587.1,660.7,576.9,668.4,566.2,675.3z"/>
<path class="st0" d="M378.3,17.3c51.3-4.1,103.2,6.8,149.5,28.9c59.9,28.5,111,75.2,144.9,132.2c20,33.7,34.1,71,40.1,109.8
	c6.1,39,4.1,79.4-7.6,117.1c-10.2,33.4-28.2,64.4-52.4,89.6c-23.4,24.4-52.5,43.2-84.1,54.9c-44,16.4-92.4,19.2-138.4,10.9
	c-66.7-12-128.5-46.9-175.4-95.6c-39-40.4-68.1-90.5-81.9-145c-11.4-44.9-12.2-92.9,0.4-137.6c9.7-35,27.8-67.7,52.8-94.2
	C251.1,61.7,282.7,41.7,317,30C336.8,23.1,357.5,19,378.3,17.3 M389.5,18.8c-43.7,1.6-87.3,14.6-123.8,38.9
	c-31.7,21-57.6,50.5-74.5,84.5c-20,39.9-27.6,85.5-24,129.8c5,61.5,30.5,120.6,69.1,168.4c41.6,51.8,98.9,91.4,162.7,110.3
	c41.5,12.3,85.9,15.8,128.6,7.8c38.9-7.1,76.2-23.9,106.4-49.5c26.6-22.3,47.6-51.1,61-83.1c17-40.2,22.1-85,16.8-128.2
	c-4.7-38.5-17.4-75.8-36.2-109.6c-32.1-58-81.8-106-140.8-136.1C490.2,29.4,439.9,16.9,389.5,18.8z"/>
<path class="st0" d="M343.4,92.5c8.1-2.2,14.7,7.9,11.1,14.9c-2.2,5.4-10.1,6.2-13.9,2C335.5,104.9,336.2,94.5,343.4,92.5
	 M345.2,94.5c-3.1,0.2-4.8,2.9-5.8,5.5c4.2,2.1,7.3,5.7,8.7,10.2c1.5-1.1,3.5-1.9,4.3-3.7C355,101.4,351,94.2,345.2,94.5
	 M339.8,102.9c0.6,2.9,2.4,5.6,5.4,6.3C344.4,106.4,342.4,104.2,339.8,102.9z"/>
<path class="st0" d="M404.4,176.7c42.1-5.9,86.2,10.8,115,41.9c25.4,26.9,39.5,64.6,36.4,101.6c-1.7,18.8-8.1,37.3-19,52.7
	c-6.2,8.1-11.7,16.9-19.3,23.8c-15.8,15.1-36.8,24.4-58.5,26.9c-31.8,3.9-64.4-5.8-90.5-24c-24-16.6-43-40.3-53.5-67.6
	c-9.1-23.6-11.4-50-4.8-74.5c5.8-21.8,19.2-41.5,37.5-54.6C363.6,188.8,383.5,179.7,404.4,176.7 M407.4,178.7
	c-22.5,2.8-44.1,13.4-59.3,30.4c-14.6,16-22.9,37.3-24.2,58.8c-1.7,25.8,5.9,51.8,19.5,73.6c20.2,32.4,54.1,56.6,91.9,63.2
	c20.4,3.8,42,2,61.2-6.2c16.4-6.9,30.8-18.5,40.7-33.3c11-16.2,16.5-35.8,16.7-55.3c-0.1-32.9-13.3-65.4-35.7-89.4
	C490.6,190.5,448.3,173.8,407.4,178.7 M317.4,283.1c1.2,32.3,15.7,63.4,37.9,86.6c23.3,24.6,55.6,41.1,89.6,43.3
	c22.3,1.5,45.2-3.8,64-16.1c4.4-2.9,8.8-5.9,12.2-10c-2.7,1.6-5.2,3.7-7.8,5.4c-17.7,11.7-39.2,17.2-60.3,16.6
	c-17.2-0.5-34.3-4.7-49.9-11.9c-41.1-18.8-72.7-58.1-80-102.9c-3.8-23.4-0.5-48.2,11.1-69c2.6-4.9,6-9.2,9-13.9
	C325,230.2,316.4,257.1,317.4,283.1 M320.5,237.6c-9,16.9-12.7,36.4-11.6,55.4c1.6,28.6,13.6,56.2,31.9,78.1
	c22.4,26.9,54.8,45.8,89.8,50.1c22.1,2.7,45.3-0.8,65-11.5c4.8-2.7,9.9-5.4,13.4-9.8c-5,2.3-9.8,5.3-14.9,7.3
	c-26.8,11.2-57.8,10.4-84.9,0.5c-43.2-15.5-78.2-52.7-90-97.1c-6.2-23-5.8-48,2.9-70.4c1.7-4.6,4.2-8.9,6-13.5
	C324.6,229.5,322.6,233.7,320.5,237.6z"/>
<path class="st0" d="M563.3,651.2c3-1.3,6.4-0.1,9,1.4c1.1,1.8-0.6,3.6-1.4,5.2c-2.6,4.7-6.7,8.3-11.6,10.5
	c-26,12.2-53.9,20.7-82.4,24.9c-2.1,0.4-6.6,0.2-5.6-3c2.1-4.2,4.6-8.6,9-10.8c5.8-3,11.2-7.2,17.8-8.2
	C520.6,667.2,542.4,660.2,563.3,651.2 M563.6,653.6c-19.8,8.6-40.5,15.2-61.7,19.3c-8.1,0.8-14.8,5.5-21.7,9.4
	c-3.2,2-4.8,5.6-6.5,8.8c5.1-0.1,10.2-1.2,15.2-2.2c21.5-4.2,42.5-10.7,62.5-19.5c4.5-2,9.2-3.8,13-7c2.6-2.2,4.2-5.2,5.6-8.3
	C568,653.3,565.7,652.4,563.6,653.6z"/>
</svg>
