<?xml version="1.0" encoding="utf-8"?>
<!-- Generator: Adobe Illustrator 21.1.0, SVG Export Plug-In . SVG Version: 6.00 Build 0)  -->
<svg version="1.1" id="Laag_1" xmlns="http://www.w3.org/2000/svg" xmlns:xlink="http://www.w3.org/1999/xlink" x="0px" y="0px"
	 viewBox="0 0 826 737" style="enable-background:new 0 0 826 737;" xml:space="preserve">
<style type="text/css">
	.st0{opacity:0.8;enable-background:new    ;}
	.st1{fill:#0067CC;}
</style>
<g id="_x23_000000cb">
	<path class="st0" d="M341.5,1.2c25.7-1.2,51.5-0.8,77,2.3c4.6,0.6,8.4,3.4,12.3,5.6c5.6,3.2,9,9.1,14.4,12.6
		c12.4,8.6,28.3,12.9,43.3,9.7c5.8-1.1,10.5-5.4,16.5-5.9c4.6-0.6,9.5-1.2,14,0.4c26.4,9,52.3,19.9,76.9,33.1
		c2.8,1.4,5.4,3.3,8.5,4.1c2.4,0.2,5.1-0.4,6.9-2c2.8-4.3,3.3-9.7,6.2-13.9c5.2-1.8,11.7-5.4,16.7-1.5c11.5,7.4,22.7,15.2,33.4,23.6
		c4.1,3.8,10.1,1.1,14.9,3c9.3,3.2,15.2,11.6,21,19.1c11.8,15.2,23.6,30.4,35.4,45.6c5.5,7.1,9.6,15.2,12.4,23.7
		c1.7,5.5,5.1,10.3,7.6,15.4c6.6,13.4,12.1,27.3,16.2,41.7c4.3,15.4,8.9,30.8,10.3,46.8c0.3,2.3,1.6,4.2,2.7,6.2
		c8,13.2,14.8,27.2,20.5,41.5c13.9,34.8,20.4,73.1,15.5,110.4c-2.3,18.7-7.8,36.8-14.9,54.2C796.2,510.5,779,542.1,758,571
		c-42.5,58.9-100.7,106.3-167,136.1c-41.5,19.6-87.5,28-133.1,29.4c-12.7,0.9-25.4-0.2-38-0.5c-39.9-2.3-79.4-9.7-117.5-21.4
		C232.3,693,166.1,657,112.8,606.2C89.3,583.5,68.3,557.9,53,529c-30-53.9-47.9-114.4-51.9-176c-0.2-5.6-0.6-11.2-1-16.7v-21.7
		c0.4-5.2,0.7-10.5,1-15.7c2.1-34.9,8.9-69.3,19.4-102.6c5.8-17.6,13.7-34.5,24.2-49.8c9.7-14.6,21.7-27.5,34.7-39.3
		c29.3-25.9,64.6-44.3,101.6-56.4c4.9-1.7,10.1-2.7,14.5-5.4C238.6,17.1,290.4,4.4,341.5,1.2 M271.8,13.7
		c-37.9,10.1-74.6,27.5-103.3,54.8c-5.8,6.2-11.9,12.1-17.1,18.9c-10.3,13.2-18.5,28.2-24,44c-0.4,1.6-1.4,3.3-0.6,4.9
		c1.8,3.9,3.6,8,7,10.9c4.6,3.9,8.9,8.2,11.4,13.7c1.7,3.4,2.1,7.3,2.6,11c1.6,0.7,3.4,1.2,4.5,2.7c3.3,4,6.4,8.3,9.7,12.4
		c7.8-6.7,17.7-10.2,27.7-12.3c137.3-36.8,274.7-73.5,412-110.4c-13.4-8.1-27.7-14.6-42-21c-14.5-6.2-29.2-12-44.3-16.7
		c-6.2-0.3-12.9,0-18.4,3.4c-9.9,5.1-21.8,4.8-32.4,2.3c-10.2-2.6-20.2-7.6-27.5-15.5c-4.5-5.5-10.9-9-17.4-11.5
		C370.5-0.8,319.9,1.1,271.8,13.7 M618.9,48.2c3,3.6,5.5,7.7,8.8,11c1.9,1.1,4.3,1,6.5,1.6c10.1,1.7,19.3,6.6,27.7,12.3
		c2.2,1.8,5,0.4,7.4-0.1c-10.2-8.3-21.1-15.9-32.1-23.2c-2.4-1.5-4.7-3.4-7.4-4.2C626.1,45.9,622.5,47.3,618.9,48.2 M617.7,49.6
		c-1.5,3.8-3,7.6-4.5,11.4c4.2-0.9,8.5-1.1,12.8-1C623.3,56.4,620.7,52.9,617.7,49.6 M165,58c-39.5,15.2-76.7,38.2-104.6,70.4
		c-17.8,20.5-31.7,44.7-39.1,70.9C11.3,231.9,11.5,267,19,300c8,35.5,24.1,68.7,44.5,98.6c17,24.8,37.1,47.4,59,67.9
		c55.9,51.8,123.3,90.3,194.7,116.2c79.8,28.7,165.8,42.2,250.5,34.1c40.9-4.1,81.5-13.3,119.2-30c31.3-13.8,60.7-32.8,84.3-57.7
		c26.5-27.7,44.8-63.3,50.7-101.3c2.4-14.2,2.6-28.6,1.9-42.9c-2.8-41.6-17.8-81.8-39.6-117.2c-0.8,2.7-1.7,5.4-1.9,8.2
		c0.7,2.6,2.2,5,3.3,7.4c5.9,12,10.8,24.5,14.7,37.3c2.2,5.6-3.7,10.9-1.6,16.5c7.6,26.8,10.4,55.1,6.5,82.8
		c-4.7,34.9-20.2,68.3-43.6,94.6c-7.6,6.7-14.2,14.5-22.1,20.9c-14.4,12.3-30.2,22.9-47,31.6c-1.2-1-2.2-2.2-3.6-3
		c-3.7,0.6-7.3,1.9-10.9,2.9c-0.7,1.9-1.4,3.9-1.8,5.9c0.5,1.8,1.4,3.4,2.2,5c-35,9.5-70.1,18.8-105.1,28.2c-2.4-3-4.5-6.4-7.3-9
		c-4.8,0.7-9.4,2.4-14,3.6c-0.6,1.5-1.1,3-1.7,4.4c-81.2,5.9-163.2-8.3-239-37.2c-6.4-2.8-13.3-4.4-19.7-7.3
		c-34.9-14.8-68.4-32.9-99.7-54.3c-37.1-25.5-71.1-55.7-99-91c-3.2-3.6-5.3-8-8.1-11.9c-15.3-21.1-28.3-44-37.7-68.4
		c-12.3-31.6-18-66.1-14.1-100c1.6-14.4,5.1-28.6,10-42.2C49,174.1,57.5,156,69,140c23.7-33.2,57.6-58.3,94.6-74.9
		c0.9,1.1,1.8,2.1,2.7,3.2c6.5-6.1,13.7-11.5,20.4-17.5C179.2,52.5,172.1,55.4,165,58 M607.4,64.4
		c-138.2,37.1-276.6,73.9-414.8,111.2c19.2,1.1,35.7,12.8,48.6,26.2c13.6,14.4,24.2,31.5,32.6,49.4c15.9,34.3,24.3,72.1,24.1,109.9
		c-0.6,12-1.8,24-4.5,35.7c143.4-38.4,286.7-76.8,430.1-115.2c3.1-12.9,4.7-26.3,4.5-39.6c0.5-22.3-3.2-44.5-9-66
		c-6-21.6-14.6-42.5-26.4-61.6c-9.4-15.1-20.8-29.2-35.1-39.9c-10-7.2-21.9-13.1-34.6-12.7C617.7,61.7,612.5,63,607.4,64.4
		 M82.9,124.9c-16.2,18.4-29.1,40-36.6,63.4c-11.3,33-11.5,69.1-3.5,102.8c8.1,34.7,24.4,67.1,44.8,96.1c2,2.7,3.7,5.8,6.4,7.9
		c2.4-0.3,4.7-1,7.1-1.5c-7.1-10-14.1-20-20.2-30.6C62.1,330.8,49,294.5,47,257c-1.7-30.1,3.8-60.7,17.4-87.6
		c17.4-35.9,47.4-64.5,81.6-84.5c3.9-2.4,8.3-4.1,11.4-7.4c2.5-2.7,4.9-5.3,7.6-7.8c-0.5-0.9-1-1.8-1.5-2.6
		C133.1,80.5,105.1,100,82.9,124.9 M677.9,72.8c6.2,3.2,11.8,7.5,16.3,13c0.5-0.2,1.6-0.7,2.1-0.9C691.4,79.3,685.4,74,677.9,72.8
		 M665.7,75.5c6.5,6,13.2,12,18.8,19c5.7,6.8,10.6,14.2,15.3,21.7c4.8,7.4,10.6,14.1,16,21.1c3.7,4.6,6.9,9.7,11.4,13.6
		c4,3.8,7.4,9.1,6.5,14.9c-1.3,6.9-4.8,13.2-6.1,20.2c0.8,6.4,2.5,12.8,3.3,19.2c1.3-2.2,2.3-4.6,3.9-6.7c3.8-1.9,8.2-2.4,12.4-3.7
		c1,1.1,2,2.2,3.1,3.3c2-19.9-3.7-40.6-15.2-57c-13-17-26.2-33.8-39.3-50.7c-4.8-6.5-10.5-13-18.4-15.6
		C673.4,73.2,669.4,74.4,665.7,75.5 M664.8,77.6c3.8,4.4,8.3,8.1,12.1,12.5c14,16,24.7,34.7,32.9,54.2c15.1,36.6,22.7,76.8,19,116.4
		c-0.5,7-2.5,13.9-3.1,20.9c2.6-4.9,3.1-10.5,4.1-15.9c3.8-23.4,2.2-47.3-2.2-70.4c-4-21.1-10.7-41.7-19.9-61.1
		c-8.3-16.8-18.2-33.1-31.4-46.6C672.7,84.1,669.1,80.3,664.8,77.6 M89.6,133.5c-15.1,18.1-27.3,38.9-33.6,61.7
		c1.8-3.1,3-6.5,4.5-9.8c15.1-32.7,40.5-59.9,70.3-79.6c2.8-1.8,5.6-3.7,7.6-6.4c4.1-5.4,8.8-10.3,12.9-15.6
		C127.9,96.4,106.9,113.4,89.6,133.5 M694.9,86.5c2.5,4.3,5.8,8,8.7,11.9c10.2,13.2,20.6,26.2,30.6,39.5c0.8,0,2.2,0.1,3,0.1
		c-12-16-24.6-31.6-36.8-47.5C699.2,88.4,697.3,87,694.9,86.5 M100,161c-1.9,3.7-3.9,7.4-5.2,11.4c1.8-2.2,3.3-4.5,4.8-6.9
		c6.6-10.2,14.1-19.8,22.7-28.4c3.6-3.4,4.2-8.5,6.1-12.8c3.2-8.6,8.1-16.5,12-24.7C124.5,118.4,111.4,139.3,100,161 M111.4,122.3
		c-24.6,20.7-44.4,47.4-55.3,77.8C53,209.5,49.6,219,49,229c-2.7,25,0.7,50.4,7.6,74.5c9.4,31.8,25.3,61.4,45,88
		c0.6,0.8,1.1,1.7,1.5,2.7c-0.6,3.8-2.1,7.3-2.9,11c2.3-0.3,4.6-0.7,6.8-1.1c22.4,29.6,49.5,55.5,79,78c2.7,1.9,6.2,3.7,9.6,2.6
		c2.9-1.1,4.5-3.9,6.5-6c2.1,1.3,4.2,2.6,6.4,3.8c-6.9-9.9-14.8-19.2-22.1-28.8c-36.6-47.1-73.2-94.1-109.8-141.2
		c-2.4-3-2.7-7-3.5-10.5c-1.1-6.2-2.6-12.3-2.9-18.6c1.3-6.3,4.5-12,6.8-17.9c-6.2-1.9-12.4-4.6-16.9-9.5
		c-4.6-4.8-7.4-12.1-4.9-18.5c1.9-5,2.7-10.6,6.1-14.9c3.5-4.6,9.3-6.3,14.8-7c1.3-6.8,4.1-13.2,6.5-19.7c10.4-27,24-52.7,40.6-76.4
		c2.7-3.9,5.7-7.7,8.2-11.8C124.2,111.7,117.8,117,111.4,122.3 M709.8,134.6c3.2,8.1,6.9,16.1,9.6,24.4c1.6-2,3.2-4.1,4.8-6.2
		C719.5,146.8,715,140.4,709.8,134.6 M77.8,214.8c3.8,0.8,7.7,1.4,11.6,2.2c9.6-25.7,22.8-50.2,40.6-71.2c-1.6-3-3.2-6.1-4.8-9.1
		C103.1,158.2,87.3,185.7,77.8,214.8 M735.9,139.3c12,17.6,18.1,39.5,15.6,60.7c0.6-0.1,1.8-0.2,2.4-0.3c3-21.1-3.2-43.1-15.2-60.5
		C737.9,139.3,736.6,139.3,735.9,139.3 M90.8,217.5c3.6,1.7,7,3.7,10.2,6.2c7.9-10.9,15.2-22.4,25-31.8c5.1-4.9,9.1-10.8,14-15.9
		c1.7-1.8,4.1-2.2,6.3-3.1c0.4-10.8-7-19.8-15.2-26C113.4,167.7,100.4,192.1,90.8,217.5 M719.8,162.2c3.2-2.6,5.9-5.9,7.6-9.6
		C724.1,155.2,721.5,158.5,719.8,162.2 M728.3,155.4c-1,0.9,0.4,2.9,1.6,2.1C730.8,156.6,729.4,154.7,728.3,155.4 M721.2,164
		c2,6.3,3.8,12.6,5.3,19c1.7-5.5,3.9-10.8,5.3-16.3c1.2-4.1-3-6.9-5-9.9C724.9,159.3,723,161.7,721.2,164 M754.2,170.9
		c1,6,2,12.1,1.9,18.2c-0.3,4.1,3.4,6.7,5.3,9.9c-3.4,1.1-6.9,2-10.3,2.9c-1.4-1.6-2.8-3.4-4.4-4.8c-3.5-0.2-6.8,1.4-10.1,2.2
		c9.4,12.3,19,24.5,28.5,36.7c3.8-1.1,7.5-2.1,11.3-3.1C772.3,211.2,764.8,190.2,754.2,170.9 M142.4,175.8
		c3.6,20.9,11.1,41.1,20.9,59.9c2.3,4.5,5.7,8.3,8.8,12.3c14.1,18.2,28.3,36.4,42.4,54.6c2.9,3.7,5.7,7.6,9,10.9
		c17.1,16.1,35.7,30.7,55.3,43.6c3.1,2,6,4.3,9.4,5.8c2.5,0.5,5.1-0.7,7.6-1.1c-8.8-11.4-17.7-22.7-26.5-34.2
		c-0.8-0.9-1.4-1.9-2.4-2.4c-1.9,0.2-3.8,0.7-5.7,1c1.2,1.9,2.4,3.8,3.6,5.8c-3.4,1-6.7,2.3-10.3,2.5c-2.8-2.6-4.8-5.8-7.2-8.8
		c-27.1-34.9-54.2-69.8-81.4-104.7c-2.9-3.8-6-7.4-8.5-11.4c5.5-1.8,11.2-2.6,16.6-4.3c-8.1-10.5-16.2-21-24.4-31.4
		C147.3,174.5,144.9,175.1,142.4,175.8 M162.9,188.2c0.8,1.1,1.6,2.2,2.4,3.3c9.9-5.8,22.1-7.3,33.1-4c16.9,5.1,30.5,17.2,41.5,30.6
		c12.4,15.2,21.8,32.7,29.1,50.9c9.1,23.2,15,47.7,16.6,72.6c0.3,2.4,0.2,5,1.9,7c2.8,3.7,5.7,7.4,8.7,10.9
		c0.4-22.6-2.9-45.1-8.8-66.9c-8.7-31.4-22.7-62-44.4-86.6c-11.6-12.8-25.9-24.3-43.1-27.9C186.8,175,173.1,179.8,162.9,188.2
		 M110.4,215.4c-3,3.5-0.4,8.2-0.2,12.3c17.7-5.1,36.6-0.3,51.9,9.2c-9.8-18.8-17-38.8-21.2-59.6C130,189.3,120,202.2,110.4,215.4
		 M166.6,192.5c2.7,4.2,5.9,8,8.9,12c3.6-0.2,7.4-0.4,10.9,0.9c6.6,2.4,11.8,7.6,16,13c13.4,17.2,26.8,34.5,40.3,51.8
		c11.9,15.6,17.1,35.4,17.4,54.9c2.6-0.6,5.2-1.3,7.8-1.9c5.5,6.8,10.5,13.9,16.2,20.4c0-3.1-0.1-6.2-0.5-9.3
		c-3.7-33.8-14.1-67.1-31.6-96.3c-8.2-13.6-18.2-26.3-30.6-36.4c-8.9-7.1-19.3-12.8-30.7-14.2C182.3,186.1,173.9,188.6,166.6,192.5
		 M756.1,194.7c-0.2,1.5-0.3,2.9-0.4,4.4c1.1-0.3,2.3-0.7,3.4-1C758.1,197,757.1,195.8,756.1,194.7 M735.2,200.5
		c-1.5,3.1-4.2,6.1-3.7,9.8c2.8,23.2,2.6,47.1-3.1,69.9c7.3-2,14.7-3.8,22-5.9c2.2-0.4,2.5-3,3.2-4.7c3.3-10.9,6.8-21.7,10.1-32.6
		C754.2,224.9,744.9,212.5,735.2,200.5 M181.8,205.8c5.9,3.2,11.5,7.3,15.6,12.7c0.8-0.2,1.7-0.4,2.5-0.6
		C195.2,212.2,189.3,207.1,181.8,205.8 M163.1,214.5c6.2,8.4,12.6,16.6,19.2,24.7c1.3-3,1.8-9.2,6.5-8.1c3.1,1.4,4.9,4.7,6.7,7.5
		c2.5,4.7,6,8.6,9.2,12.8c7.5,9.5,14.8,19.1,22.3,28.7c3.7,4,8.4,7.6,9.9,13.2c1.4,4.7-0.6,9.3-2,13.8c6.3,8.2,12.5,16.4,19,24.4
		c1.7-21.9-4.6-44.6-18.6-61.7c-12.4-15.9-24.8-31.9-37.2-47.8c-5.2-6.9-12-14.1-21.1-14.9C171.2,206.4,166.6,210.5,163.1,214.5
		 M159.9,210.4c0.7,1,1.4,2,2.2,3c1.4-1.5,2.8-3,4.1-4.5C164,209.4,161.9,209.9,159.9,210.4 M49,336.1c10,25.2,23.6,49,40.1,70.5
		c1.2-3.1,2.5-6.2,3-9.5c-0.6-2.7-2.7-4.7-4.2-6.9c-18.3-25.4-33.3-53.5-42.4-83.6c-6.3-20.9-10-42.7-9.5-64.6
		c-0.4-9.1,1.2-18.1,1.9-27.2C28,255.1,33.9,297.9,49,336.1 M62,224c-3.1,4.1-3,10-0.2,14.2c4.7,7.7,13.4,11.8,22,13.7
		c0.8-1.8,1.7-3.5,2.5-5.2c-9.4-1.5-20.1-6.7-22.1-16.9c-1.1-5.3,3.2-9,6.9-12C67.7,219.2,64.2,220.9,62,224 M74.9,218.9
		c-4.1,0.9-8.5,3.6-9.1,8.2c-0.6,4.5,2.2,8.4,5.4,11.3c-1.1-2.1-2.3-4.2-3.5-6.2c3.2-0.9,6.4-1.8,9.6-2.6c-2-2.8-4-5.5-5.9-8.4
		c2.5-0.8,4.9-1.7,7.5-2.1c3,2,4.4,5.7,7.2,7.9c3.7-0.6,7.3-1.8,11-2.5C90.7,220.1,82.7,217,74.9,218.9 M198.7,219.4
		c1,1.6,2,3.3,3.1,4.8c12.1,15.6,24.3,31.2,36.4,46.8c0.7,0,2.2,0,2.9,0c-12.4-16.3-25.1-32.3-37.6-48.6
		C202.4,220.7,200.7,219.6,198.7,219.4 M73,279c-2.6,5.9-0.1,12.2,0.6,18.2c0.1-6.6-0.2-13.4,1.7-19.9c1-3.3,2.1-7,4.8-9.3
		c1.5-1.3,3.4,0.2,5.1,0.5c6.9-16.3,14.1-32.4,20.8-48.8C92.4,237.9,81.2,257.9,73,279 M73.7,222c0.9,1.1,1.9,2.1,2.8,3.2
		c0.4-1.5,0.9-3,1.3-4.5C76.5,221.2,75.1,221.6,73.7,222 M79.1,221c-1.5,4.8,0.1,9.8-0.3,14.7c1.3-0.3,2.6-0.6,3.8-0.9
		c0.7-2.2,1.4-4.5,2.1-6.7C82.9,225.7,81,223.3,79.1,221 M85.4,272.2c-1.4-1.2-2.7-2.5-4.1-3.6c-2.1,3-3.9,6.4-4.7,10
		c-1.8,7.6-2.6,15.9,0.6,23.3c2.6-4.5,4.4-9.4,6.4-14.2c8.1-18.9,16.2-37.8,24.3-56.7c1.6-3.3,0.1-6.9-0.3-10.3
		C99.9,237.6,92.8,255,85.4,272.2 M10.2,241.2c-10,48.4-11.2,98.5-3.8,147.3c7.9,51.6,25.6,101.8,52.1,146.9
		c18.6,31.6,43.2,59.3,70.8,83.3C161.4,646.4,197.6,669,236,687c67.7,31.5,142.3,48.6,217.1,48c26.6-0.9,53.3-3.5,79.3-9.7
		c39.7-9.1,77.1-26.7,111.4-48.5c63.3-40.4,115.2-98.2,148.6-165.4c2.8-5.8,5.9-11.5,7.9-17.7c-4.4,5.9-7.9,12.3-12.5,18.1
		c-13.3,17.8-29.6,33.4-47.6,46.4c-28.1,20.4-60,35-93.2,44.8c-42.8,12.7-87.5,17.8-132,17.6c-48.9-0.4-97.6-7.4-144.8-19.8
		c-74.4-19.7-145.6-52.6-207.3-98.7C124.2,473.2,89.2,439,61.9,399c-21-30.8-37.4-65.2-45.1-101.8c-5-23.4-6.1-47.6-3-71.3
		C12.3,230.9,11.3,236.1,10.2,241.2 M98.2,226.2C98.7,226.7,98.7,226.7,98.2,226.2 M86.4,228.5c-0.9,2.5-1.7,4.9-2.6,7.4
		c1,0.6,1.9,1.6,3,1.8c2.4-3.9,7-6.3,7.9-11.1C92,227.2,89.2,227.9,86.4,228.5 M96.1,227.4c-1,0.6-1.6,2.2-0.9,3.3
		C97.4,232,98.8,226.9,96.1,227.4 M110.3,229.2c-10.2,23.8-20.4,47.7-30.6,71.5c-1.1,2.9-2.6,5.9-2.6,9.1c1.5,3,3.9,5.5,6,8.2
		c43.6,56,87.2,112.1,130.7,168.1c2.2-4.4,4.3-8.8,6-13.4c7-19.9,14.1-39.9,21.2-59.8c1.4-4.2,3.7-8.4,2.9-12.9
		c-3.1-28.9-10.3-57.3-22-83.9c-2.1-4.9-5.8-8.9-8.9-13c-15.6-20.1-31.2-40.1-46.8-60.2c-3.6-4.7-9.2-7.1-14.3-9.6
		C139,227.1,124,225,110.3,229.2 M69.7,233.2c1.5,1.8,3.3,3.6,5.7,4.2c0.7-2.1,1.4-4.2,2.1-6.4C74.9,231.7,72.3,232.4,69.7,233.2
		 M93.1,233.2c-1.2,0.2-1.9,2.2-0.4,2.5C94.5,236,95.3,232.4,93.1,233.2 M56.9,246.1c3.6,8.8,12.8,13.9,21.6,16.1
		c1.5-3,2.9-6,4.5-8.9c-10.7-2.2-21.4-8.6-24.9-19.5C56.9,237.7,55,242.1,56.9,246.1 M189.7,233.5c-1.2,3.5-2.7,6.9-3.4,10.5
		c3.2,5.6,7.7,10.6,11.9,15.5c-1.1-6.6-3.8-12.8-4.5-19.4C193.6,237.4,191.4,235.5,189.7,233.5 M765.3,237.4
		c-3.7,11.7-7.5,23.3-10.9,35.1c6.7-1.5,13.2-3.8,20-4.9c1.3,6.9,2.2,13.9,3,20.9c1.7-6.1,3-12.4,4.6-18.5c0.8-3.4,2-6.8,1.3-10.2
		c-1.5-8.6-3.6-17.2-6.5-25.4C773,235.4,769.2,236.4,765.3,237.4 M90.8,234.8c-0.9,2-1.7,4-2.5,6.1c0.4,0.3,1.1,0.8,1.5,1.1
		C90.9,239.7,91.9,237.3,90.8,234.8 M184.4,242.9c1.5-2.8,2.5-5.9,3-9C184.3,235.8,183.5,239.5,184.4,242.9 M71.9,239.3
		c4.9,3.2,10.5,5.7,16.5,5.8c-1.2-3.3-3.4-6-5.6-8.7C79.2,237.3,75.6,238.3,71.9,239.3 M196.8,246.7c1,4.7,2.3,9.3,3.6,13.9
		c1.3,5.3,5.6,9,8.7,13.3c8.1,10.1,15.6,20.7,24.1,30.5c-2-7.4-2.7-15.7-8-21.6C215.6,270.9,206.6,258.5,196.8,246.7 M755.2,274.2
		c-6.8,2.7-14,4.1-20.9,6.1C589.1,319.2,444,358,298.9,396.9c-8.8,2.8-18.1,3.6-26.9,6.5c46.8,29,98.6,50.1,152.2,62.4
		c49.7,11.3,101.2,15.5,151.9,9.3c39.7-4.8,79.1-16,113.7-36.3c3.6-1.8,3.4-6.4,4-9.8c-0.6-4.1-2.9-7.8-2.8-12
		c-0.4-7.3,3.9-14.3,10-18c8-5.1,17.8-5.8,27-4.9c5.3,0.7,10.5-0.9,15.5-2.5c2.4-1.6,3.8-4.3,5.5-6.6c12.2-17.8,20.8-38.2,24.4-59.6
		c3.4-18.6,2.7-37.7-0.4-56.2C767.1,270.9,761,272.1,755.2,274.2 M239.7,271.6c2.4,5.4,6,10.1,8.2,15.6c6.5,14.5,8.7,30.6,7.5,46.5
		c1.1-1.1,2.6-2,2.5-3.7c1.8-17.5-2.6-35.4-11.1-50.7C245,276.2,243.3,272.6,239.7,271.6 M781.5,278.7c-0.9,5-4.1,10.4-1.5,15.4
		c3.9,8.9,7.2,18,10,27.2c3.1,0.5,6.2,0.9,9.2,1.4C794.7,307.5,788.9,292.7,781.5,278.7 M230,285.4c1.2,5.8,2.9,11.5,4.7,17.2
		C237.8,296.5,234.6,289.7,230,285.4 M778,293.7c-0.1,6.1,0.7,12.2,0.8,18.3c-0.4,7.6,3.5,14.4,5.6,21.5c1.3-4.9,5-9.9,3.1-15.1
		C784.8,310,781.9,301.6,778,293.7 M74,299c0.5,2.4,1.1,4.7,1.5,7.1c0.5-0.7,1-1.4,1.5-2.1C76,302.3,75,300.6,74,299 M776.8,314.3
		c-2.1,13.8-4.7,27.6-10,40.5C762,367,755.7,378.5,748,389c-1.2,1.8-2.8,3.6-2.3,5.9c1.2,11.3,1.9,22.8,0.7,34.2
		c-0.2,17.5-4.6,34.6-8.8,51.5c17.3-22.5,25-50.4,31.4-77.6c6-26.6,8.6-53.9,8.6-81.2C777.7,319.4,777.4,316.8,776.8,314.3
		 M223.8,316c11.4,27.7,19.3,56.9,21.7,86.8c4.1,0.4,8.3,1.1,12.4,1.1c1.7,0.3,2.4-1.7,3.3-2.7c8-12.6,17-24.5,25.9-36.4
		c-2.2-2.2-5-3.6-7.5-5.3C259.8,346.6,241.2,331.9,223.8,316 M779.2,322.7c-0.2,3.3-0.2,6.7-0.2,10c0.9,0.1,2.6,0.2,3.5,0.2
		C781.5,329.5,780.4,326.1,779.2,322.7 M790,322.8c-3.4,8.8-6,17.9-9.5,26.7c-4,6.2-3,13.9-4.1,21c3.3-1.6,7.1-2.6,9.9-5.2
		c2.8-6.2,4.5-12.8,6.9-19.1c2.8-7.1,3.7-14.7,6.1-22C796.2,323.7,793.1,323.2,790,322.8 M260,327.7c-0.4,1.5-0.7,2.9-1.1,4.4
		c1.2-0.4,2.4-0.8,3.6-1.1C261.6,329.9,260.8,328.8,260,327.7 M778.9,334c0,3.2,0,6.4,0,9.6c1.4-2.9,2.5-6,3.5-9.1
		C781.6,334.4,779.8,334.1,778.9,334 M789.9,359.9c-1,3-2.6,6.3-1.4,9.5c5.1,18.7,8,38.1,7.5,57.6c0.3,10.9-1.6,21.8-2.9,32.6
		c5.9-13.4,9-28,10.9-42.4c3.2-26.3,0.6-53.1-6.5-78.6C794.8,345.6,792.5,352.8,789.9,359.9 M287.3,367.3
		c-8.5,10.9-16.6,22.2-24.2,33.8c-2.3,3.3-3.9,7-5.1,10.9c-2.6,7.8-5.7,15.5-8,23.4c5.4-8.8,10.1-18,15.7-26.7
		c1.8-2.5,2.9-6.1,6.2-6.8c4.7-1.4,9.5-2.5,14.2-3.8c3.4-11.7,6.8-23.3,10-35C292.9,364,289.3,364.4,287.3,367.3 M777.2,371.8
		c8.9,30.7,11.3,63.6,4.5,95c-2.1,10.9-6,21.3-9.7,31.8c4.3-5.1,7.5-10.9,10.8-16.6c2.4-4.4,5-8.7,6.4-13.6
		c8.5-33,6.3-68.1-2.8-100.7C783.4,368.9,780.3,370.3,777.2,371.8 M287.7,398.1c1.3-0.2,2.6-0.5,3.9-0.7c2.3-9.1,3.7-18.3,4.3-27.7
		C292.8,379.1,290.3,388.6,287.7,398.1 M776.1,374.2c-2.4,11.9-4,24-7.1,35.8c-1.4,4.1-0.3,8.3,0.2,12.5c4.1,0.6,8.8,1.4,11.2,5.2
		c1.8,2.3,0.7,5.3,0,7.8c-2.5,8.1-4.7,16.3-7.9,24.2c-1.8,5.4-4.5,10.5-5,16.2c-1,7.9-3.4,15.5-5.6,23.1c-1,2.4,0.9,4.8,0.2,7.2
		c-0.6,2.6-1.5,5.2-2.1,7.8c4-4.2,7.5-9,9.5-14.5C786.9,460.4,788.3,415.1,776.1,374.2 M733,396c0,6.5,0.1,13.1,0.1,19.6
		c-0.2,0.1-0.6,0.2-0.9,0.3c-1.6-6.4-0.3-13.2-0.8-19.7c-9.6-1.9-20-1.2-28.6,3.7c-6.4,3.6-11.1,10.7-10.1,18.2
		c0.1,4.8,3.9,8.8,2.8,13.6c-1.8,15.1-3.1,30.2-4.5,45.4c9.3-3.9,20-2.7,28.8,1.8c6.1-20.1,10-40.9,11.6-61.8l0.3,0
		c1,2.2,0.6,4.6,0.5,7c-1.7,18.9-5.5,37.5-11.1,55.6c3,2.1,5.5,4.8,8.4,6.9c1.9,0.2,4.4,0.2,4.9-2.2c5.7-16.2,9-33.2,10.5-50.3
		c0.1-1.8,0.5-3.5,1.5-4.9c-0.7-1.6-1-3.3-0.9-5c0.4-10.3-0.1-20.6-1.6-30.8C740.3,394.2,736.6,395,733,396 M94,397
		c-1.4,4-2.7,8-4.1,12.1c1.7,2.2,3.4,4.4,5.2,6.5c2.2-6.8,4.2-13.7,6.2-20.5C98.9,395.7,96.4,396.4,94,397 M270.3,404.2
		c-9.4,14.7-18.1,29.9-25.4,45.7c-0.8,2.3-3.3,2.8-5.2,3.8c-7.5,3.2-13.7,9.5-16.9,17.1c-2.2,5.7-5.3,11-7.9,16.5
		c62.5,42.8,134.6,71,209.1,83.8c49.3,8.3,100,9.7,149.4,1.4c35.7-6,70.9-17.3,102.3-35.6c1.8-0.9,3.3-2.3,3.6-4.3
		c8.9-30.1,11.1-61.7,12.7-92.9c-23.1,13.4-48.1,23.3-74,29.6c-37.3,9.2-76,11.7-114.3,9.7C421.3,473.7,340.4,447.7,270.3,404.2
		 M245.4,405.1c-7.1,19.3-13.9,38.7-20.6,58.1c3.1-3.1,6-6.4,9.7-8.7c2.5-1.6,5.4-2.5,7.8-4.2c1.5-2.4,2.2-5.1,3.2-7.8
		c4.2-12.4,8.9-24.6,12.8-37.1C254.1,405.3,249.7,404.2,245.4,405.1 M101.4,407.4c-1.8,3.8-2.8,8-4.1,12c1,0.4,2.1,0.8,3.2,1
		c2-4.8,3.5-9.7,4.8-14.7C103.9,406.2,102.6,406.7,101.4,407.4 M106.8,406.7c-1.7,4.7-3.2,9.5-4.8,14.2c10.6,13.9,22.3,27,34.6,39.5
		c14.1,13.1,29,25.2,44.5,36.6c1.3-4.2,3.2-8.3,3.8-12.7c0.3-1.4-1.5-1.9-2.3-2.8C154.3,459.8,128.8,434.6,106.8,406.7 M756.8,449.7
		c-5.3,12.9-12.3,25.1-20.7,36.3c-1.3,2-3.9,1.8-5.9,2.3c1.7,3.6,3.4,7.5,2.7,11.6c-0.8,4.7-2.7,9.2-4.2,13.8
		c-2.6,7.6-11,11.4-18.6,11.4c-9.2,0.5-17.9-3.5-24.9-9.2c-1.8,6.6-2.8,13.5-5.5,19.8c-2.1,2.1-4.8,3.3-7.3,4.7
		c-26.2,14.7-54.9,24.5-84.3,30.7c-46.6,9.7-94.8,10.3-142,4.6c-44-5.4-87.2-16.7-128.6-32.6c-0.8,1.1-1.5,2.2-2.3,3.2
		c73.7,28.5,153.4,43,232.5,37.6c2.4,3,4.9,6.1,6.9,9.5c4-0.4,7.9-0.7,11.9-1.1c1-3.5,1.8-7.1,3.5-10.4c1-0.3,2-0.6,3.1-0.7
		c24.4-3.1,48.5-8.4,71.8-16.3c9.2-2.9,18.1-7,27.2-10.4c2.3,1.3,3.6,3.7,5.3,5.6c2.8-1.4,5.8-2.6,8.3-4.5c2.8-3.4,2.3-9.2,6.8-11.2
		c17.8-9.7,34.6-21.6,49.2-35.7c1.6-1.1,0.3-3.2,0.2-4.8c8.1-9.4,15.5-19.5,21.5-30.4c7.4-13,12.6-27.3,16.4-41.8
		c0.7-2.4-1.3-4.4-3.1-5.6c-3.3-2.1-7.4-2.1-11.2-2.7C762.8,432.3,760.3,441.2,756.8,449.7 M754.2,491.1c-3.5,5-7.6,9.4-11.1,14.4
		c4.5-1.5,7.4-5.5,10.4-8.9c4.2-6.3,7.8-12.9,10.5-20C760.4,481.2,757.7,486.4,754.2,491.1 M692.4,478.1c-1,0.4-2.4,1.4-1.8,2.6
		C692.2,482,695.4,477.6,692.4,478.1 M690.5,485.5c-1.2,3.6,1.2,7.1,3,10.1c-0.2-1.5-0.4-3-0.6-4.5c3-0.8,6.1-1.6,9.1-2.3
		c-2.1-2.7-4.2-5.4-6.1-8.3c2.2-0.8,4.4-1.6,6.6-2.7C697.5,477.9,691.9,480.4,690.5,485.5 M703.7,477.5c2.1,2.9,4.1,5.9,6.7,8.4
		c3.3,0,6.3-1.4,9.5-1.9c1.7,0.7,3.2,1.9,4.8,2.8C719.5,480.8,711.6,477.7,703.7,477.5 M698,481.2c1,1.1,2,2.2,3,3.2
		c0.5-1.5,0.9-2.9,1.4-4.4C700.9,480.4,699.5,480.8,698,481.2 M754.2,498.8c1.7,0.8,3.5,1.6,5.2,2.4c2-7.1,4.1-14.2,5.4-21.5
		C761.3,486,758.1,492.6,754.2,498.8 M198.4,493.4c-0.6,1.2-0.1,2.5,1.1,3.1c31.9,23.2,66.7,42.3,103.1,57.4
		c1.7-3.6,4.2-6.6,6.8-9.6c1.5,0.4,3,0.8,4.5,1.2c0.8-1,1.5-2.1,2.3-3.1c-40.2-15.7-78.3-36.5-113.3-61.7
		C201.3,484.9,199.6,489.1,198.4,493.4 M703.8,480.5c-0.8,2.3-1.6,4.8-0.7,7.3c0.8,2.4-0.5,5.2,1,7.3c3.7-0.6,4.8-4.7,4.8-7.9
		C707.6,484.7,705.6,482.7,703.8,480.5 M186.5,485.1c-1.3,4.3-2.7,8.6-4,12.9c2.5,2,6.5,4.9,9.3,1.7c2.4-4.2,3.4-9,5.3-13.4
		C193.5,486.3,189.9,485.9,186.5,485.1 M710.7,487.9c-0.7,2.3-1.6,4.6-1.8,7c0.6,1.1,1.1,2.6,2.7,2c2.4-3.9,6.8-6.4,7.8-11.1
		C716.5,486.4,713.6,487.1,710.7,487.9 M719,491c1.4-0.5,2.9-0.9,4.4-1.4c-0.8-1.1-1.7-2.1-2.5-3.2C720.2,487.9,719.6,489.5,719,491
		 M725.6,487.5c-0.2,0.9-0.5,2.5-0.7,3.4c-3,0.8-6,1.6-9,2.3c2,2.7,4.2,5.4,6.1,8.2c-2.6,1-5.3,1.8-8,2.6c-2.2-2.6-4-5.5-6.4-7.9
		c-3.2-0.3-6.2,1.4-9.4,1.7c-1.7-0.5-3.2-1.5-4.7-2.3c5.8,6,14.4,9.6,22.8,8.7c4.4-0.5,9.3-2.7,10.9-7.1
		C728.5,493.9,726.7,490.6,725.6,487.5 M197.4,489.5c-1.1,0.8-1.9,2.7-1.2,3.9C197.7,493.7,199.1,490,197.4,489.5 M728.5,488.4
		c0.4,4.1,1.6,9-1.6,12.4c-5.4,5.8-14.4,5.9-21.5,3.8c-6.9-1.8-12.8-6.6-16.2-12.9c-0.3,2.7-0.8,5.3-0.9,8c1,1.9,2.7,3.2,4.4,4.5
		c7.7,5.7,17.7,8.4,27.2,6.5c5.1-1,10.2-4.5,11.3-9.9C732.2,496.5,730.4,492.2,728.5,488.4 M694.4,492.4c1.3,1.5,2.7,3.1,4,4.6
		c2-1.9,3-4.3,3.9-6.8C699.7,490.9,697,491.6,694.4,492.4 M714.6,494.6c-0.5,2-1.3,4-1.5,6.1c1.5,2.4,4.5,0.3,6.7,0.2
		C718.2,498.8,716.5,496.7,714.6,494.6 M196.5,496.6c-0.4,0.6-1.1,1.7-1.5,2.3c2.5,2.9,4.4,6.9,8.6,7.5c0.5-1.4,1-2.8,1.5-4.1
		C202.2,500.4,199.4,498.5,196.5,496.6 M738.7,513.7c-14.2,12.9-30.2,23.8-47,33c1.6,2.1,3.2,4.2,4.7,6.3c24.1-12.5,46.1-29,64.5-49
		c-2.6-1.4-5.1-3.1-7.9-4.1C747.9,504.1,743.8,509.5,738.7,513.7 M189.1,502.6c34.5,23.9,71.7,44.1,110.7,59.6
		c0.8-2.3,1.6-4.6,2.4-6.8c-32.3-13.5-63.4-29.9-92.3-49.6c-2.8,0.8-5.6,2.5-8.6,2c-3.2-1.5-4.9-4.8-7.2-7.3
		C192.5,501.2,190.8,501.9,189.1,502.6 M686,512.6c9,7.8,22,12.2,33.5,7.9c5-1.7,7.8-6.7,9.2-11.6c-4.6,2.2-9.5,4.2-14.7,4.1
		c-9.8,0.1-19.1-4.2-26.3-10.6C687.1,505.8,686.5,509.2,686,512.6 M700,553c-4.5,1.9-4.6,7.5-6.1,11.4c23-12,44.1-27.8,61.9-46.8
		c2.7-2.7,3.5-6.5,4.4-10C742.5,525.6,722.3,541.2,700,553 M310.1,546c-1.4,1.6-2.7,3.2-4,4.7c77.7,31.1,162.2,46.7,245.9,41.2
		c-1.7-2.1-3.3-4.2-5-6.2C466.4,590.6,385,575.8,310.1,546 M690.5,548.1c-1.6,5-3.4,9.9-5.4,14.7c2.4-0.1,4.9,0.1,7.2,0.8
		c1-3.1,2.1-6.2,3-9.4C693.8,552.1,692.2,550.1,690.5,548.1 M305.2,552c-1.3,3.5-2.6,6.9-3.8,10.4c71.3,29,148.5,44.2,225.6,42.6
		c7.4-0.2,14.7-1,22.1-1c1.1-3.5,2.1-7.1,3.1-10.7C468.1,598.9,383.3,583.3,305.2,552 M571.9,583c1.7,2.2,3.5,4.5,5.2,6.7
		c4.7-0.7,9.5-1.2,14.1-2.5c24.7-6.7,49.5-13.3,74.2-19.9c4.1-1.1,8-2.7,11.9-4.5c-1.7-2.3-3.5-4.6-5.3-6.9
		C640.3,570.2,606.2,578.5,571.9,583 M678.5,561.2c0.3,1.3,0.6,2.7,0.9,4.1c3.5-0.8,5.1-3.9,6-7.2
		C683.1,559.1,680.8,560.2,678.5,561.2 M670.1,568.1c-2.5,3.8-4,8-6,12.1c2.6-0.7,5.3-1.2,7.8-2.3c2.5-4,3.5-8.7,5.2-13.1
		C674.8,565.8,672.1,566.4,670.1,568.1 M621.6,580.7c-11,3.1-22.1,5.6-33,9c-1.3,3.6-1.6,7.6-2.3,11.4c24.9-6.8,49.8-13.2,74.6-20.1
		c3.7-3,4.6-8.4,6.8-12.5C652.3,572.3,637,576.7,621.6,580.7 M675.2,575.4c-1.4-0.1-1.8,2.3-0.3,2.3
		C676.4,577.8,676.8,575.4,675.2,575.4 M570.6,584c-1.1,3.7-2.5,7.3-3.3,11.1c0.8,2.6,3.1,4.5,4.7,6.7c1.1-3.8,3.2-7.4,3.4-11.4
		C574.1,588.1,572.2,586.1,570.6,584 M577.2,591.2c-1.4,4.3-2.9,8.6-4.2,13c3.9-0.6,7.8-1.7,11.6-2.7c0.7-3.9,1.4-7.8,2.1-11.7
		C583.5,590.3,580.4,590.8,577.2,591.2 M553.2,595.2c-0.4,1.3-0.7,2.5-1.1,3.8c4.5-1.4,9.4-1.9,13.3-4.7
		C561.3,594.2,557.3,594.8,553.2,595.2z"/>
	<path class="st0" d="M265.4,21.5c14-5.8,29.8-7.6,44.8-5.7c17.9,3.8,35.1,12.9,47,27c7.7,9.1,12.9,21.5,10.1,33.5
		c-0.9,4.6-4.3,8.1-5.4,12.5c3.5,5.7,8.4,10.5,12.1,16.2c1.2,1.7,1.6,4.4-0.4,5.7c-3.9,3-9.9,1-12.6-2.8c-5.5-7-10.8-14.1-16.3-21
		c-8,5.2-17.4,7.5-26.9,7.4c5,6.6,10.1,13,15.2,19.5c1.5,2,3.3,5.1,1.1,7.3c-3.4,2.8-8.9,1.7-11.8-1.5c-4.3-4.8-7.7-10.3-12-15.1
		c-1.7-2-4.5-2.4-7-3c-18.2-3.7-35.6-12.9-47.8-27.1c-6.4-7.6-11.2-17.3-10.8-27.4c-0.1-5.5,2.1-10.7,4.9-15.2
		C254,27.1,259.7,24.1,265.4,21.5 M253.4,30.4c-3.6,2.5-3.8,7.1-4.8,10.9c3.6-2.6,8-3.5,12.4-3.4c2.2-2.7,4.6-5.3,7.5-7.4
		c4-3,6.9-7.4,11.6-9.5c8.5-4.2,18.7-2.8,26.8,1.6c0.5-1.8,1-3.7,1.5-5.5C289.3,15.4,268.8,18.4,253.4,30.4 M309.9,17.1
		c-0.7,2.3-1.4,4.5-2.1,6.8c4.5,1.7,9.1,2.7,13.6,4.5c7.9,3.2,15.3,7.7,21.4,13.7c5.1,4.8,8.3,11,12.5,16.5c5,6.7,7.5,14.8,8.2,23
		c5.8-10.6,2.4-23.7-4.1-33.2C348.1,31.8,329.2,21.7,309.9,17.1 M286.3,20.4c-6.5,1.3-12.4,5.6-15.3,11.7c-2.1,4.3-1.4,9.6,1.4,13.5
		c5,7.2,13.4,11.4,21.9,12.8c6.2,1,13.2,0.3,18.3-3.7c5-4.1,5.5-11.5,3.9-17.3C312.8,25.1,298.6,17.9,286.3,20.4 M312.8,27.1
		c2.3,3.8,5,7.6,5.7,12.1c0.9,5.8,0.1,12.7-4.8,16.5c-5.7,4.6-13.5,4.8-20.4,3.8c-9.2-1.6-18.3-6.6-23-14.8
		c-2.3-3.7-1.8-8.2-1.7-12.3c-6.5,4.1-9.9,12-9.3,19.5c0.6,7.1,4.2,13.6,8.9,18.9c11.3,12.8,28,20,44.8,21.6
		c7.9,1.2,16.2,0.1,23.6-2.8c8.2-3.2,15-10.3,16.8-19c1.3-8.2-2.4-16.3-7.3-22.6C337.7,37.5,325.5,30.7,312.8,27.1 M246.2,47.4
		c-0.2,8,3.1,15.5,7.4,22c-0.6-4.8-1.4-9.8,0.3-14.4c1.8-5.3,4.2-10.3,6.1-15.5C254.4,39.2,248.6,42.1,246.2,47.4 M259.5,76.5
		c10.3,10.6,23.7,18,37.9,22c4.8,1.4,10,1.9,14.5,4.2c1-2.9,2-5.7,3-8.6c-14.1-0.5-27.9-5.6-39.3-13.9c-9.9-7.1-17.3-18.3-18.1-30.7
		C253.3,58.1,253.2,69.1,259.5,76.5 M354.3,59.6c2.6,10.5-2.1,20.5-4.5,30.5c1.4,3.1,3.9,5.5,6,8.2c2-5.1,4.7-10,6.1-15.3
		C362.3,74.5,358.9,66.4,354.3,59.6 M346.7,85.4c-0.9,1.4,1.2,2.3,1.8,3.4c0.6-2.3,1.2-4.6,1.7-7C349,82.9,347.7,84,346.7,85.4
		 M357.9,101.1c3.1,4,6.1,9.5,11.9,9.7c1.4-1.9,3.2-4.8,1.4-7c-2.9-4.2-6.4-8.2-9.5-12.2C360.4,94.7,359.2,97.9,357.9,101.1
		 M316.3,94.9c-1.2,3.3-2.4,6.7-3.5,10c3.4,4.4,6.7,8.8,10.2,13.1c1.8,2.4,4.9,2.8,7.6,3.3c0.7-1.8,1.3-3.6,2-5.4
		C327.2,108.8,321.8,101.9,316.3,94.9z"/>
	<path class="st0" d="M293.5,23.4c5.7-1.1,14.4,3.3,12.2,10.1c-4.5,6.1-16.9,2.4-17.2-5.4C288.6,25.5,291.1,23.8,293.5,23.4
		 M292.5,25.3c-1.7,0.8-3.2,2.4-2.3,4.4c1.9,4.2,7.2,6.2,11.5,5c2-0.5,3.9-3,2.5-5C302.1,25.6,296.7,24,292.5,25.3z"/>
	<path class="st0" d="M662.6,615.6c4.5-1.7,8.9-4,13.9-3.9c-0.8,8.5-5.6,16.4-12.2,21.6c-4.6,3.8-8.8,8.3-14.5,10.5
		c-23.2,8.8-47.4,15-71.9,19.2c-4.7,1.2-8.4-2.5-11.2-5.7c-2-2-0.5-4.8,0.4-7c1.9-3.9,3.4-8.4,7.1-11.1c2.6-1.9,5.8-2.6,8.9-3.1
		C610.2,632.1,636.9,625.3,662.6,615.6 M665.5,616.1c1.8,2.4,3.6,4.8,5.4,7.1c1-2.9,4.7-6.6,2-9.5
		C670.3,614,667.9,615.2,665.5,616.1 M659.2,618.3c2.5,3.3,4.8,6.9,7.8,9.8c1.2-0.9,2.3-2,3.4-3c-2.1-2.8-4.2-5.5-6.3-8.2
		C662.4,617.4,660.8,617.9,659.2,618.3 M648.6,626.9c2.7,3.6,5.4,7.1,8.2,10.6c3.1-2.5,6.1-5.1,9-7.8c-2.8-3.6-5.6-7.2-8.3-10.8
		C654.3,621.4,651.4,624.1,648.6,626.9 M645.2,623.1C645.2,626.5,648.2,621.7,645.2,623.1 M642.1,624.2c-0.5,1.6,0,2.2,1.7,1.7
		C644.3,624.3,643.7,623.7,642.1,624.2 M584.4,637.4c-5.4,0.5-10.8,2.8-13.3,7.9c2.8-0.5,5.6-1.1,8.3-1.9
		c20.6-5.5,41.1-11,61.7-16.5c-0.3-0.5-0.9-1.4-1.2-1.9C621.7,630.4,603.2,634.6,584.4,637.4 M646.3,625c-1.5,0.3-1,2.8,0.5,2
		C648.2,626.7,647.8,624.2,646.3,625 M638.9,629c-21,5.6-42,11.3-63.1,16.9c-2.3,0.6-4.5,1.4-6.5,2.5c2-0.2,3.9-0.6,5.9-1.1
		C594.1,642.1,613,637,632,632c4.2-1.2,8.6-2,12.4-4.1C642.5,628.1,640.7,628.5,638.9,629 M642,631.1c2.8,3.6,5.6,7.2,8.4,10.8
		c1.7-1,3.5-2.1,5.2-3.1c-2.6-3.7-5.4-7.2-8.2-10.8C645.5,629.1,643.8,630.1,642,631.1 M569.5,650.3c2.8,3.7,5.6,7.4,8.5,11
		c24.1-4,47.9-10.1,70.7-18.9c-2.8-3.8-5.7-7.5-8.7-11.1C616.6,637.8,593,643.8,569.5,650.3 M567.7,651.4c0,5,4.4,8.6,8.4,10.9
		C573.9,658.2,571.1,654.5,567.7,651.4z"/>
</g>
<g id="_x23_0067ccff">
	<path class="st1" d="M312.8,27.1c12.7,3.5,24.9,10.4,33.3,20.8c4.9,6.4,8.6,14.4,7.3,22.6c-1.8,8.7-8.6,15.8-16.8,19
		c-7.4,2.9-15.7,4.1-23.6,2.8c-16.8-1.6-33.5-8.8-44.8-21.6c-4.7-5.2-8.3-11.8-8.9-18.9c-0.6-7.5,2.8-15.4,9.3-19.5
		c-0.1,4.2-0.6,8.6,1.7,12.3c4.8,8.3,13.9,13.2,23,14.8c6.9,1,14.7,0.8,20.4-3.8c4.9-3.9,5.7-10.7,4.8-16.5
		C317.8,34.7,315.1,30.9,312.8,27.1z"/>
</g>
</svg>
