<?xml version="1.0" encoding="UTF-8" ?>
<!DOCTYPE svg PUBLIC "-//W3C//DTD SVG 1.1//EN" "http://www.w3.org/Graphics/SVG/1.1/DTD/svg11.dtd">
<svg width="616pt" height="152pt" viewBox="0 0 616 152" version="1.1" xmlns="http://www.w3.org/2000/svg">
<g id="#ffffffff">
</g>
<g id="#362f2eff">
<path fill="#362f2e" opacity="1.00" d=" M 35.28 4.87 C 48.97 4.60 62.66 4.70 76.35 4.81 C 74.84 16.62 71.60 28.10 69.52 39.81 C 55.80 39.85 42.08 39.92 28.35 39.77 C 30.35 28.08 32.97 16.50 35.28 4.87 Z" />
<path fill="#362f2e" opacity="1.00" d=" M 122.11 4.82 C 135.72 4.67 149.34 4.66 162.95 4.82 C 160.91 16.53 158.25 28.12 155.94 39.78 C 142.12 39.92 128.30 39.83 114.48 39.82 C 117.36 28.23 119.47 16.46 122.11 4.82 Z" />
<path fill="#362f2e" opacity="1.00" d=" M 204.34 39.77 C 210.37 28.02 216.18 16.15 222.79 4.71 C 237.45 4.81 252.11 4.58 266.77 4.84 C 268.25 16.53 270.38 28.13 271.96 39.80 C 249.42 39.85 226.88 39.92 204.34 39.77 Z" />
<path fill="#362f2e" opacity="1.00" d=" M 327.21 4.90 C 339.16 4.63 351.11 4.66 363.06 4.78 C 366.25 4.40 366.85 7.92 367.92 10.13 C 371.66 20.07 375.94 29.80 379.54 39.79 C 359.77 39.91 340.00 39.83 320.23 39.82 C 322.43 28.15 324.92 16.54 327.21 4.90 Z" />
<path fill="#362f2e" opacity="1.00" d=" M 416.10 4.81 C 428.95 4.68 441.81 4.67 454.66 4.81 C 452.53 16.50 449.79 28.08 447.64 39.77 C 434.76 39.92 421.88 39.83 409.00 39.83 C 410.93 28.07 413.74 16.48 416.10 4.81 Z" />
<path fill="#362f2e" opacity="1.00" d=" M 478.01 4.82 C 491.62 4.65 505.24 4.71 518.85 4.79 C 517.88 16.63 514.67 28.13 512.42 39.76 C 498.68 39.93 484.95 39.83 471.22 39.81 C 473.00 28.06 475.80 16.49 478.01 4.82 Z" />
<path fill="#362f2e" opacity="1.00" d=" M 559.59 5.51 C 562.83 4.11 566.56 4.87 570.01 4.69 C 584.42 4.86 598.84 4.53 613.26 4.87 C 607.76 10.86 601.16 15.68 595.53 21.53 C 590.25 26.94 584.28 31.61 578.85 36.87 C 575.95 40.50 571.13 39.95 567.00 39.90 C 553.53 39.70 540.05 40.04 526.58 39.71 C 532.51 33.26 539.05 27.40 544.64 20.64 C 549.57 15.56 554.11 10.01 559.59 5.51 Z" />
<path fill="#362f2e" opacity="1.00" d=" M 315.57 62.40 C 329.08 62.65 342.60 62.77 356.13 62.48 C 366.80 62.46 377.53 63.21 388.17 62.04 C 392.90 69.69 394.34 78.85 398.99 86.51 C 401.05 78.67 402.35 70.67 404.06 62.76 C 416.90 62.23 429.77 62.83 442.62 62.72 C 439.87 78.24 436.53 93.65 433.26 109.06 C 430.88 121.28 428.53 133.50 425.69 145.62 C 412.95 145.53 400.22 145.62 387.48 145.57 C 377.49 120.86 367.35 96.22 357.54 71.44 C 356.47 68.89 355.15 66.45 353.77 64.06 C 349.02 83.92 345.65 104.09 341.27 124.04 C 339.63 131.18 338.45 138.42 336.92 145.59 C 324.23 145.57 311.54 145.61 298.84 145.56 C 300.78 132.21 304.02 119.09 306.54 105.84 C 309.59 91.37 312.40 76.84 315.57 62.40 Z" />
<path fill="#362f2e" opacity="1.00" d=" M 191.84 62.55 C 219.51 62.76 247.18 62.71 274.84 62.48 C 279.54 90.06 283.34 117.79 287.67 145.43 C 274.29 145.77 260.90 145.51 247.52 145.57 C 245.75 134.66 244.44 123.68 242.73 112.76 C 242.03 108.58 241.89 104.28 240.59 100.23 C 236.49 99.14 232.19 99.82 228.00 99.59 C 223.85 99.67 219.66 98.80 215.54 99.53 C 212.38 102.40 211.50 106.83 209.47 110.45 C 203.32 122.07 197.58 133.89 191.56 145.57 C 176.95 145.57 162.35 145.64 147.74 145.53 C 157.32 125.57 168.37 106.35 178.83 86.85 C 182.90 78.61 187.32 70.56 191.84 62.55 Z" />
<path fill="#362f2e" opacity="1.00" d=" M 466.56 63.25 C 469.82 61.82 473.51 62.77 476.95 62.62 C 504.03 62.67 531.11 62.74 558.19 62.54 C 562.88 72.61 567.59 82.67 572.41 92.67 C 576.63 101.23 579.89 110.22 584.26 118.70 C 588.35 127.71 592.70 136.59 596.88 145.55 C 582.06 145.61 567.24 145.59 552.43 145.56 C 544.02 125.36 536.10 104.96 527.19 84.98 C 520.43 89.85 514.83 96.11 508.38 101.37 C 504.16 105.71 497.95 109.11 496.86 115.57 C 494.83 125.58 493.15 135.65 490.81 145.60 C 477.17 145.54 463.53 145.65 449.90 145.53 C 451.56 135.62 453.92 125.85 455.80 115.98 C 458.12 101.06 461.60 86.36 464.47 71.54 C 465.05 68.75 465.43 65.88 466.56 63.25 Z" />
<path fill="#362f2e" opacity="1.00" d=" M 23.68 62.83 C 66.13 62.37 108.59 62.91 151.04 62.54 C 150.08 72.33 147.60 81.85 145.65 91.46 C 142.04 109.50 138.14 127.48 134.65 145.55 C 122.08 145.59 109.50 145.59 96.93 145.61 C 95.46 145.70 92.72 145.32 93.64 143.21 C 97.39 125.05 101.28 106.89 104.55 88.63 C 89.64 88.46 74.73 88.52 59.81 88.61 C 57.92 95.67 56.79 102.90 55.42 110.07 C 52.97 121.88 50.74 133.74 48.27 145.55 C 34.49 145.59 20.71 145.62 6.93 145.53 C 12.17 117.90 18.34 90.44 23.68 62.83 Z" />
</g>
</svg>
