<?xml version="1.0" encoding="UTF-8" ?>
<!DOCTYPE svg PUBLIC "-//W3C//DTD SVG 1.1//EN" "http://www.w3.org/Graphics/SVG/1.1/DTD/svg11.dtd">
<svg width="632pt" height="683pt" viewBox="0 0 632 683" version="1.1" xmlns="http://www.w3.org/2000/svg">
<g id="#fdfdfdff">
</g>
<g id="#000000ff">
<path fill="#000000" opacity="1.00" d=" M 316.03 10.81 C 320.04 10.52 324.01 9.88 327.98 9.30 C 336.63 8.49 345.32 8.75 353.99 8.71 C 361.01 8.83 368.10 8.61 375.04 9.89 C 414.69 13.97 453.33 27.10 487.59 47.44 C 522.74 68.31 553.68 97.16 574.39 132.62 C 590.12 159.52 599.76 190.62 598.50 221.99 C 597.73 244.12 590.37 265.58 579.75 284.86 C 584.46 291.73 589.45 298.53 592.79 306.22 C 597.04 315.54 601.79 324.73 604.23 334.75 C 606.47 343.73 609.49 352.71 609.43 362.07 C 609.45 365.51 609.99 368.91 610.40 372.31 C 610.99 377.22 609.49 382.03 609.39 386.92 C 609.34 397.39 606.47 407.57 603.50 417.52 C 597.18 437.61 586.97 456.10 578.11 475.11 C 572.80 485.83 567.88 496.73 562.42 507.37 C 554.93 521.07 549.91 536.07 541.02 549.00 C 535.58 556.56 531.20 564.95 524.69 571.69 C 517.64 578.96 511.58 587.26 503.62 593.62 C 494.25 601.26 485.53 609.81 475.18 616.17 C 465.83 622.21 456.89 628.97 446.82 633.80 C 435.37 639.48 424.20 645.85 412.11 650.09 C 402.86 653.59 393.62 657.16 384.17 660.12 C 371.13 663.61 358.07 667.12 344.79 669.57 C 332.18 671.01 319.71 673.87 306.97 673.89 C 294.64 674.59 282.19 676.30 269.88 674.41 C 262.50 673.34 254.97 674.09 247.66 672.50 C 238.24 671.52 229.05 669.19 219.82 667.19 C 209.15 665.07 199.03 660.94 188.82 657.29 C 177.86 653.56 167.82 647.72 157.57 642.44 C 147.85 637.53 139.39 630.60 130.34 624.61 C 124.32 620.79 119.51 615.47 114.00 611.01 C 103.27 602.08 93.69 591.90 84.81 581.16 C 76.81 572.89 71.07 562.86 64.59 553.44 C 57.70 543.75 52.94 532.82 47.81 522.16 C 40.84 508.18 36.64 493.07 31.77 478.28 C 27.53 460.73 23.23 443.10 21.48 425.09 C 19.70 415.83 19.54 406.37 18.90 396.99 C 18.87 388.71 17.83 380.35 19.33 372.14 C 20.43 365.90 19.91 359.49 21.19 353.28 C 22.85 342.82 26.22 332.76 28.58 322.46 C 31.15 313.75 34.97 305.47 37.66 296.80 C 42.54 282.08 47.69 267.46 52.94 252.88 C 60.75 230.56 68.02 207.78 80.46 187.50 C 86.92 176.05 95.72 166.19 104.48 156.48 C 113.71 148.24 122.92 139.72 133.98 133.96 C 145.00 127.09 157.27 122.69 169.55 118.64 C 173.62 117.25 178.18 117.24 181.98 115.11 C 183.85 111.66 184.64 107.76 186.15 104.16 C 190.39 93.90 195.21 83.78 201.79 74.78 C 208.85 64.69 217.60 55.91 226.91 47.91 C 252.30 27.32 283.90 15.49 316.03 10.81 M 279.96 21.91 C 248.25 32.44 218.99 52.26 200.29 80.28 C 198.20 83.38 196.48 86.72 195.01 90.15 C 198.08 87.13 200.55 83.58 203.26 80.25 C 213.94 66.56 227.45 55.35 242.13 46.19 C 266.06 31.99 293.29 23.54 320.95 20.93 C 328.88 19.49 336.97 19.79 345.00 19.66 C 353.09 19.74 361.25 19.46 369.26 20.80 C 411.42 24.85 452.49 39.19 488.39 61.61 C 520.53 81.88 548.87 108.84 568.30 141.67 C 585.11 169.58 594.32 202.36 592.55 235.01 C 592.00 242.42 591.07 249.82 589.99 257.17 C 593.86 247.21 595.05 236.56 596.22 226.03 C 597.78 198.20 590.91 170.30 578.57 145.44 C 562.36 112.64 536.92 84.99 507.58 63.42 C 467.73 34.53 420.07 16.26 370.99 11.98 C 360.04 10.40 348.95 11.01 337.93 11.04 C 318.30 12.46 298.63 15.44 279.96 21.91 M 293.94 27.71 C 270.77 33.21 248.37 42.88 229.51 57.57 C 223.86 61.89 218.08 66.20 213.61 71.79 C 226.70 60.69 240.76 50.44 256.55 43.52 C 276.08 34.37 297.22 28.82 318.64 26.59 C 326.99 24.97 335.54 25.44 344.00 25.33 C 352.47 25.48 361.01 24.96 369.39 26.47 C 424.46 32.18 477.62 55.27 519.38 91.65 C 548.78 117.40 572.38 150.58 583.61 188.26 C 586.16 196.69 587.31 205.44 589.29 214.00 C 589.55 222.67 589.11 231.37 589.80 240.04 C 590.39 244.55 588.75 248.84 588.06 253.23 C 589.15 248.54 590.66 243.90 591.20 239.11 C 590.57 232.75 590.77 226.36 590.83 219.98 C 590.96 214.90 589.18 210.06 588.99 205.01 C 585.29 179.11 574.80 154.47 560.13 132.90 C 540.85 104.30 514.80 80.59 485.53 62.51 C 449.68 40.53 408.79 26.47 366.84 22.93 C 355.98 21.15 344.92 22.11 333.97 21.93 C 320.53 23.09 307.07 24.50 293.94 27.71 M 298.61 31.84 C 274.48 36.97 250.95 46.29 231.03 61.02 C 217.66 70.44 206.29 82.59 197.07 96.07 C 193.57 101.97 189.54 107.68 187.34 114.23 C 189.98 113.91 192.65 113.72 195.24 113.06 C 202.42 111.05 209.95 112.29 217.25 111.14 C 226.03 109.85 234.97 109.98 243.75 111.17 C 251.49 112.21 259.36 111.34 267.06 112.71 C 285.41 115.67 303.97 117.88 321.84 123.18 C 338.35 126.78 354.26 132.54 370.28 137.81 C 382.14 141.91 393.54 147.16 405.11 151.99 C 423.19 159.57 440.27 169.25 457.54 178.50 C 473.78 188.78 490.41 198.57 505.58 210.43 C 514.15 217.17 523.22 223.32 531.04 230.95 C 538.17 237.13 545.20 243.43 551.86 250.13 C 557.15 255.53 561.70 261.60 566.86 267.12 C 570.78 271.31 574.04 276.03 577.33 280.71 C 581.82 271.11 584.53 260.74 585.95 250.25 C 587.95 240.28 587.23 230.06 587.17 219.97 C 584.88 190.98 574.06 163.07 558.02 138.95 C 537.78 108.37 509.73 83.38 478.26 64.78 C 444.45 45.00 406.42 32.18 367.39 28.58 C 355.02 26.64 342.44 27.70 329.98 27.57 C 319.47 28.58 308.96 29.72 298.61 31.84 M 203.99 114.97 C 179.50 117.42 155.16 124.30 133.90 136.87 C 125.77 141.39 117.99 146.83 112.05 154.07 C 116.26 151.27 120.42 148.39 124.72 145.72 C 146.67 131.69 172.14 123.70 197.93 120.80 C 212.51 118.41 227.36 119.55 242.06 119.44 C 283.52 122.25 324.44 131.47 363.56 145.42 C 411.58 162.57 457.19 186.54 498.41 216.58 C 526.79 237.40 553.45 261.23 574.00 289.99 C 591.76 315.01 604.48 344.39 606.59 375.23 C 607.18 371.50 607.67 367.73 607.38 363.96 C 606.40 355.85 605.43 347.71 602.98 339.88 C 599.79 326.41 593.72 313.89 587.37 301.69 C 580.79 290.52 573.71 279.60 565.23 269.77 C 559.45 263.23 553.93 256.43 547.66 250.34 C 521.36 224.32 491.21 202.43 459.50 183.49 C 408.17 153.20 351.84 131.09 293.23 120.00 C 281.66 118.18 270.13 115.93 258.42 115.27 C 248.71 113.58 238.82 114.04 229.01 113.78 C 220.67 114.10 212.25 113.53 203.99 114.97 M 196.01 124.57 C 188.05 125.05 180.29 126.98 172.54 128.73 C 145.73 135.57 119.84 148.40 100.47 168.47 C 87.01 181.69 77.11 198.07 69.07 215.02 C 59.78 238.48 52.44 262.66 43.22 286.16 C 42.10 288.93 41.54 291.88 40.97 294.81 C 44.89 290.94 47.38 285.99 50.64 281.62 C 64.05 263.29 82.03 248.36 102.48 238.49 C 119.61 229.96 138.38 225.23 157.26 222.63 C 166.86 222.23 176.36 220.42 186.00 220.83 C 195.34 220.55 204.53 222.51 213.86 222.54 C 274.03 228.98 332.37 248.39 386.08 275.99 C 421.96 294.57 456.07 316.83 486.54 343.44 C 512.46 366.37 535.88 393.28 549.49 425.43 C 556.82 442.69 560.67 461.31 561.43 480.00 C 561.86 490.31 558.75 500.28 558.17 510.51 C 559.54 508.39 560.94 506.28 562.01 503.99 C 570.66 484.85 580.07 466.07 589.13 447.13 C 596.61 432.75 601.17 417.02 603.82 401.08 C 604.50 390.73 604.63 380.32 603.70 369.97 C 600.98 351.86 595.54 334.11 587.04 317.86 C 569.45 283.36 541.67 255.29 511.70 231.31 C 471.96 199.82 427.41 174.51 380.36 155.67 C 335.88 138.00 288.84 126.13 241.02 123.02 C 226.02 123.09 210.86 121.89 196.01 124.57 M 159.00 224.50 C 147.74 225.98 136.51 228.07 125.67 231.53 C 99.93 239.30 76.07 254.04 58.80 274.78 C 49.09 286.28 39.81 298.56 35.05 313.03 C 40.59 302.81 46.03 292.42 53.50 283.43 C 63.06 271.04 74.90 260.54 87.97 251.99 C 105.68 240.42 125.97 233.11 146.75 229.48 C 154.05 227.80 161.58 227.74 168.95 226.51 C 183.12 225.94 197.43 225.51 211.50 227.61 C 222.87 228.18 234.10 230.20 245.34 231.94 C 300.65 242.15 353.89 262.50 402.80 290.15 C 435.42 308.71 466.37 330.50 493.60 356.40 C 518.70 380.53 540.61 409.34 550.87 443.02 C 554.76 455.33 556.60 468.15 557.63 480.97 C 558.19 487.40 556.34 493.65 556.16 500.04 C 555.89 506.62 553.12 512.73 552.18 519.21 C 552.99 518.32 553.91 517.43 554.16 516.20 C 555.79 510.22 557.85 504.22 557.80 497.96 C 558.12 490.62 560.33 483.38 559.22 476.01 C 557.94 468.65 558.12 461.11 556.29 453.85 C 549.57 420.75 530.66 391.49 508.02 366.97 C 496.03 354.60 483.53 342.67 469.84 332.19 C 453.36 319.01 435.97 306.99 417.92 296.07 C 355.82 258.69 286.25 232.49 213.99 224.55 C 204.64 224.30 195.33 223.36 186.01 222.74 C 176.97 222.64 168.04 224.39 159.00 224.50 M 171.35 228.34 C 161.99 229.80 152.48 229.99 143.24 232.21 C 123.53 236.11 104.35 243.33 87.62 254.56 C 64.66 269.93 46.57 292.23 35.42 317.44 C 28.61 333.56 24.51 350.81 23.14 368.24 C 21.50 377.75 22.08 387.41 22.04 397.00 C 22.04 405.38 23.63 413.65 24.00 422.01 C 28.92 462.04 39.23 501.88 58.43 537.56 C 76.13 570.55 101.53 599.11 131.21 621.79 C 140.02 628.09 148.71 634.65 158.33 639.70 C 168.69 645.26 179.08 650.88 190.17 654.88 C 200.68 658.72 211.21 662.71 222.22 664.90 C 232.75 667.14 243.27 669.88 254.08 670.24 C 268.25 672.59 282.70 671.86 297.01 671.72 C 310.81 671.96 324.42 669.45 338.06 667.77 C 380.32 660.94 421.46 646.37 458.04 624.02 C 488.20 605.24 516.07 581.46 535.19 551.20 C 545.01 535.73 551.94 518.26 554.12 500.02 C 554.31 492.41 556.05 484.82 554.98 477.21 C 554.39 472.84 554.29 468.42 553.78 464.04 C 551.04 447.66 545.77 431.68 538.05 416.97 C 524.21 390.19 503.53 367.74 481.26 347.73 C 449.64 320.09 414.06 297.16 376.53 278.40 C 331.03 255.83 282.28 239.33 231.98 231.87 C 224.95 231.16 218.03 229.63 210.94 229.62 C 197.85 227.61 184.54 227.87 171.35 228.34 Z" />
<path fill="#000000" opacity="1.00" d=" M 119.35 273.09 C 125.36 270.88 131.25 277.13 130.60 282.99 C 130.54 287.12 125.46 289.77 121.87 288.13 C 118.05 286.43 114.87 282.37 115.54 278.02 C 115.68 275.77 117.29 273.87 119.35 273.09 Z" />
<path fill="#000000" opacity="1.00" d=" M 214.43 293.52 C 228.26 292.11 242.30 292.24 256.10 293.97 C 271.55 295.04 286.75 298.37 301.71 302.26 C 346.57 314.73 388.58 338.42 421.19 371.81 C 446.80 397.44 466.41 429.67 474.65 465.13 C 476.95 476.27 478.79 487.59 478.52 499.00 C 478.81 515.07 474.79 530.82 469.74 545.95 C 462.15 564.17 450.74 580.82 436.29 594.28 C 409.76 618.77 374.75 632.69 339.23 637.26 C 330.93 639.12 322.37 638.26 313.97 639.21 C 304.65 640.19 295.37 638.23 286.03 638.47 C 253.96 635.27 222.41 626.51 193.34 612.51 C 159.45 595.96 128.37 572.83 104.71 543.28 C 83.12 516.39 67.49 483.94 63.77 449.42 C 62.42 442.01 62.62 434.45 62.87 426.96 C 64.63 408.78 68.34 390.35 77.30 374.21 C 81.88 365.22 87.65 356.86 93.98 349.01 C 104.61 337.50 116.56 327.06 130.18 319.23 C 155.60 303.88 184.96 295.79 214.43 293.52 M 215.37 298.29 C 208.42 299.72 201.23 299.21 194.37 301.16 C 156.50 307.62 119.32 325.60 95.15 356.14 C 76.38 379.23 66.50 409.28 67.94 438.99 C 67.48 446.39 69.21 453.60 70.14 460.89 C 73.93 481.26 81.79 500.77 92.54 518.45 C 111.63 549.82 139.01 575.66 170.06 595.02 C 202.20 614.90 238.52 628.08 275.99 633.08 C 283.36 633.42 290.58 635.41 298.00 635.02 C 309.75 634.68 321.63 635.94 333.24 633.63 C 342.61 633.00 351.80 630.96 360.91 628.80 C 393.51 620.64 424.75 603.45 445.79 576.80 C 458.89 561.05 467.33 541.70 471.22 521.66 C 472.11 513.12 473.86 504.64 473.44 496.01 C 473.87 488.32 471.78 480.88 471.17 473.28 C 469.35 464.38 467.14 455.54 464.04 446.99 C 451.72 412.77 428.54 383.35 401.06 359.91 C 368.19 332.31 328.52 312.89 286.59 303.74 C 273.65 300.34 260.25 299.66 247.05 297.84 C 236.50 297.98 225.88 297.27 215.37 298.29 Z" />
<path fill="#000000" opacity="1.00" d=" M 510.34 463.17 C 514.06 461.92 519.81 464.22 519.00 468.84 C 518.10 475.34 507.34 474.82 506.07 468.83 C 505.47 466.11 507.83 463.69 510.34 463.17 Z" />
<path fill="#000000" opacity="1.00" d=" M 179.34 624.19 C 182.45 623.66 185.64 625.06 188.14 626.83 C 190.18 628.56 192.60 631.68 190.42 634.25 C 186.00 636.49 180.69 635.00 177.14 631.86 C 174.80 629.49 176.12 625.01 179.34 624.19 Z" />
</g>
<g id="#a6a6a6ff">
<path fill="#a6a6a6" opacity="1.00" d=" M 369.36 113.11 C 370.75 112.61 371.25 113.08 370.85 114.49 C 369.46 114.98 368.96 114.52 369.36 113.11 Z" />
</g>
</svg>
