<?xml version="1.0" encoding="utf-8"?>
<!-- Generator: Adobe Illustrator 21.1.0, SVG Export Plug-In . SVG Version: 6.00 Build 0)  -->
<svg version="1.1" id="Laag_1" xmlns="http://www.w3.org/2000/svg" xmlns:xlink="http://www.w3.org/1999/xlink" x="0px" y="0px"
	 viewBox="0 0 294 636" style="enable-background:new 0 0 294 636;" xml:space="preserve">
<style type="text/css">
	.st0{fill:#FFFFFF;}
	.st1{fill:#0066CC;}
	.st2{fill:#070203;}
</style>
<g id="_x23_ffffffff">
	<path class="st0" d="M134.5,21.7c5.8-2.3,12.2-0.7,18.2-0.4c4.9,0.5,10-0.6,14.8,1.3c-4.8,1.2-9.7,0.9-14.5,0.4
		C146.8,22.2,140.6,23,134.5,21.7z"/>
	<path class="st0" d="M45.5,33.7c2.4-0.6,5-0.5,7.5-0.5c8.3,0.2,16.7,0.2,25,1.1c19.3,0.4,38.6,1.9,57.9,2.5
		c12.6,1.2,25.3,0.4,37.8,2.6c18.6,3.8,34.5,16.2,45.6,31.3c13.8,18.8,19.9,42.3,20.2,65.3c0.1,97.3,0.3,194.7,0.4,292
		c0.2,31-0.2,62,0.4,93c-0.5,20.1-4.5,40.7-15.5,57.8c-10.9,17-28.4,30.6-48.8,33.3c-11.7,1.2-23.4-0.7-35.1-0.8
		c-9.3-1-18.8-0.5-28.1-1.5c-5.9-0.4-11.8-0.2-17.6-0.7c-7.4-0.8-15-0.4-22.4-1.2c-7.6-0.8-15.3,0.1-22.8-1.2
		c-10.5-1.9-18.5-12.1-18.2-22.7C31.5,407,31.3,230,31,52.9C31,44.3,37.1,36,45.5,33.7 M107.4,40.5c-1,1.3-2.1,2.6-3.1,4
		c-8-0.7-16.1-1-24.1-1.3c-8.1-1-16.3-0.4-24.4-1.4c-2.8-0.2-5.8-0.5-8.5,0.6c-4.4,1.6-7.6,5.9-7.6,10.6c0,48.4,0.1,96.7,0,145.1
		c0,96.3,0.3,192.7,0.3,289c0.3,31.3,0.2,62.7,0.2,94c-0.2,4.8,0.3,10.2,4.2,13.6c4.3,4.6,11,3.8,16.7,4c12.8,1,25.6,1,38.3,2
		c1.5,1.7,2.9,4.1,5.5,4.2c6.9,1,14,0.2,20.9,1c8.4,1,16.8,0.3,25.2,1.1c6,0.6,12,0.5,18,0.6c3.5-5.4,10.4-4.5,15.8-6.6
		c14.4-5.1,26.5-16,34.1-29.1C227,558,231,541.9,231.3,526c0.4-13,0.2-26,0.2-39c-0.2-116-0.2-232-0.5-348
		c0.4-22.8-5.3-46.3-19.3-64.7c-10.5-13.6-25.4-24.8-42.8-26.9c-3.6-0.2-5.3-4.2-8.9-4.5c-5.2-0.5-10.5-0.2-15.7-0.7
		c-7.6-0.8-15.4-0.3-23-1.1C116.7,40.5,112.1,40.6,107.4,40.5z"/>
	<path class="st0" d="M113.9,43.7c2.2,0,4.5,0.1,6.7,0.2c-1.9,2.3-4.3,4.2-6.8,5.8C113.8,47.7,113.9,45.7,113.9,43.7z"/>
	<path class="st0" d="M125.3,44.3c3.4,0.1,6.8,0.1,10.2,0.2c0,2.2,0.1,4.5,0.2,6.7c-3.4,0.2-6.8,0.1-10.2-0.3
		C125.4,48.7,125.3,46.5,125.3,44.3z"/>
	<path class="st0" d="M138.4,45.1c0.7-0.1,2.2-0.3,2.9-0.4c0,2.3-0.1,4.6-0.2,6.9c-0.7,0-2,0-2.7,0
		C138.4,49.4,138.4,47.3,138.4,45.1z"/>
	<path class="st0" d="M151.4,45.3c1,0.1,2,0.2,3,0.3c0,2,0.1,4-0.1,6.1c-0.9,1-1.8,1-2.7,0.1C151.4,49.6,151.5,47.4,151.4,45.3z"/>
	<path class="st0" d="M144.2,46.4c1.5,0,2.9,0,4.4,0.1c0,1.8,0.1,3.5,0.1,5.3c-1.6,0-3.1,0-4.6,0C144.1,50,144.2,48.2,144.2,46.4z"
		/>
	<path class="st0" d="M157.5,45.5c0.9,0,2.7,0.1,3.6,0.1c1.5,2.3,3,4.5,4.4,6.8c-2.8,0.1-5.5,0.1-8.3,0
		C157.3,50.2,157.4,47.9,157.5,45.5z"/>
	<path class="st0" d="M42.5,67c0.1-6.1-0.4-12.2,0.8-18.2c1.3,17.4,0.1,34.8,0.7,52.2c0.5,13-0.4,26,0,39c0.4,14.3-0.5,28.7,0,43
		c-0.6,39.7-0.1,79.3-0.1,119c0.2,89.7,0.2,179.3,0.5,269c0,3.9,0.2,7.8-0.8,11.6c-0.7-4.8-0.5-9.8-0.5-14.6c0-26-0.1-52-0.3-78
		C42.9,349,42.3,208,42.5,67z"/>
	<path class="st0" d="M113.5,55.8c3.5-0.3,7-0.1,10.5,0.2c7.4,0.7,14.8,0.2,22.2,1c6.4,0.7,12.9,0.3,19.3,0.9
		c-2.5,2.5-6.3,1.3-9.5,1.3c-9.4-1.2-18.8-0.4-28.2-1.5c-3.6-0.3-7.2-0.2-10.8-0.4C115.6,57.5,114.4,56.8,113.5,55.8z"/>
	<path class="st0" d="M114.2,62.5c12.2,0.9,24.5,0.8,36.8,1.8c4.6,0.2,9.2,0.3,13.8,0.3c0,0.4,0.1,1.3,0.1,1.8
		c-3.3-0.1-6.5-0.2-9.8-0.5c-7.8-0.7-15.6-0.2-23.3-1c-5.8-0.6-11.6-0.6-17.4-0.6C114.3,63.9,114.2,63,114.2,62.5z"/>
	<path class="st1" d="M77.9,74.9c2.9,1.3,6.2,2.5,7.6,5.5c1.5,2.4,1,5.2,0.5,7.8c-0.7-2.4-1-5-2.2-7.2C82.2,78.7,79.9,77,77.9,74.9z
		"/>
	<path class="st1" d="M72.7,79.5c4-1.5,8.9,0.7,9.7,5.1c1.4,5-4.5,9.9-9.2,7.2C68.2,89.9,67.8,81.9,72.7,79.5z"/>
	<path class="st0" d="M149.7,133.5c2.1-2.1,3.9-5.6,7.3-5.2c8.6,0.2,17.2,0.1,25.7,1.1c0,0.7,0.1,2.1,0.1,2.8
		c-5.3-0.4-10.6-1.1-15.9-1.4C161.1,131.6,155.7,134.5,149.7,133.5z"/>
	<path class="st0" d="M185.5,129.4c2.6,0.2,5.2,0.5,7.8,1c0.2,5.1,0.2,10.2,0.2,15.2c-1.9,0-3.9,0-5.8,0
		C188.1,140.1,187.6,134.6,185.5,129.4z"/>
	<path class="st0" d="M108.2,133.4c11.5,0,22.9,1.6,34.4,2.7c-0.2,8.2-0.1,16.4-0.1,24.6c-11.4-0.5-22.8-2.1-34.2-3.3
		C108.1,149.4,108.1,141.4,108.2,133.4z"/>
	<path class="st0" d="M161.8,134.7c5.3-1.9,10.9-0.7,16.4,0c-2.9,3.3-7.5,5.1-11.9,4.4C164.7,137.8,163.3,136.2,161.8,134.7z"/>
	<path class="st0" d="M146.7,138.2c2.9-1,5.9-1.6,8.9-2c0,0.8,0,2.3,0,3.1C152.6,139.3,149.6,138.9,146.7,138.2z"/>
	<path class="st0" d="M178.3,138.1c2.2-0.7,4.4-1.4,6.6-2.1c-0.5,11.3,0.5,22.6,0,34c-2.2,0.6-4.4,1.3-6.5,2
		C178.1,160.7,178.1,149.4,178.3,138.1z"/>
	<path class="st0" d="M187.7,148.4c1.9,0,3.9,0,5.8,0c-0.1,4.4,0.4,8.8-0.2,13.1c-1,2-3.6,2.6-5.5,3.8
		C187.7,159.6,187.8,154,187.7,148.4z"/>
	<path class="st0" d="M187.7,171.4c0.7-1.3,0.6-3.7,2.6-3.7c1-0.1,2.1-0.2,3.1-0.3c0.1,1.4,0.2,2.7,0.3,4.1
		C191.7,171.4,189.7,171.4,187.7,171.4z"/>
	<path class="st0" d="M84.1,171.2c8.1,0,16.2,0.3,24.4,0.5c-0.1,0.9-0.1,2.8-0.2,3.8c-8.4,0.2-16.8-1.1-25.2-1.1
		C83.3,173.6,83.8,172,84.1,171.2z"/>
	<path class="st0" d="M173,178.4c2.3-1,4.5-2.3,7-2.8c3.8-0.3,7.6,0.1,11.4,0.2c0,0.9-0.1,2.8-0.1,3.7
		C185.1,179.6,179,179.4,173,178.4z"/>
	<path class="st0" d="M82.3,177.4c8.2-0.1,16.3,0.6,24.5,1.1c0,0.8,0.1,2.3,0.2,3.1c-8.2,0-16.5,0.1-24.7-0.9
		C82.3,179.6,82.3,178.5,82.3,177.4z"/>
	<path class="st0" d="M69.7,181.4c2,0,4.1-0.1,6.1-0.1c-2.8,2-5.4,4.3-6.8,7.5C69.4,186.3,69.6,183.9,69.7,181.4z"/>
	<path class="st0" d="M109.6,181.2c1.2,1,2.4,2,3.7,2.9c-1.2,0.6-2.4,1.2-3.6,1.9C109.6,184.4,109.6,182.8,109.6,181.2z"/>
	<path class="st0" d="M165.3,181.4c8.3-0.1,16.4,1.1,24.7,1.2c-0.1,0.8-0.2,2.4-0.2,3.2c-8.1-0.4-16.4,0-24.5-1.1
		C165.3,183.6,165.3,182.5,165.3,181.4z"/>
	<path class="st0" d="M82.2,183.5c8.4,0.7,16.8,0.9,25.3,1.6c-2.8,3.4-7.6,2.5-11.4,2.7c-4.6,0.1-9.2-0.5-13.6-2.1
		C82.3,185.1,82.2,184,82.2,183.5z"/>
	<path class="st0" d="M132.2,184.3c3.4,0,6.8,0.1,10.2,0.4c-2.2,3.6-6.5,2.9-10.2,2.9C132.2,186.5,132.2,185.4,132.2,184.3z"/>
	<path class="st0" d="M192.2,184.9c1.7,0.9,3.5,1.8,5.3,2.5c-1.6,0.8-3.2,1.7-4.8,2.6C192.6,188.3,192.4,186.6,192.2,184.9z"/>
	<path class="st0" d="M152.6,185.4c3.3,0,6.6,0,9.9,0.2c-1.9,4.1-6.6,2.8-10.2,2.9C152.4,187.5,152.5,186.4,152.6,185.4z"/>
	<path class="st0" d="M73.1,187.2C76.5,187.4,71.5,190.1,73.1,187.2z"/>
	<path class="st0" d="M165.1,187.5c8.2,0.3,16.3,1.2,24.5,1.1c0,0.9-0.1,1.7-0.1,2.6c-8.1,0.5-16.5,1.3-24.2-1.6
		C165.3,189.1,165.2,188,165.1,187.5z"/>
	<path class="st0" d="M103.3,190.5c7.8-2,15.8-0.9,23.7-0.2c7.5,0.4,15-0.1,22.5,0.8c5,0.5,10-0.1,14.9,1.1
		c-12.8,1.1-25.6-1.1-38.4-0.9C118.4,190.7,110.9,190.1,103.3,190.5z"/>
	<path class="st0" d="M82.2,192.2c1.2,0,2.5,0.1,3.7,0.1c-0.1,0.6-0.2,1.7-0.2,2.3c-1.2,0.5-2.4,1-3.6,1.5
		C82.1,194.8,82.2,193.5,82.2,192.2z"/>
	<path class="st0" d="M90.7,193.8c7.9,0.1,15.8-0.6,23.7-0.1c-4.5,2.3-9.6,1.7-14.5,1.7C96.8,195.5,93.7,194.7,90.7,193.8z"/>
	<path class="st0" d="M76.8,197.5c0.5-1.5,1-2.9,2-4.1c0.1,1.4,0.3,2.8,0.4,4.2C78.6,197.7,77.4,197.6,76.8,197.5z"/>
	<path class="st0" d="M119.8,196.2c12.6,0,25.1,1.3,37.6,1.4c0,1.3,0,2.6,0.1,3.9c-6.2-0.1-12.5,0-18.7-0.7
		c-6.5-0.7-13.1,0.1-19.6-1.3C119.4,198.7,119.7,197,119.8,196.2z"/>
	<path class="st0" d="M72.2,201.1c5.3-0.2,10.5-1.2,15.1-4.1c0.9,2,1.2,5.1,4,5.5c11.5,2.9,23.2-1.1,34.8,0.3
		c-4.3,1.1-8.7,1.8-13.1,1.8c-11.8,0-23.8,0.6-35.5-1.5C75.7,202.7,73.9,201.9,72.2,201.1z"/>
	<path class="st0" d="M91,197.2c7.6,1.1,15.2,1.3,22.8,0.1c0,0.7-0.1,2-0.1,2.7c-7.4,0.8-14.9,0.9-22.3-0.2
		C91.3,199.2,91.1,197.9,91,197.2z"/>
	<path class="st0" d="M175.3,197.6c7.2,0.5,14.4-0.4,21.6-0.2c-0.2,1.3-0.3,2.6-0.5,3.8c-7,0.5-14-0.7-20.9-2
		C175.5,198.8,175.3,198,175.3,197.6z"/>
	<path class="st0" d="M160.2,202.3c0.2-1.8-0.2-4.1,2.1-4.7C162,199.3,162.1,201.4,160.2,202.3z"/>
	<path class="st0" d="M56.1,199.5c1.2,0,2.3,0,3.5,0c0.4,46.1,0.2,92.3,0.3,138.5c0.1,61.7,0.2,123.3,0.3,185
		c-0.1,4.3,0.4,8.6-0.3,12.8c-1,1.3-2.3,2.3-3.5,3.4c-0.4-27-0.1-54.1-0.3-81.2c-0.2-80.7-0.3-161.3-0.4-242
		C55.7,210.5,55.5,205,56.1,199.5z"/>
	<path class="st0" d="M64.9,201.2c7.7,5,17.2,5.4,26.1,6.2c11.7,0.2,23.5,0.7,35.1-1.2c5.4-0.8,10.6-2.8,16.1-2.6
		c-6.6,4-14.6,4.5-22.1,5.1c-11.3,1.1-22.8,1.1-34.1,0c-7.4-0.5-15-1.2-21.7-4.7C64.5,203,64.7,202.1,64.9,201.2z"/>
	<path class="st0" d="M156.2,204.9c5.4-0.3,10.8-2.4,16-0.2c-3.5,5.4-10.5,4.7-16,5.7C156.2,208.5,156.2,206.7,156.2,204.9z"/>
	<path class="st0" d="M148.6,203.6c1.4,3.5,0.9,7.3,0,10.8C148.1,210.8,148.1,207.2,148.6,203.6z"/>
	<path class="st0" d="M152.6,203.6c1.3,2.8,0.8,5.9,0,8.8C152.2,209.5,152.2,206.5,152.6,203.6z"/>
	<path class="st0" d="M174,208.1c1.8-1.2,4-1.5,6.1-1.9c-3.2,1.9-8.6,2.7-8.2,7.5c8.9,4.7,19.2,5.3,29.1,5c-0.2-0.5-0.5-1.4-0.7-1.9
		c-8.6-0.7-17.6-1.3-25.6-5.1c9-0.7,18.1-0.4,27.1-0.1c6.7,0.7,13.6,1.2,19.6,4.5c-10.4,4.9-22.2,4.2-33.4,5.2
		c-8.7-0.1-17.5-0.7-26.1-1.8c-3.8-0.5-7.5-1.4-10.7-3.5c4.5-2.7,9.7-3.3,14.9-3.8C169.3,212.2,171.4,209.6,174,208.1z"/>
	<path class="st0" d="M205.7,208.3c5-1.7,10.4-0.8,15.5-0.7c0.1,1.4,0.1,2.8,0.2,4.1C216.2,210.6,210.9,209.8,205.7,208.3z"/>
	<path class="st0" d="M147.8,217.4c7.4,4.9,16.6,5.6,25.2,6.2c16.1,0.2,32.8,1.2,48.3-4c-0.3,0.9-0.6,1.8-0.9,2.8
		c-10.3,2.4-20.9,3.4-31.5,3.3c-13.9,0-28.4,0.2-41.6-5C147.5,219.5,147.7,218.4,147.8,217.4z"/>
	<path class="st0" d="M124.3,538.2c6.5-0.8,12.9-2,18.7-5.2c0,3,0,5.9,0,8.9c-3.3-0.9-6.6-2.1-10-2.5c-2.7-0.4-5.1,1-7.5,1.9
		C125.1,540.3,124.7,539.3,124.3,538.2z"/>
	<path class="st0" d="M66.2,534.3c5.1,2,10.5,3,15.8,4.1c-5.2,1.2-10.5,1.5-15.7,1.5C66.2,538,66.2,536.1,66.2,534.3z"/>
	<path class="st0" d="M56.2,542.1c1.2-0.7,2.4-1.4,3.7-2c2.5,2,5.4,3.1,8.5,3.8c-2.3,1.4-4.4,3.7-7.2,3.9
		C58.1,547.7,57.1,544.4,56.2,542.1z"/>
	<path class="st0" d="M78.1,542c4.3-1,8.7-1.4,13.1-1.5c-3.4,1.8-7.2,3-10.2,5.5c-1.4,1-2.6,2.3-4.2,3.1c-3.3,0.1-6.5-0.6-9.7-1
		C70.6,545.8,74,543,78.1,542z"/>
	<path class="st0" d="M130.3,542.4c8.2-0.7,15.6,4.4,21.2,9.9c-4.5,0.1-8.9-0.6-13.4-0.7c-6.1-0.2-12.3,0-18.4-0.8
		C123,547.7,126.2,544.3,130.3,542.4z"/>
	<path class="st0" d="M85.6,551.8c1.8-2.7,5-3.5,7.9-4.3C91.1,549.4,88.5,551,85.6,551.8z"/>
	<path class="st0" d="M101.4,549.6c4.9-0.4,9.9,0.2,14.8,1.2c-2.4,0.3-4.8,0.3-7.1,0.5c-3.7,0.1-6.7,2.3-10,3.7
		C99.7,553.3,100,551.1,101.4,549.6z"/>
	<path class="st0" d="M78,552.8c1.7-0.8,2.5,2.8,0.6,2.8C77.4,555.4,77.1,553.5,78,552.8z"/>
	<path class="st0" d="M165.5,554.5c1.9,0.1,3.8,0.2,5.7,0.4c-1.9,1.1-3.7,2.2-5.6,3.3C165.6,556.9,165.5,555.7,165.5,554.5z"/>
	<path class="st0" d="M162.5,560.3c-2.4-1.3-2-4.1-0.1-5.6C162.6,556.5,162.6,558.4,162.5,560.3z"/>
	<path class="st0" d="M70.2,558.2c1.8,0.1,3.5,0.3,5.3,0.4c-1.7,1.3-3.4,2.5-5.1,3.8C70.3,561,70.2,559.6,70.2,558.2z"/>
	<path class="st0" d="M76.6,561.5c2.5-1.6,5-3.8,8.2-3c-4.1,3.9-8.7,7.3-14,9.4C71.1,564.7,74.2,563.2,76.6,561.5z"/>
	<path class="st0" d="M132.9,561.2c2.1,0.1,4.3,0.2,6.4,0.4c-2.1,1.6-4.3,3.2-6.5,4.6C132.9,564.5,132.9,562.9,132.9,561.2z"/>
	<path class="st0" d="M94,565.2c3.5-3.7,8.6-3.1,13.2-2.6c-1,1.2-2.1,2.5-3.3,3.6C100.6,566.7,97.2,565.9,94,565.2z"/>
	<path class="st0" d="M153.5,562.3c1.6,0,3.3,0.1,4.9,0.2c-1.2,1.9-2.9,3.4-4.8,4.6C153.6,565.5,153.6,563.9,153.5,562.3z"/>
	<path class="st0" d="M116.6,566.8c2.1-2.4,5-3.7,8.1-3.8c0.1,1.5,0.1,2.9,0.2,4.4C122.1,567.3,119.3,567.1,116.6,566.8z"/>
	<path class="st0" d="M136.6,567.7c2.4-2.2,5-4,7.8-5.7c0.4,2.1,0.7,4.2,1.1,6.4C142.5,568.3,139.6,568.1,136.6,567.7z"/>
	<path class="st0" d="M76.9,568.4c1.9-1.4,3.7-2.9,5.6-4.3c-0.1,1.4-0.2,2.8-0.2,4.3C80.5,568.3,78.7,568.4,76.9,568.4z"/>
	<path class="st0" d="M156,568.5c1.6-0.7,3-2,4.7-2c1.8,0.5,3.2,1.7,4.7,2.7C162.3,569.5,159.1,569.2,156,568.5z"/>
	<path class="st0" d="M199.6,574.1c2.3-2.6,5.2-4.7,8.4-6.1c-0.4,1.8,0.2,4.3-1.8,5.3C204.3,574.7,201.8,574,199.6,574.1z"/>
	<path class="st0" d="M197.1,569.2c2-0.8,2.5,2.4,0.6,2.8C195.6,572.7,195,569.4,197.1,569.2z"/>
	<path class="st0" d="M109.4,579.3c1.3,0.1,2.5,0.2,3.8,0.3c-1.2,0.8-2.5,1.7-3.7,2.5C109.4,581.4,109.4,580,109.4,579.3z"/>
	<path class="st0" d="M106.3,580.2c0.6,2,1,3.9,1.6,5.9c2.3-1,4.7-2,7-2.9c-0.4,1.5-0.4,3.2-1.2,4.7c-2.1,2.2-4.9,3.6-7.4,5.2
		C106.3,588.9,106.4,584.5,106.3,580.2z"/>
	<path class="st0" d="M117.3,582.3c12.6-0.3,25.1,1.3,37.7,1.3c5.6,0.1,11.1,0.9,16.7,1c0,1.7,0,3.3,0,5
		c-18.1-0.1-36.2-2.2-54.3-2.2C117.4,585.7,117.4,584,117.3,582.3z"/>
	<path class="st0" d="M43.1,584.8c2.8,4.1,6,8,9.8,11.2c-2.7-1-5.7-2-7.5-4.5C43.8,589.7,43.5,587.1,43.1,584.8z"/>
	<path class="st0" d="M114.7,591c8-1.5,16.1-0.3,24.2-0.2c11.1,1.4,22.5-0.1,33.4,2.5c-8.1,0.6-16.2-0.1-24.3-0.7
		C136.9,592.4,125.8,591.6,114.7,591z"/>
	<path class="st0" d="M112.5,593.6c19.9,1.4,39.9,1.8,59.8,3.1c-0.9,2-1.6,4.1-3.5,5.4c-3,0.7-6,0-9-0.2c-17-0.9-34-1.3-50.9-2.6
		C110,597.4,111.3,595.5,112.5,593.6z"/>
</g>
<g id="_x23_070203ff">
	<path class="st2" d="M77.5,12.8c3.4-0.8,7-0.5,10.5-0.5c6.1,0.2,12.3-0.1,18.4,0.6c7.7,0.9,15.4,0.2,23.1,1.3
		c22.1,0.9,44.1,2.4,66.2,3.8c17.1,1.3,32.8,10.6,44.1,23.2c13.8,15.1,22.1,34.7,25.3,54.7c2.4,12.9,2,26,2,39
		c0.2,120.7,0.6,241.3,0.7,362c0.4,12.7-0.9,25.4-3.9,37.8c-4.4,17.1-13.4,33.5-27.5,44.6c-9.6,7.3-18.9,15-28.5,22.4
		c-12.1,9.3-27.4,14.5-42.8,13.7c-32-2-64-3-96-4.8c-7.6-0.3-15.4,0.4-22.7-1.9c-10.3-3.4-17.6-13.8-17.4-24.6
		C28.6,410,28.4,236,28.1,62c0.1-6.2-0.8-12.9,2.2-18.7c2.4-5.3,7-9.3,12.2-11.9c8.3-4.3,16.4-8.9,24.6-13.4
		C70.5,16.2,73.8,13.9,77.5,12.8 M75.1,20.1c-5.8,3.5-11.8,6.4-17.4,10.2c4.4,0.3,8.9,0.3,13.3,0.8c7.8,0.7,15.6,0.2,23.3,1
		c6.7,0.7,13.5,0.3,20.2,0.9c7.8,0.8,15.7,0.3,23.6,1.2c7.6,0.4,15.3,0.4,22.9,1.1c11.6-0.5,22.9,3.3,33,8.8
		c21.8,12.3,37,34.3,43.6,58.2c4.2,14.5,5.1,29.7,4.8,44.7c0.1,123,0.4,246,0.4,369c0.6,12.9-0.8,26-4.2,38.5
		c-2.7,10.7-7.9,20.4-13.5,29.8c9.4-6.5,18-14.3,24.2-23.9c10.4-16,14.7-35.4,15.1-54.3c-0.2-122.7-0.3-245.3-0.5-368
		c-0.1-10.7,0.3-21.3-0.8-32c-1.3-14.9-5.3-29.7-12.2-43c-8.2-15.9-21.1-29.9-37.6-37.3c-11.6-5.3-24.6-5.2-37-5.5
		c2.2,2.6,4,5.5,5.7,8.5c-5.1,2.4-10.7,2-16.1,2.5c-7.7,0.7-15.3-0.8-23-0.7c-7.5-0.2-15.4-0.1-22.3-3.6c1.1-2.2,2.1-4.5,3.7-6.4
		c2.2-1.8,5.1-2.1,7.7-2.9c-6.7-0.4-13.4-1.4-20.2-1.2c-9.3,0.3-18.6-1.8-28-0.8C80.8,16.6,78,18.5,75.1,20.1 M134.5,21.7
		c6.1,1.3,12.3,0.6,18.4,1.2c4.8,0.5,9.8,0.8,14.5-0.4c-4.7-1.9-9.8-0.8-14.8-1.3C146.7,21,140.4,19.3,134.5,21.7 M45.5,33.7
		C37.1,36,31,44.3,31,52.9C31.3,230,31.5,407,31.8,584c-0.3,10.6,7.7,20.8,18.2,22.7c7.5,1.3,15.2,0.4,22.8,1.2
		c7.4,0.8,15,0.4,22.4,1.2c5.9,0.5,11.8,0.3,17.6,0.7c9.3,1,18.8,0.5,28.1,1.5c11.7,0.1,23.4,2,35.1,0.8
		c20.3-2.7,37.9-16.4,48.8-33.3c11-17.1,15-37.7,15.5-57.8c-0.7-31-0.2-62-0.4-93c-0.1-97.3-0.3-194.7-0.4-292
		c-0.3-23.1-6.4-46.6-20.2-65.3c-11.1-15.1-27-27.4-45.6-31.3c-12.5-2.2-25.2-1.4-37.8-2.6c-19.3-0.5-38.6-2-57.9-2.5
		c-8.3-0.8-16.7-0.9-25-1.1C50.5,33.2,47.9,33.2,45.5,33.7z"/>
	<path class="st2" d="M107.4,40.5c4.6,0.1,9.3,0.1,13.9,0.6c7.7,0.8,15.4,0.3,23,1.1c5.2,0.5,10.5,0.2,15.7,0.7
		c3.5,0.3,5.3,4.4,8.9,4.5c17.4,2.1,32.3,13.3,42.8,26.9c14,18.3,19.7,41.9,19.3,64.7c0.3,116,0.4,232,0.5,348c0,13,0.2,26-0.2,39
		c-0.3,16-4.3,32-12.5,45.9c-7.6,13.1-19.7,24-34.1,29.1c-5.3,2.1-12.3,1.2-15.8,6.6c-6-0.1-12,0-18-0.6c-8.4-0.8-16.8-0.2-25.2-1.1
		c-7-0.7-14,0-20.9-1c-2.6-0.1-4-2.5-5.5-4.2c-12.8-0.9-25.6-1-38.3-2c-5.7-0.2-12.4,0.6-16.7-4c-3.9-3.4-4.3-8.8-4.2-13.6
		c0-31.3,0-62.7-0.2-94c0.1-96.3-0.3-192.7-0.3-289c0.1-48.4,0-96.7,0-145.1c0-4.7,3.3-9,7.6-10.6c2.7-1.1,5.7-0.8,8.5-0.6
		c8.1,1,16.3,0.4,24.4,1.4c8.1,0.2,16.1,0.6,24.1,1.3C105.4,43.1,106.4,41.8,107.4,40.5 M50.5,44.7c-4.7,2.1-4,8-3.9,12.3
		c-0.2,143.7,0.5,287.3,0.3,431c0.4,31.3,0.2,62.7,0.3,94c-0.1,3.3,1.2,6.8,4.1,8.7c3.7,2.6,8.5,1.5,12.7,2c9,1,18,0.4,27,1.4
		c4.2,0.4,8.4,0.4,12.6,0.5c0.4-6.1-1.4-12.7,1.4-18.4c13,0.2,25.9,1.3,38.9,1.6c9.2,1.1,18.6,0.2,27.8,1.7c1.4,0.1,2.8,1.2,2.8,2.7
		c0.4,5.2,0,10.3,0.2,15.5c8.9-0.6,17.5-4.1,24.8-9.2c11.5-7.9,19.3-20.1,23.8-33.1c-2.6,1.3-5.1,3.1-8.1,2.9
		c-4-0.1-7.9-0.7-11.9-0.8c0,1.2-0.1,2.5-0.1,3.7c2.6,0.6,7,0.4,7.5,3.8c0.1,3.6,1,8.2-1.8,11.1c-3.2,1-6.6,0.6-9.8,0.6
		c-4,0.2-6.6-3.5-10.5-3.8c-6.7-0.6-13.5-0.1-20.2-0.8c-5.4-0.6-10.9-0.5-16.4-0.7c-0.9-3.7-1.9-7.9,0-11.5c2-0.5,4.1-0.6,6.1-0.8
		c0-0.9,0-2.6,0.1-3.5c-12.7-0.3-25.3-1.6-37.9-1.4c0.1,1,0.1,2,0.2,3c2.5,0.5,5,1.2,7.5,1.9c0,3.5,0,6.9-0.2,10.4
		c-10.5,0.6-20.9-0.3-31.4-0.9c-3.8,0-8-0.9-11.5,1c-3.6,1.9-7.7,1.2-11.6,0.9c-2.2,0-4.5-1-5.2-3.3c-0.8-3.5-0.7-7.1-0.1-10.6
		c2-1.7,4.8-1.2,7.3-1.6c0-1.2-0.1-2.4-0.2-3.6c-5.5-0.1-11.2,0.4-16.4-1.7c-3.7-1.6-5.2-5.9-5-9.7c-0.1-112.7-0.4-225.4-0.5-338.1
		c-0.2-2.1,0.5-5.2,3.2-5.1c6.1,0.4,12.2,0.9,18.4,0.7c-0.1-0.9-0.2-2.6-0.3-3.4c-2.5-0.7-6.9,0.4-7.2-3.2c-0.2-4-1.3-8.7,1.1-12.2
		c3.8-0.5,7.6-0.1,11.3-0.1c1.1-3.3,0.4-8.1,3.7-10c9.5-0.7,19.2,0.1,28.6,1.3c0.4,3.5,0.5,7.1,0.7,10.6c5.3-0.3,10.6,0.5,15.7,1.8
		c4.3-0.3,8.6-1.3,12.9-0.6c3.3,0.2,6.5,2.2,9.9,1.4c3.7-0.7,7.6-0.6,11.4-0.5c0.3-1,0.5-2,0.8-3c-5.6,0-11.4-0.2-16.9-1.5
		c-1.3-0.3-2.9-0.6-3.2-2.2c-0.8-3.2-0.4-6.6-0.5-9.9c-5.8-0.4-11.7-0.4-17.5-1c-5.9-0.6-12,0.1-17.9-0.9c-2.4-0.3-3.9-2.7-3.9-5
		c-0.5-6.7-0.1-13.4-0.2-20.1c0.1-2.9-0.1-6.9,3.2-8c5.6-1,11.2,0.5,16.8,0.5c6.4,0.1,12.7,0.1,19,0.9c5.6,1,7.5-6.9,12.9-6.9
		c7.1-0.3,14.1,0.4,21.1,0.9c5.6,0.4,11.2-0.4,16.7,1c2.9,0.7,3.6,4,3.6,6.6c0,6.3,0.4,12.7,0.1,19c-0.2,6.8,0.5,13.7-0.8,20.5
		c-0.6,3.6-0.5,7.4-0.4,11c4.8-0.1,9.6,0,14.3,1c0.4,4.6,1.4,9.5-0.3,13.9c-2.2,0.8-4.6,1-6.9,1.3c0,1,0,2,0,3
		c5.2,0.8,10.4,0.8,15.7,0.9c1.9,0.1,4.5-0.2,5.5,1.9c0.8,2.8,0.5,5.7,0.6,8.6c0,112.3,0.5,224.7,0.3,337.1
		c2.9-10.4,4.4-21.2,4.3-32.1c-0.2-127.7-0.4-255.3-0.5-383c-0.1-21.2-5.3-42.9-18.1-60.1c-10.2-13.6-24.9-24.8-42.2-26.8
		c-0.2,6.8,0.2,13.6-0.3,20.4c-6.8,0.4-13.6,0.1-20.3-0.4c-7.6-0.8-15.3-0.4-22.9-1.1c-4.8-0.5-9.7-0.5-14.6-0.6
		c-2.2-7.1-0.8-14.6-1.2-21.9c-7.2,0.2-14.4,0-21.5-0.4c-8.1-0.9-16.3-0.3-24.4-1.3C58.6,44.6,54.5,44.2,50.5,44.7 M113.9,43.7
		c0,2-0.1,4-0.1,6c2.5-1.6,4.9-3.5,6.8-5.8C118.4,43.8,116.2,43.7,113.9,43.7 M125.3,44.3c0.1,2.2,0.1,4.4,0.2,6.6
		c3.4,0.4,6.8,0.5,10.2,0.3c-0.1-2.2-0.1-4.5-0.2-6.7C132.1,44.5,128.7,44.4,125.3,44.3 M138.4,45.1c0,2.2,0,4.3,0,6.5
		c0.7,0,2,0,2.7,0c0.1-2.3,0.1-4.6,0.2-6.9C140.5,44.8,139.1,45,138.4,45.1 M151.4,45.3c0,2.1,0,4.3,0.2,6.5
		c0.9,0.9,1.8,0.9,2.7-0.1c0.2-2,0.1-4,0.1-6.1C153.4,45.5,152.4,45.4,151.4,45.3 M144.2,46.4c0,1.8-0.1,3.5-0.1,5.3
		c1.5,0,3.1,0,4.6,0c-0.1-1.8-0.1-3.5-0.1-5.3C147.1,46.5,145.7,46.5,144.2,46.4 M157.5,45.5c-0.1,2.4-0.3,4.7-0.4,7
		c2.8,0,5.5,0,8.3,0c-1.4-2.4-2.9-4.6-4.4-6.8C160.2,45.6,158.4,45.5,157.5,45.5 M42.5,67c-0.2,141,0.4,282,0.3,423
		c0.2,26,0.2,52,0.3,78c0,4.9-0.2,9.8,0.5,14.6c1-3.8,0.8-7.7,0.8-11.6c-0.3-89.7-0.3-179.3-0.5-269c0.1-39.7-0.4-79.3,0.1-119
		c-0.5-14.3,0.4-28.7,0-43c-0.4-13,0.4-26,0-39c-0.6-17.4,0.6-34.9-0.7-52.2C42.1,54.8,42.6,60.9,42.5,67 M113.5,55.8
		c0.9,1,2.1,1.7,3.5,1.6c3.6,0.2,7.2,0.1,10.8,0.4c9.4,1,18.8,0.3,28.2,1.5c3.1-0.1,7,1.2,9.5-1.3c-6.4-0.6-12.9-0.2-19.3-0.9
		c-7.4-0.8-14.8-0.3-22.2-1C120.5,55.7,117,55.5,113.5,55.8 M114.2,62.5c0,0.5,0.1,1.4,0.1,1.8c5.8,0,11.6,0,17.4,0.6
		c7.8,0.8,15.6,0.3,23.3,1c3.2,0.3,6.5,0.4,9.8,0.5c0-0.5-0.1-1.3-0.1-1.8c-4.6,0-9.2-0.1-13.8-0.3
		C138.7,63.3,126.4,63.5,114.2,62.5 M149.7,133.5c6,1,11.5-1.9,17.3-2.8c5.3,0.3,10.6,1,15.9,1.4c0-0.7-0.1-2.1-0.1-2.8
		c-8.5-1-17.1-0.9-25.7-1.1C153.5,127.9,151.7,131.4,149.7,133.5 M185.5,129.4c2,5.2,2.6,10.7,2.2,16.2c1.9,0,3.9,0,5.8,0
		c0-5.1,0-10.2-0.2-15.2C190.8,129.9,188.1,129.6,185.5,129.4 M108.2,133.4c-0.1,8-0.1,16,0.1,24c11.4,1.2,22.8,2.8,34.2,3.3
		c0-8.2-0.1-16.4,0.1-24.6C131.1,135,119.7,133.4,108.2,133.4 M161.8,134.7c1.5,1.5,2.9,3.1,4.5,4.4c4.4,0.7,8.9-1,11.9-4.4
		C172.7,134.1,167.1,132.8,161.8,134.7 M146.7,138.2c2.9,0.7,5.9,1.1,9,1.1c0-0.8,0-2.3,0-3.1C152.6,136.6,149.5,137.2,146.7,138.2
		 M178.3,138.1c-0.1,11.3-0.1,22.6,0.1,33.9c2.2-0.7,4.3-1.3,6.5-2c0.5-11.3-0.5-22.6,0-34C182.7,136.7,180.5,137.4,178.3,138.1
		 M145.4,141.2c0,11.2,0,22.5,0.1,33.7c9.2,1.9,18.9,2.4,28.1,0.4c2.3-0.5,1.7-3.4,1.9-5.2c-0.1-9.7,0.1-19.3-0.2-28.9
		C165.3,142.8,155.2,142.8,145.4,141.2 M187.7,148.4c0.1,5.6,0.1,11.2,0.1,16.8c1.8-1.1,4.4-1.7,5.5-3.8c0.6-4.3,0.2-8.7,0.2-13.1
		C191.6,148.4,189.6,148.4,187.7,148.4 M187.7,171.4c2,0,4,0.1,6,0.1c-0.1-1.4-0.2-2.7-0.3-4.1c-1,0.1-2.1,0.2-3.1,0.3
		C188.3,167.7,188.4,170.1,187.7,171.4 M84.1,171.2c-0.2,0.8-0.7,2.4-1,3.1c8.4,0,16.8,1.3,25.2,1.1c0-0.9,0.1-2.8,0.2-3.8
		C100.3,171.5,92.2,171.2,84.1,171.2 M173,178.4c6,0.9,12.2,1.2,18.3,1c0-0.9,0.1-2.8,0.1-3.7c-3.8-0.1-7.6-0.5-11.4-0.2
		C177.5,176.1,175.3,177.4,173,178.4 M82.3,177.4c0,1.1,0,2.2-0.1,3.3c8.2,1,16.5,0.9,24.7,0.9c0-0.8-0.1-2.3-0.2-3.1
		C98.7,178,90.5,177.3,82.3,177.4 M69.7,181.4c-0.1,2.5-0.3,4.9-0.7,7.3c1.4-3.2,4.1-5.5,6.8-7.5C73.8,181.3,71.7,181.4,69.7,181.4
		 M109.6,181.2c0,1.6,0,3.2,0,4.8c1.2-0.6,2.4-1.2,3.6-1.9C112,183.1,110.8,182.2,109.6,181.2 M165.3,181.4c0,1.1,0,2.2,0,3.3
		c8.1,1.1,16.3,0.7,24.5,1.1c0.1-0.8,0.2-2.4,0.2-3.2C181.8,182.5,173.6,181.3,165.3,181.4 M82.2,183.5c0.1,0.5,0.2,1.6,0.2,2.1
		c4.4,1.6,9,2.2,13.6,2.1c3.8-0.1,8.6,0.7,11.4-2.7C99,184.4,90.6,184.2,82.2,183.5 M132.2,184.3c0,1.1,0,2.2,0,3.3
		c3.6,0,8,0.7,10.2-2.9C139,184.4,135.6,184.4,132.2,184.3 M192.2,184.9c0.2,1.7,0.3,3.4,0.5,5.1c1.6-0.9,3.2-1.8,4.8-2.6
		C195.8,186.6,194,185.8,192.2,184.9 M152.6,185.4c-0.1,1.1-0.2,2.1-0.2,3.2c3.6-0.1,8.3,1.1,10.2-2.9
		C159.2,185.4,155.9,185.4,152.6,185.4 M73.1,187.2C71.5,190.1,76.5,187.4,73.1,187.2 M165.1,187.5c0.1,0.5,0.2,1.6,0.3,2.1
		c7.7,2.9,16.1,2.1,24.2,1.6c0-0.9,0-1.7,0.1-2.6C181.5,188.7,173.3,187.8,165.1,187.5 M103.3,190.5c7.6-0.4,15.1,0.2,22.6,0.8
		c12.8-0.1,25.6,2,38.4,0.9c-4.9-1.2-9.9-0.6-14.9-1.1c-7.4-0.9-15-0.5-22.5-0.8C119.1,189.6,111.1,188.5,103.3,190.5 M90.7,193.8
		c3,0.9,6.1,1.7,9.2,1.7c4.8-0.1,10,0.6,14.5-1.7C106.5,193.2,98.6,193.9,90.7,193.8 M76.8,197.5c0.6,0.1,1.8,0.1,2.4,0.2
		c-0.1-1.4-0.2-2.8-0.4-4.2C77.7,194.6,77.2,196.1,76.8,197.5 M119.8,196.2c-0.1,0.8-0.4,2.5-0.5,3.3c6.4,1.5,13.1,0.7,19.6,1.3
		c6.2,0.7,12.4,0.6,18.7,0.7c0-1.3-0.1-2.6-0.1-3.9C144.9,197.5,132.4,196.2,119.8,196.2 M72.2,201.1c1.7,0.8,3.4,1.7,5.3,2
		c11.7,2.1,23.6,1.5,35.5,1.5c4.4,0.1,8.8-0.6,13.1-1.8c-11.6-1.4-23.3,2.6-34.8-0.3c-2.7-0.3-3-3.5-4-5.5
		C82.8,199.8,77.6,200.9,72.2,201.1 M91,197.2c0.1,0.7,0.3,1.9,0.4,2.6c7.4,1.1,14.9,1,22.3,0.2c0-0.7,0.1-2,0.1-2.7
		C106.2,198.6,98.6,198.3,91,197.2 M175.3,197.6c0.1,0.4,0.2,1.2,0.3,1.6c6.9,1.3,13.8,2.6,20.9,2c0.2-1.3,0.3-2.6,0.5-3.8
		C189.7,197.1,182.5,198.1,175.3,197.6 M160.2,202.3c1.9-0.8,1.8-2.9,2.1-4.7C160,198.1,160.3,200.5,160.2,202.3 M56.1,199.5
		c-0.6,5.5-0.4,11-0.4,16.5c0.1,80.7,0.2,161.3,0.4,242c0.1,27-0.1,54.1,0.3,81.2c1.2-1.1,2.5-2.1,3.5-3.4c0.7-4.2,0.2-8.5,0.3-12.8
		c-0.1-61.7-0.2-123.3-0.3-185c-0.1-46.2,0.1-92.3-0.3-138.5C58.4,199.5,57.3,199.5,56.1,199.5 M156.2,204.9c0,1.8,0,3.7,0,5.5
		c5.6-1,12.5-0.3,16-5.7C167,202.4,161.6,204.6,156.2,204.9 M148.6,203.6c-0.5,3.6-0.5,7.2,0,10.8C149.5,210.9,150,207,148.6,203.6
		 M152.6,203.6c-0.4,2.9-0.3,5.9,0,8.8C153.4,209.5,153.9,206.4,152.6,203.6 M174,208.1c-2.6,1.5-4.7,4.1-7.9,4.2
		c-5.1,0.4-10.4,1.1-14.9,3.8c3.2,2,7,3,10.7,3.5c8.6,1.1,17.4,1.7,26.1,1.8c11.2-1,23-0.3,33.4-5.2c-6-3.3-12.9-3.8-19.6-4.5
		c-9-0.2-18.1-0.5-27.1,0.1c7.9,3.8,16.9,4.4,25.6,5.1c0.2,0.5,0.5,1.4,0.7,1.9c-9.9,0.3-20.2-0.3-29.1-5c-0.4-4.8,4.9-5.6,8.2-7.5
		C177.9,206.6,175.8,206.9,174,208.1 M64.3,207.4c0.2,105.6,0.3,211.1,0.5,316.7c0,1.2,0.2,2.5,0.4,3.7c3,2.5,7.1,2.8,10.8,3.6
		c7.3,1.4,14.8,1.2,22.2,1.9c6.6,0.5,13.2-0.5,19.8-0.6c5.4-0.1,10.7-0.9,16-1.8c2.8-0.6,5.8-1.2,8.2-2.9c0.6-3.6,0.3-7.2,0.4-10.8
		c-0.3-103.2-0.2-206.5-0.6-309.8c-10.8,4.2-22.5,4.3-33.9,5.1C93.4,211.4,78.3,212.7,64.3,207.4 M205.7,208.3
		c5.2,1.4,10.5,2.2,15.7,3.4c-0.1-1.4-0.1-2.8-0.2-4.1C216.1,207.5,210.7,206.6,205.7,208.3 M147.3,223.5
		c0.3,106.9,0.3,213.8,0.5,320.6c8.4,4.4,18.1,4.2,27.3,5.1c15.5,0.8,31.1,0.2,46.3-3c0.5-9.4,0.1-18.8,0.2-28.2
		c-0.2-97.6-0.1-195.3-0.6-292.9c-11.6,2.2-23.3,3.6-35.1,3.4C173,228.4,159.6,228,147.3,223.5 M124.3,538.2c0.4,1,0.8,2.1,1.2,3.1
		c2.4-0.9,4.9-2.3,7.5-1.9c3.4,0.4,6.7,1.6,10,2.5c0-3,0-5.9,0-8.9C137.2,536.2,130.8,537.5,124.3,538.2 M66.2,534.3
		c0,1.9,0,3.7,0.1,5.6c5.3,0,10.6-0.3,15.7-1.5C76.7,537.3,71.3,536.3,66.2,534.3 M56.2,542.1c1,2.3,2,5.5,5,5.6
		c2.8-0.2,4.9-2.5,7.2-3.9c-3.1-0.7-6-1.8-8.5-3.8C58.6,540.8,57.4,541.4,56.2,542.1 M78.1,542c-4.2,1-7.5,3.8-11,6
		c3.2,0.4,6.5,1.1,9.7,1c1.6-0.8,2.8-2,4.2-3.1c3-2.5,6.8-3.7,10.2-5.5C86.8,540.6,82.4,541.1,78.1,542 M130.3,542.4
		c-4.1,1.9-7.3,5.3-10.6,8.3c6.1,0.8,12.2,0.6,18.4,0.8c4.5,0.1,8.9,0.8,13.4,0.7C145.9,546.8,138.5,541.8,130.3,542.4 M85.6,551.8
		c2.9-0.9,5.6-2.4,7.9-4.3C90.6,548.3,87.3,549.1,85.6,551.8 M101.4,549.6c-1.4,1.5-1.7,3.7-2.3,5.5c3.2-1.4,6.3-3.6,10-3.7
		c2.4-0.2,4.8-0.3,7.1-0.5C111.3,549.8,106.3,549.2,101.4,549.6 M78,552.8c-1,0.7-0.6,2.6,0.6,2.8C80.5,555.5,79.7,552,78,552.8
		 M165.5,554.5c0,1.2,0.1,2.4,0.1,3.7c1.8-1.1,3.7-2.2,5.6-3.3C169.3,554.7,167.4,554.6,165.5,554.5 M162.5,560.3
		c0.1-1.9,0.1-3.7-0.1-5.6C160.5,556.1,160.1,559,162.5,560.3 M70.2,558.2c0,1.4,0.1,2.8,0.1,4.2c1.7-1.2,3.4-2.5,5.1-3.8
		C73.7,558.5,71.9,558.3,70.2,558.2 M76.6,561.5c-2.4,1.7-5.5,3.2-5.8,6.4c5.2-2.2,9.9-5.5,14-9.4C81.6,557.7,79,560,76.6,561.5
		 M94,565.2c3.3,0.7,6.6,1.5,10,1.1c1.2-1.1,2.2-2.4,3.3-3.6C102.6,562.1,97.5,561.5,94,565.2 M153.5,562.3c0,1.6,0.1,3.2,0.1,4.9
		c1.9-1.3,3.6-2.7,4.8-4.6C156.8,562.4,155.2,562.4,153.5,562.3 M116.6,566.8c2.8,0.3,5.5,0.5,8.3,0.6c-0.1-1.5-0.1-3-0.2-4.4
		C121.5,563.1,118.7,564.4,116.6,566.8 M76.9,568.4c1.8,0,3.5,0,5.3-0.1c0.1-1.4,0.2-2.9,0.2-4.3C80.7,565.5,78.8,567,76.9,568.4
		 M156,568.5c3.1,0.8,6.2,1,9.4,0.7c-1.5-1-2.9-2.2-4.7-2.7C159,566.5,157.6,567.8,156,568.5 M199.6,574.1c2.2-0.1,4.7,0.6,6.6-0.8
		c2-1,1.4-3.6,1.8-5.3C204.8,569.4,201.9,571.5,199.6,574.1 M197.1,569.2c-2,0.3-1.5,3.6,0.6,2.8
		C199.6,571.6,199.1,568.4,197.1,569.2 M109.4,579.3c0,0.7,0,2.1,0.1,2.8c1.2-0.8,2.5-1.7,3.7-2.5
		C111.9,579.5,110.6,579.4,109.4,579.3 M106.3,580.2c0,4.3,0,8.6,0,12.9c2.6-1.6,5.3-3,7.4-5.2c0.8-1.4,0.8-3.1,1.2-4.7
		c-2.4,0.9-4.7,1.9-7,2.9C107.4,584.2,106.9,582.2,106.3,580.2 M117.3,582.3c0,1.7,0.1,3.3,0.1,5c18.1,0,36.2,2.1,54.3,2.2
		c0-1.7,0-3.3,0-5c-5.6,0-11.1-0.8-16.7-1C142.5,583.6,129.9,582,117.3,582.3 M43.1,584.8c0.4,2.3,0.7,4.9,2.3,6.8
		c1.8,2.5,4.8,3.4,7.5,4.5C49.1,592.8,46,588.9,43.1,584.8 M114.7,591c11.1,0.5,22.2,1.4,33.3,1.6c8.1,0.6,16.2,1.3,24.3,0.7
		c-10.9-2.6-22.3-1.1-33.4-2.5C130.9,590.8,122.7,589.5,114.7,591 M112.5,593.6c-1.2,1.9-2.5,3.8-3.6,5.8
		c16.9,1.2,33.9,1.7,50.9,2.6c3,0.2,6,0.9,9,0.2c1.9-1.2,2.6-3.4,3.5-5.4C152.4,595.3,132.4,594.9,112.5,593.6z"/>
	<path d="M73.4,73.3c6.2-2.6,13.7,1.6,15.5,7.9c1.8,5.2-0.6,11.9-6,13.9c-5.6,2.7-12.9,0-15.6-5.4C64.6,83.9,67.1,75.7,73.4,73.3
		 M77.9,74.9c2,2.1,4.3,3.8,5.9,6.2c1.2,2.2,1.5,4.8,2.2,7.2c0.5-2.6,0.9-5.5-0.5-7.8C84.1,77.4,80.8,76.2,77.9,74.9 M72.6,79.6
		c-4.9,2.4-4.3,10.4,0.8,12.3c4.7,2.6,10.6-2.4,9-7.4C81.4,80.2,76.6,78,72.6,79.6z"/>
	<path class="st2" d="M130.5,559.4c5.3-2.1,11.5-0.6,17,0.1c0.6,3.7,0.6,7.4,0,11.1c-5.6-0.1-11.7,1-16.9-1.1
		C129.5,566.3,129.5,562.6,130.5,559.4 M132.9,561.2c0,1.6,0,3.3-0.1,5c2.2-1.4,4.4-3,6.5-4.6C137.2,561.5,135.1,561.3,132.9,561.2
		 M136.6,567.7c2.9,0.4,5.9,0.6,8.8,0.7c-0.3-2.1-0.7-4.3-1.1-6.4C141.7,563.7,139,565.6,136.6,567.7z"/>
</g>
</svg>
